<svg width="1038" height="772" viewBox="0 0 1038 772" fill="none" xmlns="http://www.w3.org/2000/svg">
<path d="M224.749 130.334C224.749 161.047 219.028 186.581 207.586 206.936C196.144 227.29 180.005 242.587 159.168 252.824C138.452 262.941 114.062 268 85.999 268H0.544922V3.86914H91.9609C120.385 3.86914 144.474 8.74707 164.227 18.5029C183.979 28.2588 198.974 42.5312 209.212 61.3203C219.57 80.1094 224.749 103.114 224.749 130.334ZM150.677 132.863C150.677 116.844 148.509 103.596 144.173 93.1172C139.957 82.5182 133.574 74.6292 125.022 69.4502C116.471 64.1507 105.691 61.501 92.6836 61.501H71.9072V209.465H87.8057C109.485 209.465 125.384 203.202 135.501 190.676C145.618 178.029 150.677 158.758 150.677 132.863ZM429.08 268H272.264V3.86914H429.08V61.1396H343.626V102.692H422.757V159.963H343.626V209.826H429.08V268ZM648.045 187.785C648.045 202.118 644.432 215.728 637.205 228.615C629.979 241.382 618.717 251.74 603.421 259.689C588.245 267.639 568.613 271.613 544.524 271.613C532.48 271.613 521.881 271.071 512.728 269.987C503.694 268.903 495.263 267.157 487.435 264.748C479.606 262.219 471.476 258.967 463.045 254.992V191.398C477.378 198.625 491.831 204.165 506.404 208.02C520.978 211.753 534.166 213.62 545.97 213.62C553.076 213.62 558.857 212.777 563.313 211.091C567.89 209.405 571.263 207.116 573.431 204.226C575.599 201.215 576.683 197.782 576.683 193.928C576.683 189.351 575.057 185.497 571.805 182.365C568.673 179.113 563.615 175.741 556.629 172.248C549.643 168.755 540.429 164.419 528.987 159.24C519.231 154.663 510.379 149.966 502.43 145.148C494.601 140.331 487.856 134.851 482.195 128.708C476.655 122.445 472.379 115.158 469.368 106.848C466.357 98.5371 464.852 88.721 464.852 77.3994C464.852 60.417 469.007 46.2048 477.317 34.7627C485.748 23.2002 497.431 14.5283 512.366 8.74707C527.422 2.96582 544.765 0.0751953 564.397 0.0751953C581.621 0.0751953 597.098 2.00228 610.828 5.85645C624.679 9.71061 637.085 14.1068 648.045 19.0449L626.185 74.1475C614.863 68.9684 603.722 64.8734 592.762 61.8623C581.801 58.7308 571.624 57.165 562.229 57.165C556.087 57.165 551.028 57.9479 547.054 59.5137C543.2 60.959 540.309 62.9463 538.382 65.4756C536.575 68.0049 535.672 70.8955 535.672 74.1475C535.672 78.2425 537.238 81.916 540.369 85.168C543.621 88.4199 548.981 91.973 556.448 95.8271C564.036 99.5609 574.334 104.439 587.342 110.461C600.229 116.242 611.189 122.505 620.223 129.25C629.256 135.874 636.121 143.884 640.818 153.278C645.636 162.552 648.045 174.055 648.045 187.785ZM688.875 268V3.86914H760.599V268H688.875ZM923.919 113.352H1037.92V255.715C1024.31 260.412 1008.71 264.266 991.126 267.277C973.541 270.168 955.114 271.613 935.843 271.613C910.429 271.613 888.147 266.675 868.997 256.799C849.847 246.923 834.912 231.927 824.192 211.813C813.473 191.579 808.113 166.045 808.113 135.212C808.113 107.51 813.413 83.6022 824.012 63.4883C834.611 43.2539 850.208 27.6566 870.804 16.6963C891.52 5.61556 916.873 0.0751953 946.863 0.0751953C963.364 0.0751953 979.021 1.64095 993.836 4.77246C1008.65 7.90397 1021.54 11.8786 1032.5 16.6963L1009.92 72.7021C1000.4 68.0049 990.524 64.512 980.286 62.2236C970.049 59.8148 959.028 58.6104 947.225 58.6104C931.447 58.6104 918.74 62.1634 909.104 69.2695C899.59 76.3757 892.664 85.8906 888.328 97.8145C883.992 109.618 881.824 122.686 881.824 137.019C881.824 153.399 884.113 167.25 888.689 178.571C893.387 189.772 900.192 198.324 909.104 204.226C918.138 210.007 929.038 212.897 941.805 212.897C946.02 212.897 951.139 212.596 957.161 211.994C963.304 211.392 967.941 210.669 971.072 209.826V168.454H923.919V113.352ZM252.029 772H158.445L61.9707 585.916H60.3447C60.9469 591.577 61.4889 598.382 61.9707 606.331C62.4525 614.28 62.874 622.41 63.2354 630.721C63.5967 638.911 63.7773 646.318 63.7773 652.942V772H0.544922V507.869H93.7676L189.881 691.424H190.965C190.604 685.643 190.242 678.958 189.881 671.37C189.52 663.662 189.158 655.893 188.797 648.064C188.556 640.236 188.436 633.31 188.436 627.288V507.869H252.029V772ZM465.936 772H309.119V507.869H465.936V565.14H380.481V606.692H459.612V663.963H380.481V713.826H465.936V772ZM598.724 507.869C622.692 507.869 642.625 510.82 658.523 516.722C674.422 522.503 686.346 531.175 694.295 542.737C702.365 554.3 706.399 568.693 706.399 585.916C706.399 596.635 704.593 606.391 700.979 615.184C697.366 623.976 692.187 631.865 685.442 638.851C678.818 645.716 670.869 651.738 661.595 656.917L738.558 772H657.62L601.614 675.887H583.548V772H512.186V507.869H598.724ZM597.64 561.888H583.548V622.229H596.917C607.877 622.229 616.85 619.821 623.836 615.003C630.822 610.185 634.314 601.574 634.314 589.168C634.314 580.617 631.424 573.932 625.643 569.114C619.861 564.297 610.527 561.888 597.64 561.888Z" fill="#14FFEC" fill-opacity="0.05"/>
</svg>
