<svg width="238" height="75" viewBox="0 0 238 75" fill="none" xmlns="http://www.w3.org/2000/svg">
<g filter="url(#filter0_d_590_420)">
<rect x="2" width="230" height="67" rx="12" fill="white"/>
<path d="M42.02 25.648L36.632 43H33.716L29.924 31.144C29.82 30.856 29.724 30.504 29.636 30.088C29.588 30.288 29.54 30.476 29.492 30.652C29.444 30.828 29.392 30.992 29.336 31.144L25.508 43H22.58L17.204 25.648H19.904C20.184 25.648 20.416 25.716 20.6 25.852C20.792 25.98 20.92 26.156 20.984 26.38L23.936 36.76C24 37.016 24.06 37.296 24.116 37.6C24.18 37.896 24.244 38.208 24.308 38.536C24.372 38.2 24.44 37.884 24.512 37.588C24.592 37.292 24.676 37.016 24.764 36.76L28.172 26.38C28.236 26.196 28.36 26.028 28.544 25.876C28.736 25.724 28.968 25.648 29.24 25.648H30.188C30.468 25.648 30.696 25.716 30.872 25.852C31.048 25.988 31.18 26.164 31.268 26.38L34.664 36.76C34.832 37.256 34.984 37.828 35.12 38.476C35.224 37.844 35.34 37.272 35.468 36.76L38.42 26.38C38.468 26.18 38.588 26.008 38.78 25.864C38.98 25.72 39.216 25.648 39.488 25.648H42.02ZM50.1616 35.428C50.1616 35.044 50.1056 34.684 49.9936 34.348C49.8896 34.004 49.7296 33.704 49.5136 33.448C49.2976 33.192 49.0216 32.992 48.6856 32.848C48.3576 32.696 47.9736 32.62 47.5336 32.62C46.6776 32.62 46.0016 32.864 45.5056 33.352C45.0176 33.84 44.7056 34.532 44.5696 35.428H50.1616ZM44.5096 37.216C44.5576 37.848 44.6696 38.396 44.8456 38.86C45.0216 39.316 45.2536 39.696 45.5416 40C45.8296 40.296 46.1696 40.52 46.5616 40.672C46.9616 40.816 47.4016 40.888 47.8816 40.888C48.3616 40.888 48.7736 40.832 49.1176 40.72C49.4696 40.608 49.7736 40.484 50.0296 40.348C50.2936 40.212 50.5216 40.088 50.7136 39.976C50.9136 39.864 51.1056 39.808 51.2896 39.808C51.5376 39.808 51.7216 39.9 51.8416 40.084L52.6936 41.164C52.3656 41.548 51.9976 41.872 51.5896 42.136C51.1816 42.392 50.7536 42.6 50.3056 42.76C49.8656 42.912 49.4136 43.02 48.9496 43.084C48.4936 43.148 48.0496 43.18 47.6176 43.18C46.7616 43.18 45.9656 43.04 45.2296 42.76C44.4936 42.472 43.8536 42.052 43.3096 41.5C42.7656 40.94 42.3376 40.252 42.0256 39.436C41.7136 38.612 41.5576 37.66 41.5576 36.58C41.5576 35.74 41.6936 34.952 41.9656 34.216C42.2376 33.472 42.6256 32.828 43.1296 32.284C43.6416 31.732 44.2616 31.296 44.9896 30.976C45.7256 30.656 46.5536 30.496 47.4736 30.496C48.2496 30.496 48.9656 30.62 49.6216 30.868C50.2776 31.116 50.8416 31.48 51.3136 31.96C51.7856 32.432 52.1536 33.016 52.4176 33.712C52.6896 34.4 52.8256 35.188 52.8256 36.076C52.8256 36.524 52.7776 36.828 52.6816 36.988C52.5856 37.14 52.4016 37.216 52.1296 37.216H44.5096ZM58.0139 39.808C58.3499 40.216 58.7139 40.504 59.1059 40.672C59.5059 40.84 59.9259 40.924 60.3659 40.924C60.8219 40.924 61.2299 40.844 61.5899 40.684C61.9579 40.516 62.2699 40.26 62.5259 39.916C62.7819 39.564 62.9779 39.12 63.1139 38.584C63.2499 38.04 63.3179 37.392 63.3179 36.64C63.3179 35.288 63.0939 34.312 62.6459 33.712C62.1979 33.104 61.5539 32.8 60.7139 32.8C60.1459 32.8 59.6499 32.932 59.2259 33.196C58.8019 33.452 58.3979 33.816 58.0139 34.288V39.808ZM58.0139 32.2C58.5099 31.68 59.0579 31.268 59.6579 30.964C60.2659 30.652 60.9579 30.496 61.7339 30.496C62.4459 30.496 63.0859 30.636 63.6539 30.916C64.2299 31.196 64.7179 31.6 65.1179 32.128C65.5259 32.648 65.8379 33.28 66.0539 34.024C66.2699 34.768 66.3779 35.604 66.3779 36.532C66.3779 37.532 66.2539 38.44 66.0059 39.256C65.7579 40.072 65.4019 40.772 64.9379 41.356C64.4819 41.932 63.9299 42.38 63.2819 42.7C62.6339 43.02 61.9139 43.18 61.1219 43.18C60.7379 43.18 60.3899 43.14 60.0779 43.06C59.7659 42.988 59.4779 42.884 59.2139 42.748C58.9499 42.612 58.7059 42.448 58.4819 42.256C58.2659 42.056 58.0579 41.836 57.8579 41.596L57.7259 42.424C57.6779 42.632 57.5939 42.78 57.4739 42.868C57.3619 42.956 57.2059 43 57.0059 43H55.0499V25.168H58.0139V32.2ZM90.3791 34.324C90.3791 35.596 90.1671 36.764 89.7431 37.828C89.3191 38.892 88.7231 39.808 87.9551 40.576C87.1871 41.344 86.2631 41.94 85.1831 42.364C84.1031 42.788 82.9031 43 81.5831 43H74.9711V25.648H81.5831C82.9031 25.648 84.1031 25.864 85.1831 26.296C86.2631 26.72 87.1871 27.316 87.9551 28.084C88.7231 28.844 89.3191 29.756 89.7431 30.82C90.1671 31.884 90.3791 33.052 90.3791 34.324ZM87.0671 34.324C87.0671 33.372 86.9391 32.52 86.6831 31.768C86.4351 31.008 86.0711 30.368 85.5911 29.848C85.1191 29.32 84.5431 28.916 83.8631 28.636C83.1911 28.356 82.4311 28.216 81.5831 28.216H78.2111V40.432H81.5831C82.4311 40.432 83.1911 40.292 83.8631 40.012C84.5431 39.732 85.1191 39.332 85.5911 38.812C86.0711 38.284 86.4351 37.644 86.6831 36.892C86.9391 36.132 87.0671 35.276 87.0671 34.324ZM100.529 35.428C100.529 35.044 100.473 34.684 100.361 34.348C100.257 34.004 100.097 33.704 99.8808 33.448C99.6648 33.192 99.3888 32.992 99.0528 32.848C98.7248 32.696 98.3408 32.62 97.9008 32.62C97.0448 32.62 96.3688 32.864 95.8728 33.352C95.3848 33.84 95.0728 34.532 94.9368 35.428H100.529ZM94.8768 37.216C94.9248 37.848 95.0368 38.396 95.2128 38.86C95.3888 39.316 95.6208 39.696 95.9088 40C96.1968 40.296 96.5368 40.52 96.9288 40.672C97.3288 40.816 97.7688 40.888 98.2488 40.888C98.7288 40.888 99.1408 40.832 99.4848 40.72C99.8368 40.608 100.141 40.484 100.397 40.348C100.661 40.212 100.889 40.088 101.081 39.976C101.281 39.864 101.473 39.808 101.657 39.808C101.905 39.808 102.089 39.9 102.209 40.084L103.061 41.164C102.733 41.548 102.365 41.872 101.957 42.136C101.549 42.392 101.121 42.6 100.673 42.76C100.233 42.912 99.7808 43.02 99.3168 43.084C98.8608 43.148 98.4168 43.18 97.9848 43.18C97.1288 43.18 96.3328 43.04 95.5968 42.76C94.8608 42.472 94.2208 42.052 93.6768 41.5C93.1328 40.94 92.7048 40.252 92.3928 39.436C92.0808 38.612 91.9248 37.66 91.9248 36.58C91.9248 35.74 92.0608 34.952 92.3328 34.216C92.6048 33.472 92.9928 32.828 93.4968 32.284C94.0088 31.732 94.6288 31.296 95.3568 30.976C96.0928 30.656 96.9208 30.496 97.8408 30.496C98.6168 30.496 99.3328 30.62 99.9888 30.868C100.645 31.116 101.209 31.48 101.681 31.96C102.153 32.432 102.521 33.016 102.785 33.712C103.057 34.4 103.193 35.188 103.193 36.076C103.193 36.524 103.145 36.828 103.049 36.988C102.953 37.14 102.769 37.216 102.497 37.216H94.8768ZM116.212 30.688L111.328 43H108.64L103.756 30.688H106.204C106.428 30.688 106.612 30.74 106.756 30.844C106.908 30.948 107.008 31.08 107.056 31.24L109.432 37.816C109.56 38.2 109.672 38.576 109.768 38.944C109.864 39.312 109.948 39.68 110.02 40.048C110.1 39.68 110.188 39.312 110.284 38.944C110.38 38.576 110.496 38.2 110.632 37.816L113.056 31.24C113.112 31.08 113.212 30.948 113.356 30.844C113.5 30.74 113.672 30.688 113.872 30.688H116.212ZM125.349 35.428C125.349 35.044 125.293 34.684 125.181 34.348C125.077 34.004 124.917 33.704 124.701 33.448C124.485 33.192 124.209 32.992 123.873 32.848C123.545 32.696 123.161 32.62 122.721 32.62C121.865 32.62 121.189 32.864 120.693 33.352C120.205 33.84 119.893 34.532 119.757 35.428H125.349ZM119.697 37.216C119.745 37.848 119.857 38.396 120.033 38.86C120.209 39.316 120.441 39.696 120.729 40C121.017 40.296 121.357 40.52 121.749 40.672C122.149 40.816 122.589 40.888 123.069 40.888C123.549 40.888 123.961 40.832 124.305 40.72C124.657 40.608 124.961 40.484 125.217 40.348C125.481 40.212 125.709 40.088 125.901 39.976C126.101 39.864 126.293 39.808 126.477 39.808C126.725 39.808 126.909 39.9 127.029 40.084L127.881 41.164C127.553 41.548 127.185 41.872 126.777 42.136C126.369 42.392 125.941 42.6 125.493 42.76C125.053 42.912 124.601 43.02 124.137 43.084C123.681 43.148 123.237 43.18 122.805 43.18C121.949 43.18 121.153 43.04 120.417 42.76C119.681 42.472 119.041 42.052 118.497 41.5C117.953 40.94 117.525 40.252 117.213 39.436C116.901 38.612 116.745 37.66 116.745 36.58C116.745 35.74 116.881 34.952 117.153 34.216C117.425 33.472 117.813 32.828 118.317 32.284C118.829 31.732 119.449 31.296 120.177 30.976C120.913 30.656 121.741 30.496 122.661 30.496C123.437 30.496 124.153 30.62 124.809 30.868C125.465 31.116 126.029 31.48 126.501 31.96C126.973 32.432 127.341 33.016 127.605 33.712C127.877 34.4 128.013 35.188 128.013 36.076C128.013 36.524 127.965 36.828 127.869 36.988C127.773 37.14 127.589 37.216 127.317 37.216H119.697ZM133.237 25.168V43H130.273V25.168H133.237ZM141.639 30.496C142.551 30.496 143.379 30.644 144.123 30.94C144.875 31.236 145.515 31.656 146.043 32.2C146.579 32.744 146.991 33.408 147.279 34.192C147.567 34.976 147.711 35.852 147.711 36.82C147.711 37.796 147.567 38.676 147.279 39.46C146.991 40.244 146.579 40.912 146.043 41.464C145.515 42.016 144.875 42.44 144.123 42.736C143.379 43.032 142.551 43.18 141.639 43.18C140.719 43.18 139.883 43.032 139.131 42.736C138.379 42.44 137.735 42.016 137.199 41.464C136.671 40.912 136.259 40.244 135.963 39.46C135.675 38.676 135.531 37.796 135.531 36.82C135.531 35.852 135.675 34.976 135.963 34.192C136.259 33.408 136.671 32.744 137.199 32.2C137.735 31.656 138.379 31.236 139.131 30.94C139.883 30.644 140.719 30.496 141.639 30.496ZM141.639 40.9C142.663 40.9 143.419 40.556 143.907 39.868C144.403 39.18 144.651 38.172 144.651 36.844C144.651 35.516 144.403 34.504 143.907 33.808C143.419 33.112 142.663 32.764 141.639 32.764C140.599 32.764 139.827 33.116 139.323 33.82C138.827 34.516 138.579 35.524 138.579 36.844C138.579 38.164 138.827 39.172 139.323 39.868C139.827 40.556 140.599 40.9 141.639 40.9ZM152.936 39.808C153.272 40.216 153.636 40.504 154.028 40.672C154.428 40.84 154.86 40.924 155.324 40.924C155.772 40.924 156.176 40.84 156.536 40.672C156.896 40.504 157.2 40.248 157.448 39.904C157.704 39.56 157.9 39.128 158.036 38.608C158.172 38.08 158.24 37.46 158.24 36.748C158.24 36.028 158.18 35.42 158.06 34.924C157.948 34.42 157.784 34.012 157.568 33.7C157.352 33.388 157.088 33.16 156.776 33.016C156.472 32.872 156.124 32.8 155.732 32.8C155.116 32.8 154.592 32.932 154.16 33.196C153.728 33.452 153.32 33.816 152.936 34.288V39.808ZM152.78 32.368C153.284 31.8 153.856 31.34 154.496 30.988C155.136 30.636 155.888 30.46 156.752 30.46C157.424 30.46 158.036 30.6 158.588 30.88C159.148 31.16 159.628 31.568 160.028 32.104C160.436 32.632 160.748 33.288 160.964 34.072C161.188 34.848 161.3 35.74 161.3 36.748C161.3 37.668 161.176 38.52 160.928 39.304C160.68 40.088 160.324 40.768 159.86 41.344C159.404 41.92 158.848 42.372 158.192 42.7C157.544 43.02 156.816 43.18 156.008 43.18C155.32 43.18 154.732 43.076 154.244 42.868C153.756 42.652 153.32 42.356 152.936 41.98V47.02H149.972V30.688H151.784C152.168 30.688 152.42 30.868 152.54 31.228L152.78 32.368ZM163.612 43V30.688H165.424C165.808 30.688 166.06 30.868 166.18 31.228L166.372 32.14C166.588 31.9 166.812 31.68 167.044 31.48C167.284 31.28 167.536 31.108 167.8 30.964C168.072 30.82 168.36 30.708 168.664 30.628C168.976 30.54 169.316 30.496 169.684 30.496C170.46 30.496 171.096 30.708 171.592 31.132C172.096 31.548 172.472 32.104 172.72 32.8C172.912 32.392 173.152 32.044 173.44 31.756C173.728 31.46 174.044 31.22 174.388 31.036C174.732 30.852 175.096 30.716 175.48 30.628C175.872 30.54 176.264 30.496 176.656 30.496C177.336 30.496 177.94 30.6 178.468 30.808C178.996 31.016 179.44 31.32 179.8 31.72C180.16 32.12 180.432 32.608 180.616 33.184C180.808 33.76 180.904 34.42 180.904 35.164V43H177.94V35.164C177.94 34.38 177.768 33.792 177.424 33.4C177.08 33 176.576 32.8 175.912 32.8C175.608 32.8 175.324 32.852 175.06 32.956C174.804 33.06 174.576 33.212 174.376 33.412C174.184 33.604 174.032 33.848 173.92 34.144C173.808 34.44 173.752 34.78 173.752 35.164V43H170.776V35.164C170.776 34.34 170.608 33.74 170.272 33.364C169.944 32.988 169.46 32.8 168.82 32.8C168.388 32.8 167.984 32.908 167.608 33.124C167.24 33.332 166.896 33.62 166.576 33.988V43H163.612ZM191.654 35.428C191.654 35.044 191.598 34.684 191.486 34.348C191.382 34.004 191.222 33.704 191.006 33.448C190.79 33.192 190.514 32.992 190.178 32.848C189.85 32.696 189.466 32.62 189.026 32.62C188.17 32.62 187.494 32.864 186.998 33.352C186.51 33.84 186.198 34.532 186.062 35.428H191.654ZM186.002 37.216C186.05 37.848 186.162 38.396 186.338 38.86C186.514 39.316 186.746 39.696 187.034 40C187.322 40.296 187.662 40.52 188.054 40.672C188.454 40.816 188.894 40.888 189.374 40.888C189.854 40.888 190.266 40.832 190.61 40.72C190.962 40.608 191.266 40.484 191.522 40.348C191.786 40.212 192.014 40.088 192.206 39.976C192.406 39.864 192.598 39.808 192.782 39.808C193.03 39.808 193.214 39.9 193.334 40.084L194.186 41.164C193.858 41.548 193.49 41.872 193.082 42.136C192.674 42.392 192.246 42.6 191.798 42.76C191.358 42.912 190.906 43.02 190.442 43.084C189.986 43.148 189.542 43.18 189.11 43.18C188.254 43.18 187.458 43.04 186.722 42.76C185.986 42.472 185.346 42.052 184.802 41.5C184.258 40.94 183.83 40.252 183.518 39.436C183.206 38.612 183.05 37.66 183.05 36.58C183.05 35.74 183.186 34.952 183.458 34.216C183.73 33.472 184.118 32.828 184.622 32.284C185.134 31.732 185.754 31.296 186.482 30.976C187.218 30.656 188.046 30.496 188.966 30.496C189.742 30.496 190.458 30.62 191.114 30.868C191.77 31.116 192.334 31.48 192.806 31.96C193.278 32.432 193.646 33.016 193.91 33.712C194.182 34.4 194.318 35.188 194.318 36.076C194.318 36.524 194.27 36.828 194.174 36.988C194.078 37.14 193.894 37.216 193.622 37.216H186.002ZM199.314 32.2C199.562 31.952 199.822 31.724 200.094 31.516C200.374 31.3 200.666 31.12 200.97 30.976C201.282 30.824 201.614 30.708 201.966 30.628C202.318 30.54 202.702 30.496 203.118 30.496C203.79 30.496 204.386 30.612 204.906 30.844C205.426 31.068 205.858 31.388 206.202 31.804C206.554 32.212 206.818 32.704 206.994 33.28C207.178 33.848 207.27 34.476 207.27 35.164V43H204.306V35.164C204.306 34.412 204.134 33.832 203.79 33.424C203.446 33.008 202.922 32.8 202.218 32.8C201.706 32.8 201.226 32.916 200.778 33.148C200.33 33.38 199.906 33.696 199.506 34.096V43H196.542V30.688H198.354C198.738 30.688 198.99 30.868 199.11 31.228L199.314 32.2ZM214.029 43.192C212.957 43.192 212.133 42.892 211.557 42.292C210.989 41.684 210.705 40.848 210.705 39.784V32.908H209.445C209.285 32.908 209.149 32.856 209.037 32.752C208.925 32.648 208.869 32.492 208.869 32.284V31.108L210.849 30.784L211.473 27.424C211.513 27.264 211.589 27.14 211.701 27.052C211.813 26.964 211.957 26.92 212.133 26.92H213.669V30.796H216.957V32.908H213.669V39.58C213.669 39.964 213.761 40.264 213.945 40.48C214.137 40.696 214.397 40.804 214.725 40.804C214.909 40.804 215.061 40.784 215.181 40.744C215.309 40.696 215.417 40.648 215.505 40.6C215.601 40.552 215.685 40.508 215.757 40.468C215.829 40.42 215.901 40.396 215.973 40.396C216.061 40.396 216.133 40.42 216.189 40.468C216.245 40.508 216.305 40.572 216.369 40.66L217.257 42.1C216.825 42.46 216.329 42.732 215.769 42.916C215.209 43.1 214.629 43.192 214.029 43.192Z" fill="black"/>
</g>
<defs>
<filter id="filter0_d_590_420" x="0" y="0" width="238" height="75" filterUnits="userSpaceOnUse" color-interpolation-filters="sRGB">
<feFlood flood-opacity="0" result="BackgroundImageFix"/>
<feColorMatrix in="SourceAlpha" type="matrix" values="0 0 0 0 0 0 0 0 0 0 0 0 0 0 0 0 0 0 127 0" result="hardAlpha"/>
<feOffset dx="2" dy="4"/>
<feGaussianBlur stdDeviation="2"/>
<feComposite in2="hardAlpha" operator="out"/>
<feColorMatrix type="matrix" values="0 0 0 0 0 0 0 0 0 0 0 0 0 0 0 0 0 0 0.25 0"/>
<feBlend mode="normal" in2="BackgroundImageFix" result="effect1_dropShadow_590_420"/>
<feBlend mode="normal" in="SourceGraphic" in2="effect1_dropShadow_590_420" result="shape"/>
</filter>
</defs>
</svg>
