<svg width="238" height="75" viewBox="0 0 238 75" fill="none" xmlns="http://www.w3.org/2000/svg">
<g filter="url(#filter0_d_13_10)">
<rect x="2" width="230" height="67" rx="12" fill="white"/>
<path d="M70.572 34.372C71.164 34.372 71.68 34.3 72.12 34.156C72.56 34.004 72.924 33.792 73.212 33.52C73.508 33.24 73.728 32.904 73.872 32.512C74.016 32.112 74.088 31.668 74.088 31.18C74.088 30.716 74.016 30.296 73.872 29.92C73.728 29.544 73.512 29.224 73.224 28.96C72.936 28.696 72.572 28.496 72.132 28.36C71.692 28.216 71.172 28.144 70.572 28.144H68.16V34.372H70.572ZM70.572 25.648C71.732 25.648 72.736 25.784 73.584 26.056C74.432 26.328 75.132 26.708 75.684 27.196C76.236 27.684 76.644 28.268 76.908 28.948C77.18 29.628 77.316 30.372 77.316 31.18C77.316 32.02 77.176 32.792 76.896 33.496C76.616 34.192 76.196 34.792 75.636 35.296C75.076 35.8 74.372 36.192 73.524 36.472C72.684 36.752 71.7 36.892 70.572 36.892H68.16V43H64.932V25.648H70.572ZM81.9319 32.824C82.3159 32.088 82.7719 31.512 83.2999 31.096C83.8279 30.672 84.4519 30.46 85.1719 30.46C85.7399 30.46 86.1959 30.584 86.5399 30.832L86.3479 33.052C86.3079 33.196 86.2479 33.3 86.1679 33.364C86.0959 33.42 85.9959 33.448 85.8679 33.448C85.7479 33.448 85.5679 33.428 85.3279 33.388C85.0959 33.348 84.8679 33.328 84.6439 33.328C84.3159 33.328 84.0239 33.376 83.7679 33.472C83.5119 33.568 83.2799 33.708 83.0719 33.892C82.8719 34.068 82.6919 34.284 82.5319 34.54C82.3799 34.796 82.2359 35.088 82.0999 35.416V43H79.1359V30.688H80.8759C81.1799 30.688 81.3919 30.744 81.5119 30.856C81.6319 30.96 81.7119 31.152 81.7519 31.432L81.9319 32.824ZM93.1854 30.496C94.0974 30.496 94.9254 30.644 95.6694 30.94C96.4214 31.236 97.0614 31.656 97.5894 32.2C98.1254 32.744 98.5374 33.408 98.8254 34.192C99.1134 34.976 99.2574 35.852 99.2574 36.82C99.2574 37.796 99.1134 38.676 98.8254 39.46C98.5374 40.244 98.1254 40.912 97.5894 41.464C97.0614 42.016 96.4214 42.44 95.6694 42.736C94.9254 43.032 94.0974 43.18 93.1854 43.18C92.2654 43.18 91.4294 43.032 90.6774 42.736C89.9254 42.44 89.2814 42.016 88.7454 41.464C88.2174 40.912 87.8054 40.244 87.5094 39.46C87.2214 38.676 87.0774 37.796 87.0774 36.82C87.0774 35.852 87.2214 34.976 87.5094 34.192C87.8054 33.408 88.2174 32.744 88.7454 32.2C89.2814 31.656 89.9254 31.236 90.6774 30.94C91.4294 30.644 92.2654 30.496 93.1854 30.496ZM93.1854 40.9C94.2094 40.9 94.9654 40.556 95.4534 39.868C95.9494 39.18 96.1974 38.172 96.1974 36.844C96.1974 35.516 95.9494 34.504 95.4534 33.808C94.9654 33.112 94.2094 32.764 93.1854 32.764C92.1454 32.764 91.3734 33.116 90.8694 33.82C90.3734 34.516 90.1254 35.524 90.1254 36.844C90.1254 38.164 90.3734 39.172 90.8694 39.868C91.3734 40.556 92.1454 40.9 93.1854 40.9ZM105.388 43.192C104.316 43.192 103.492 42.892 102.916 42.292C102.348 41.684 102.064 40.848 102.064 39.784V32.908H100.804C100.644 32.908 100.508 32.856 100.396 32.752C100.284 32.648 100.228 32.492 100.228 32.284V31.108L102.208 30.784L102.832 27.424C102.872 27.264 102.948 27.14 103.06 27.052C103.172 26.964 103.316 26.92 103.492 26.92H105.028V30.796H108.316V32.908H105.028V39.58C105.028 39.964 105.12 40.264 105.304 40.48C105.496 40.696 105.756 40.804 106.084 40.804C106.268 40.804 106.42 40.784 106.54 40.744C106.668 40.696 106.776 40.648 106.864 40.6C106.96 40.552 107.044 40.508 107.116 40.468C107.188 40.42 107.26 40.396 107.332 40.396C107.42 40.396 107.492 40.42 107.548 40.468C107.604 40.508 107.664 40.572 107.728 40.66L108.616 42.1C108.184 42.46 107.688 42.732 107.128 42.916C106.568 43.1 105.988 43.192 105.388 43.192ZM115.568 30.496C116.48 30.496 117.308 30.644 118.052 30.94C118.804 31.236 119.444 31.656 119.972 32.2C120.508 32.744 120.92 33.408 121.208 34.192C121.496 34.976 121.64 35.852 121.64 36.82C121.64 37.796 121.496 38.676 121.208 39.46C120.92 40.244 120.508 40.912 119.972 41.464C119.444 42.016 118.804 42.44 118.052 42.736C117.308 43.032 116.48 43.18 115.568 43.18C114.648 43.18 113.812 43.032 113.06 42.736C112.308 42.44 111.664 42.016 111.128 41.464C110.6 40.912 110.188 40.244 109.892 39.46C109.604 38.676 109.46 37.796 109.46 36.82C109.46 35.852 109.604 34.976 109.892 34.192C110.188 33.408 110.6 32.744 111.128 32.2C111.664 31.656 112.308 31.236 113.06 30.94C113.812 30.644 114.648 30.496 115.568 30.496ZM115.568 40.9C116.592 40.9 117.348 40.556 117.836 39.868C118.332 39.18 118.58 38.172 118.58 36.844C118.58 35.516 118.332 34.504 117.836 33.808C117.348 33.112 116.592 32.764 115.568 32.764C114.528 32.764 113.756 33.116 113.252 33.82C112.756 34.516 112.508 35.524 112.508 36.844C112.508 38.164 112.756 39.172 113.252 39.868C113.756 40.556 114.528 40.9 115.568 40.9ZM127.771 43.192C126.699 43.192 125.875 42.892 125.299 42.292C124.731 41.684 124.447 40.848 124.447 39.784V32.908H123.187C123.027 32.908 122.891 32.856 122.779 32.752C122.667 32.648 122.611 32.492 122.611 32.284V31.108L124.591 30.784L125.215 27.424C125.255 27.264 125.331 27.14 125.443 27.052C125.555 26.964 125.699 26.92 125.875 26.92H127.411V30.796H130.699V32.908H127.411V39.58C127.411 39.964 127.503 40.264 127.687 40.48C127.879 40.696 128.139 40.804 128.467 40.804C128.651 40.804 128.803 40.784 128.923 40.744C129.051 40.696 129.159 40.648 129.247 40.6C129.343 40.552 129.427 40.508 129.499 40.468C129.571 40.42 129.643 40.396 129.715 40.396C129.803 40.396 129.875 40.42 129.931 40.468C129.987 40.508 130.047 40.572 130.111 40.66L130.999 42.1C130.567 42.46 130.071 42.732 129.511 42.916C128.951 43.1 128.371 43.192 127.771 43.192ZM143.781 30.688L137.073 46.384C136.985 46.592 136.869 46.748 136.725 46.852C136.589 46.964 136.377 47.02 136.089 47.02H133.881L136.185 42.076L131.205 30.688H133.809C134.041 30.688 134.221 30.744 134.349 30.856C134.485 30.968 134.585 31.096 134.649 31.24L137.265 37.624C137.353 37.84 137.425 38.056 137.481 38.272C137.545 38.488 137.605 38.708 137.661 38.932C137.733 38.708 137.805 38.488 137.877 38.272C137.949 38.048 138.029 37.828 138.117 37.612L140.589 31.24C140.653 31.08 140.757 30.948 140.901 30.844C141.053 30.74 141.221 30.688 141.405 30.688H143.781ZM148.217 39.808C148.553 40.216 148.917 40.504 149.309 40.672C149.709 40.84 150.141 40.924 150.605 40.924C151.053 40.924 151.457 40.84 151.817 40.672C152.177 40.504 152.481 40.248 152.729 39.904C152.985 39.56 153.181 39.128 153.317 38.608C153.453 38.08 153.521 37.46 153.521 36.748C153.521 36.028 153.461 35.42 153.341 34.924C153.229 34.42 153.065 34.012 152.849 33.7C152.633 33.388 152.369 33.16 152.057 33.016C151.753 32.872 151.405 32.8 151.013 32.8C150.397 32.8 149.873 32.932 149.441 33.196C149.009 33.452 148.601 33.816 148.217 34.288V39.808ZM148.061 32.368C148.565 31.8 149.137 31.34 149.777 30.988C150.417 30.636 151.169 30.46 152.033 30.46C152.705 30.46 153.317 30.6 153.869 30.88C154.429 31.16 154.909 31.568 155.309 32.104C155.717 32.632 156.029 33.288 156.245 34.072C156.469 34.848 156.581 35.74 156.581 36.748C156.581 37.668 156.457 38.52 156.209 39.304C155.961 40.088 155.605 40.768 155.141 41.344C154.685 41.92 154.129 42.372 153.473 42.7C152.825 43.02 152.097 43.18 151.289 43.18C150.601 43.18 150.013 43.076 149.525 42.868C149.037 42.652 148.601 42.356 148.217 41.98V47.02H145.253V30.688H147.065C147.449 30.688 147.701 30.868 147.821 31.228L148.061 32.368ZM166.826 35.428C166.826 35.044 166.77 34.684 166.658 34.348C166.554 34.004 166.394 33.704 166.178 33.448C165.962 33.192 165.686 32.992 165.35 32.848C165.022 32.696 164.638 32.62 164.198 32.62C163.342 32.62 162.666 32.864 162.17 33.352C161.682 33.84 161.37 34.532 161.234 35.428H166.826ZM161.174 37.216C161.222 37.848 161.334 38.396 161.51 38.86C161.686 39.316 161.918 39.696 162.206 40C162.494 40.296 162.834 40.52 163.226 40.672C163.626 40.816 164.066 40.888 164.546 40.888C165.026 40.888 165.438 40.832 165.782 40.72C166.134 40.608 166.438 40.484 166.694 40.348C166.958 40.212 167.186 40.088 167.378 39.976C167.578 39.864 167.77 39.808 167.954 39.808C168.202 39.808 168.386 39.9 168.506 40.084L169.358 41.164C169.03 41.548 168.662 41.872 168.254 42.136C167.846 42.392 167.418 42.6 166.97 42.76C166.53 42.912 166.078 43.02 165.614 43.084C165.158 43.148 164.714 43.18 164.282 43.18C163.426 43.18 162.63 43.04 161.894 42.76C161.158 42.472 160.518 42.052 159.974 41.5C159.43 40.94 159.002 40.252 158.69 39.436C158.378 38.612 158.222 37.66 158.222 36.58C158.222 35.74 158.358 34.952 158.63 34.216C158.902 33.472 159.29 32.828 159.794 32.284C160.306 31.732 160.926 31.296 161.654 30.976C162.39 30.656 163.218 30.496 164.138 30.496C164.914 30.496 165.63 30.62 166.286 30.868C166.942 31.116 167.506 31.48 167.978 31.96C168.45 32.432 168.818 33.016 169.082 33.712C169.354 34.4 169.49 35.188 169.49 36.076C169.49 36.524 169.442 36.828 169.346 36.988C169.25 37.14 169.066 37.216 168.794 37.216H161.174Z" fill="black"/>
</g>
<defs>
<filter id="filter0_d_13_10" x="0" y="0" width="238" height="75" filterUnits="userSpaceOnUse" color-interpolation-filters="sRGB">
<feFlood flood-opacity="0" result="BackgroundImageFix"/>
<feColorMatrix in="SourceAlpha" type="matrix" values="0 0 0 0 0 0 0 0 0 0 0 0 0 0 0 0 0 0 127 0" result="hardAlpha"/>
<feOffset dx="2" dy="4"/>
<feGaussianBlur stdDeviation="2"/>
<feComposite in2="hardAlpha" operator="out"/>
<feColorMatrix type="matrix" values="0 0 0 0 0 0 0 0 0 0 0 0 0 0 0 0 0 0 0.25 0"/>
<feBlend mode="normal" in2="BackgroundImageFix" result="effect1_dropShadow_13_10"/>
<feBlend mode="normal" in="SourceGraphic" in2="effect1_dropShadow_13_10" result="shape"/>
</filter>
</defs>
</svg>
