<svg width="242" height="75" viewBox="0 0 242 75" fill="none" xmlns="http://www.w3.org/2000/svg">
<g filter="url(#filter0_d_590_423)">
<rect x="2" width="234" height="67" rx="12" fill="white"/>
<path d="M53.8962 34.3V41.32C53.0162 41.968 52.0762 42.444 51.0762 42.748C50.0842 43.044 49.0202 43.192 47.8842 43.192C46.4682 43.192 45.1842 42.972 44.0322 42.532C42.8882 42.092 41.9082 41.48 41.0922 40.696C40.2842 39.912 39.6602 38.976 39.2202 37.888C38.7802 36.8 38.5602 35.612 38.5602 34.324C38.5602 33.02 38.7722 31.824 39.1962 30.736C39.6202 29.648 40.2202 28.712 40.9962 27.928C41.7802 27.144 42.7282 26.536 43.8402 26.104C44.9522 25.672 46.2002 25.456 47.5842 25.456C48.2882 25.456 48.9442 25.512 49.5522 25.624C50.1682 25.736 50.7362 25.892 51.2562 26.092C51.7842 26.284 52.2642 26.52 52.6962 26.8C53.1282 27.08 53.5242 27.388 53.8842 27.724L52.9602 29.188C52.8162 29.42 52.6282 29.564 52.3962 29.62C52.1642 29.668 51.9122 29.608 51.6402 29.44C51.3762 29.288 51.1122 29.136 50.8482 28.984C50.5842 28.832 50.2882 28.7 49.9602 28.588C49.6402 28.476 49.2762 28.384 48.8682 28.312C48.4682 28.24 48.0042 28.204 47.4762 28.204C46.6202 28.204 45.8442 28.348 45.1482 28.636C44.4602 28.924 43.8722 29.336 43.3842 29.872C42.8962 30.408 42.5202 31.052 42.2562 31.804C41.9922 32.556 41.8602 33.396 41.8602 34.324C41.8602 35.316 42.0002 36.204 42.2802 36.988C42.5682 37.764 42.9682 38.424 43.4802 38.968C44.0002 39.504 44.6242 39.916 45.3522 40.204C46.0802 40.484 46.8922 40.624 47.7882 40.624C48.4282 40.624 49.0002 40.556 49.5042 40.42C50.0082 40.284 50.5002 40.1 50.9802 39.868V36.724H48.7962C48.5882 36.724 48.4242 36.668 48.3042 36.556C48.1922 36.436 48.1362 36.292 48.1362 36.124V34.3H53.8962ZM59.1467 32.824C59.5307 32.088 59.9867 31.512 60.5147 31.096C61.0427 30.672 61.6667 30.46 62.3867 30.46C62.9547 30.46 63.4107 30.584 63.7547 30.832L63.5627 33.052C63.5227 33.196 63.4627 33.3 63.3827 33.364C63.3107 33.42 63.2107 33.448 63.0827 33.448C62.9627 33.448 62.7827 33.428 62.5427 33.388C62.3107 33.348 62.0827 33.328 61.8587 33.328C61.5307 33.328 61.2387 33.376 60.9827 33.472C60.7267 33.568 60.4947 33.708 60.2867 33.892C60.0867 34.068 59.9067 34.284 59.7467 34.54C59.5947 34.796 59.4507 35.088 59.3147 35.416V43H56.3507V30.688H58.0907C58.3947 30.688 58.6067 30.744 58.7267 30.856C58.8467 30.96 58.9267 31.152 58.9667 31.432L59.1467 32.824ZM71.6438 37.744C70.7878 37.784 70.0678 37.86 69.4838 37.972C68.8998 38.076 68.4318 38.212 68.0798 38.38C67.7278 38.548 67.4758 38.744 67.3238 38.968C67.1718 39.192 67.0958 39.436 67.0958 39.7C67.0958 40.22 67.2478 40.592 67.5518 40.816C67.8638 41.04 68.2678 41.152 68.7638 41.152C69.3718 41.152 69.8958 41.044 70.3358 40.828C70.7838 40.604 71.2198 40.268 71.6438 39.82V37.744ZM64.8518 32.404C66.2678 31.108 67.9718 30.46 69.9638 30.46C70.6838 30.46 71.3278 30.58 71.8958 30.82C72.4638 31.052 72.9438 31.38 73.3358 31.804C73.7278 32.22 74.0238 32.72 74.2238 33.304C74.4318 33.888 74.5358 34.528 74.5358 35.224V43H73.1918C72.9118 43 72.6958 42.96 72.5438 42.88C72.3918 42.792 72.2718 42.62 72.1838 42.364L71.9198 41.476C71.6078 41.756 71.3038 42.004 71.0078 42.22C70.7118 42.428 70.4038 42.604 70.0838 42.748C69.7638 42.892 69.4198 43 69.0518 43.072C68.6918 43.152 68.2918 43.192 67.8518 43.192C67.3318 43.192 66.8518 43.124 66.4118 42.988C65.9718 42.844 65.5918 42.632 65.2718 42.352C64.9518 42.072 64.7038 41.724 64.5278 41.308C64.3518 40.892 64.2638 40.408 64.2638 39.856C64.2638 39.544 64.3158 39.236 64.4198 38.932C64.5238 38.62 64.6918 38.324 64.9238 38.044C65.1638 37.764 65.4718 37.5 65.8478 37.252C66.2238 37.004 66.6838 36.788 67.2278 36.604C67.7798 36.42 68.4198 36.272 69.1478 36.16C69.8758 36.04 70.7078 35.968 71.6438 35.944V35.224C71.6438 34.4 71.4678 33.792 71.1158 33.4C70.7638 33 70.2558 32.8 69.5918 32.8C69.1118 32.8 68.7118 32.856 68.3918 32.968C68.0798 33.08 67.8038 33.208 67.5638 33.352C67.3238 33.488 67.1038 33.612 66.9038 33.724C66.7118 33.836 66.4958 33.892 66.2558 33.892C66.0478 33.892 65.8718 33.84 65.7278 33.736C65.5838 33.624 65.4678 33.496 65.3798 33.352L64.8518 32.404ZM80.2913 39.808C80.6273 40.216 80.9913 40.504 81.3833 40.672C81.7833 40.84 82.2153 40.924 82.6793 40.924C83.1273 40.924 83.5313 40.84 83.8913 40.672C84.2513 40.504 84.5553 40.248 84.8033 39.904C85.0593 39.56 85.2553 39.128 85.3913 38.608C85.5273 38.08 85.5953 37.46 85.5953 36.748C85.5953 36.028 85.5353 35.42 85.4153 34.924C85.3033 34.42 85.1393 34.012 84.9233 33.7C84.7073 33.388 84.4433 33.16 84.1313 33.016C83.8273 32.872 83.4793 32.8 83.0873 32.8C82.4713 32.8 81.9473 32.932 81.5153 33.196C81.0833 33.452 80.6753 33.816 80.2913 34.288V39.808ZM80.1353 32.368C80.6393 31.8 81.2113 31.34 81.8513 30.988C82.4913 30.636 83.2433 30.46 84.1073 30.46C84.7793 30.46 85.3913 30.6 85.9433 30.88C86.5033 31.16 86.9833 31.568 87.3833 32.104C87.7913 32.632 88.1033 33.288 88.3193 34.072C88.5433 34.848 88.6553 35.74 88.6553 36.748C88.6553 37.668 88.5313 38.52 88.2833 39.304C88.0353 40.088 87.6793 40.768 87.2153 41.344C86.7593 41.92 86.2033 42.372 85.5473 42.7C84.8993 43.02 84.1713 43.18 83.3633 43.18C82.6753 43.18 82.0873 43.076 81.5993 42.868C81.1113 42.652 80.6753 42.356 80.2913 41.98V47.02H77.3273V30.688H79.1393C79.5233 30.688 79.7753 30.868 79.8953 31.228L80.1353 32.368ZM93.9319 32.008C94.4119 31.56 94.9399 31.196 95.5159 30.916C96.0919 30.636 96.7679 30.496 97.5439 30.496C98.2159 30.496 98.8119 30.612 99.3319 30.844C99.8519 31.068 100.284 31.388 100.628 31.804C100.98 32.212 101.244 32.704 101.42 33.28C101.604 33.848 101.696 34.476 101.696 35.164V43H98.7319V35.164C98.7319 34.412 98.5599 33.832 98.2159 33.424C97.8719 33.008 97.3479 32.8 96.6439 32.8C96.1319 32.8 95.6519 32.916 95.2039 33.148C94.7559 33.38 94.3319 33.696 93.9319 34.096V43H90.9679V25.168H93.9319V32.008ZM107.587 30.688V43H104.611V30.688H107.587ZM107.995 27.1C107.995 27.356 107.943 27.596 107.839 27.82C107.735 28.044 107.595 28.24 107.419 28.408C107.251 28.576 107.051 28.712 106.819 28.816C106.587 28.912 106.339 28.96 106.075 28.96C105.819 28.96 105.575 28.912 105.343 28.816C105.119 28.712 104.923 28.576 104.755 28.408C104.587 28.24 104.451 28.044 104.347 27.82C104.251 27.596 104.203 27.356 104.203 27.1C104.203 26.836 104.251 26.588 104.347 26.356C104.451 26.124 104.587 25.924 104.755 25.756C104.923 25.588 105.119 25.456 105.343 25.36C105.575 25.256 105.819 25.204 106.075 25.204C106.339 25.204 106.587 25.256 106.819 25.36C107.051 25.456 107.251 25.588 107.419 25.756C107.595 25.924 107.735 26.124 107.839 26.356C107.943 26.588 107.995 26.836 107.995 27.1ZM119.429 33.292C119.341 33.404 119.253 33.492 119.165 33.556C119.085 33.62 118.965 33.652 118.805 33.652C118.653 33.652 118.505 33.608 118.361 33.52C118.217 33.424 118.045 33.32 117.845 33.208C117.645 33.088 117.405 32.984 117.125 32.896C116.853 32.8 116.513 32.752 116.105 32.752C115.585 32.752 115.129 32.848 114.737 33.04C114.345 33.224 114.017 33.492 113.753 33.844C113.497 34.196 113.305 34.624 113.177 35.128C113.049 35.624 112.985 36.188 112.985 36.82C112.985 37.476 113.053 38.06 113.189 38.572C113.333 39.084 113.537 39.516 113.801 39.868C114.065 40.212 114.385 40.476 114.761 40.66C115.137 40.836 115.561 40.924 116.033 40.924C116.505 40.924 116.885 40.868 117.173 40.756C117.469 40.636 117.717 40.508 117.917 40.372C118.117 40.228 118.289 40.1 118.433 39.988C118.585 39.868 118.753 39.808 118.937 39.808C119.177 39.808 119.357 39.9 119.477 40.084L120.329 41.164C120.001 41.548 119.645 41.872 119.261 42.136C118.877 42.392 118.477 42.6 118.061 42.76C117.653 42.912 117.229 43.02 116.789 43.084C116.357 43.148 115.925 43.18 115.493 43.18C114.733 43.18 114.017 43.04 113.345 42.76C112.673 42.472 112.085 42.056 111.581 41.512C111.077 40.968 110.677 40.304 110.381 39.52C110.093 38.728 109.949 37.828 109.949 36.82C109.949 35.916 110.077 35.08 110.333 34.312C110.597 33.536 110.981 32.868 111.485 32.308C111.989 31.74 112.613 31.296 113.357 30.976C114.101 30.656 114.957 30.496 115.925 30.496C116.845 30.496 117.649 30.644 118.337 30.94C119.033 31.236 119.657 31.66 120.209 32.212L119.429 33.292ZM143.899 34.324C143.899 35.596 143.687 36.764 143.263 37.828C142.839 38.892 142.243 39.808 141.475 40.576C140.707 41.344 139.783 41.94 138.703 42.364C137.623 42.788 136.423 43 135.103 43H128.491V25.648H135.103C136.423 25.648 137.623 25.864 138.703 26.296C139.783 26.72 140.707 27.316 141.475 28.084C142.243 28.844 142.839 29.756 143.263 30.82C143.687 31.884 143.899 33.052 143.899 34.324ZM140.587 34.324C140.587 33.372 140.459 32.52 140.203 31.768C139.955 31.008 139.591 30.368 139.111 29.848C138.639 29.32 138.063 28.916 137.383 28.636C136.711 28.356 135.951 28.216 135.103 28.216H131.731V40.432H135.103C135.951 40.432 136.711 40.292 137.383 40.012C138.063 39.732 138.639 39.332 139.111 38.812C139.591 38.284 139.955 37.644 140.203 36.892C140.459 36.132 140.587 35.276 140.587 34.324ZM154.048 35.428C154.048 35.044 153.992 34.684 153.88 34.348C153.776 34.004 153.616 33.704 153.4 33.448C153.184 33.192 152.908 32.992 152.572 32.848C152.244 32.696 151.86 32.62 151.42 32.62C150.564 32.62 149.888 32.864 149.392 33.352C148.904 33.84 148.592 34.532 148.456 35.428H154.048ZM148.396 37.216C148.444 37.848 148.556 38.396 148.732 38.86C148.908 39.316 149.14 39.696 149.428 40C149.716 40.296 150.056 40.52 150.448 40.672C150.848 40.816 151.288 40.888 151.768 40.888C152.248 40.888 152.66 40.832 153.004 40.72C153.356 40.608 153.66 40.484 153.916 40.348C154.18 40.212 154.408 40.088 154.6 39.976C154.8 39.864 154.992 39.808 155.176 39.808C155.424 39.808 155.608 39.9 155.728 40.084L156.58 41.164C156.252 41.548 155.884 41.872 155.476 42.136C155.068 42.392 154.64 42.6 154.192 42.76C153.752 42.912 153.3 43.02 152.836 43.084C152.38 43.148 151.936 43.18 151.504 43.18C150.648 43.18 149.852 43.04 149.116 42.76C148.38 42.472 147.74 42.052 147.196 41.5C146.652 40.94 146.224 40.252 145.912 39.436C145.6 38.612 145.444 37.66 145.444 36.58C145.444 35.74 145.58 34.952 145.852 34.216C146.124 33.472 146.512 32.828 147.016 32.284C147.528 31.732 148.148 31.296 148.876 30.976C149.612 30.656 150.44 30.496 151.36 30.496C152.136 30.496 152.852 30.62 153.508 30.868C154.164 31.116 154.728 31.48 155.2 31.96C155.672 32.432 156.04 33.016 156.304 33.712C156.576 34.4 156.712 35.188 156.712 36.076C156.712 36.524 156.664 36.828 156.568 36.988C156.472 37.14 156.288 37.216 156.016 37.216H148.396ZM166.449 33.088C166.369 33.216 166.285 33.308 166.197 33.364C166.109 33.412 165.997 33.436 165.861 33.436C165.717 33.436 165.561 33.396 165.393 33.316C165.233 33.236 165.045 33.148 164.829 33.052C164.613 32.948 164.365 32.856 164.085 32.776C163.813 32.696 163.489 32.656 163.113 32.656C162.529 32.656 162.069 32.78 161.733 33.028C161.405 33.276 161.241 33.6 161.241 34C161.241 34.264 161.325 34.488 161.493 34.672C161.669 34.848 161.897 35.004 162.177 35.14C162.465 35.276 162.789 35.4 163.149 35.512C163.509 35.616 163.873 35.732 164.241 35.86C164.617 35.988 164.985 36.136 165.345 36.304C165.705 36.464 166.025 36.672 166.305 36.928C166.593 37.176 166.821 37.476 166.989 37.828C167.165 38.18 167.253 38.604 167.253 39.1C167.253 39.692 167.145 40.24 166.929 40.744C166.721 41.24 166.409 41.672 165.993 42.04C165.577 42.4 165.061 42.684 164.445 42.892C163.837 43.092 163.133 43.192 162.333 43.192C161.909 43.192 161.493 43.152 161.085 43.072C160.685 43 160.297 42.896 159.921 42.76C159.553 42.624 159.209 42.464 158.889 42.28C158.577 42.096 158.301 41.896 158.061 41.68L158.745 40.552C158.833 40.416 158.937 40.312 159.057 40.24C159.177 40.168 159.329 40.132 159.513 40.132C159.697 40.132 159.869 40.184 160.029 40.288C160.197 40.392 160.389 40.504 160.605 40.624C160.821 40.744 161.073 40.856 161.361 40.96C161.657 41.064 162.029 41.116 162.477 41.116C162.829 41.116 163.129 41.076 163.377 40.996C163.633 40.908 163.841 40.796 164.001 40.66C164.169 40.524 164.289 40.368 164.361 40.192C164.441 40.008 164.481 39.82 164.481 39.628C164.481 39.34 164.393 39.104 164.217 38.92C164.049 38.736 163.821 38.576 163.533 38.44C163.253 38.304 162.929 38.184 162.561 38.08C162.201 37.968 161.829 37.848 161.445 37.72C161.069 37.592 160.697 37.444 160.329 37.276C159.969 37.1 159.645 36.88 159.357 36.616C159.077 36.352 158.849 36.028 158.673 35.644C158.505 35.26 158.421 34.796 158.421 34.252C158.421 33.748 158.521 33.268 158.721 32.812C158.921 32.356 159.213 31.96 159.597 31.624C159.989 31.28 160.473 31.008 161.049 30.808C161.633 30.6 162.305 30.496 163.065 30.496C163.913 30.496 164.685 30.636 165.381 30.916C166.077 31.196 166.657 31.564 167.121 32.02L166.449 33.088ZM172.556 30.688V43H169.58V30.688H172.556ZM172.964 27.1C172.964 27.356 172.912 27.596 172.808 27.82C172.704 28.044 172.564 28.24 172.388 28.408C172.22 28.576 172.02 28.712 171.788 28.816C171.556 28.912 171.308 28.96 171.044 28.96C170.788 28.96 170.544 28.912 170.312 28.816C170.088 28.712 169.892 28.576 169.724 28.408C169.556 28.24 169.42 28.044 169.316 27.82C169.22 27.596 169.172 27.356 169.172 27.1C169.172 26.836 169.22 26.588 169.316 26.356C169.42 26.124 169.556 25.924 169.724 25.756C169.892 25.588 170.088 25.456 170.312 25.36C170.544 25.256 170.788 25.204 171.044 25.204C171.308 25.204 171.556 25.256 171.788 25.36C172.02 25.456 172.22 25.588 172.388 25.756C172.564 25.924 172.704 26.124 172.808 26.356C172.912 26.588 172.964 26.836 172.964 27.1ZM180.077 36.544C180.445 36.544 180.765 36.496 181.037 36.4C181.309 36.296 181.533 36.156 181.709 35.98C181.893 35.804 182.029 35.592 182.117 35.344C182.213 35.096 182.261 34.824 182.261 34.528C182.261 33.92 182.077 33.44 181.709 33.088C181.349 32.728 180.805 32.548 180.077 32.548C179.349 32.548 178.801 32.728 178.433 33.088C178.073 33.44 177.893 33.92 177.893 34.528C177.893 34.816 177.937 35.084 178.025 35.332C178.121 35.58 178.257 35.796 178.433 35.98C178.617 36.156 178.845 36.296 179.117 36.4C179.397 36.496 179.717 36.544 180.077 36.544ZM183.425 43.552C183.425 43.312 183.353 43.116 183.209 42.964C183.065 42.812 182.869 42.696 182.621 42.616C182.373 42.528 182.081 42.464 181.745 42.424C181.417 42.384 181.065 42.356 180.689 42.34C180.321 42.316 179.937 42.296 179.537 42.28C179.145 42.264 178.761 42.232 178.385 42.184C178.057 42.368 177.789 42.584 177.581 42.832C177.381 43.08 177.281 43.368 177.281 43.696C177.281 43.912 177.333 44.112 177.437 44.296C177.549 44.488 177.721 44.652 177.953 44.788C178.193 44.924 178.501 45.028 178.877 45.1C179.253 45.18 179.713 45.22 180.257 45.22C180.809 45.22 181.285 45.176 181.685 45.088C182.085 45.008 182.413 44.892 182.669 44.74C182.933 44.596 183.125 44.42 183.245 44.212C183.365 44.012 183.425 43.792 183.425 43.552ZM186.377 31.108V32.212C186.377 32.564 186.165 32.78 185.741 32.86L184.637 33.064C184.805 33.488 184.889 33.952 184.889 34.456C184.889 35.064 184.765 35.616 184.517 36.112C184.277 36.6 183.941 37.016 183.509 37.36C183.077 37.704 182.565 37.972 181.973 38.164C181.389 38.348 180.757 38.44 180.077 38.44C179.837 38.44 179.605 38.428 179.381 38.404C179.157 38.38 178.937 38.348 178.721 38.308C178.337 38.54 178.145 38.8 178.145 39.088C178.145 39.336 178.257 39.52 178.481 39.64C178.713 39.752 179.017 39.832 179.393 39.88C179.769 39.928 180.197 39.96 180.677 39.976C181.157 39.984 181.649 40.008 182.153 40.048C182.657 40.088 183.149 40.16 183.629 40.264C184.109 40.36 184.537 40.516 184.913 40.732C185.289 40.948 185.589 41.244 185.813 41.62C186.045 41.988 186.161 42.464 186.161 43.048C186.161 43.592 186.025 44.12 185.753 44.632C185.489 45.144 185.101 45.6 184.589 46C184.085 46.4 183.461 46.72 182.717 46.96C181.981 47.208 181.141 47.332 180.197 47.332C179.269 47.332 178.461 47.24 177.773 47.056C177.085 46.88 176.513 46.64 176.057 46.336C175.601 46.04 175.261 45.696 175.037 45.304C174.813 44.912 174.701 44.504 174.701 44.08C174.701 43.504 174.873 43.024 175.217 42.64C175.569 42.248 176.049 41.936 176.657 41.704C176.329 41.536 176.069 41.312 175.877 41.032C175.685 40.752 175.589 40.384 175.589 39.928C175.589 39.744 175.621 39.556 175.685 39.364C175.757 39.164 175.857 38.968 175.985 38.776C176.121 38.584 176.289 38.404 176.489 38.236C176.689 38.06 176.925 37.904 177.197 37.768C176.573 37.432 176.081 36.984 175.721 36.424C175.369 35.864 175.193 35.208 175.193 34.456C175.193 33.848 175.313 33.3 175.553 32.812C175.801 32.316 176.141 31.896 176.573 31.552C177.013 31.2 177.529 30.932 178.121 30.748C178.721 30.564 179.373 30.472 180.077 30.472C180.605 30.472 181.101 30.528 181.565 30.64C182.029 30.744 182.453 30.9 182.837 31.108H186.377ZM191.029 32.2C191.277 31.952 191.537 31.724 191.809 31.516C192.089 31.3 192.381 31.12 192.685 30.976C192.997 30.824 193.329 30.708 193.681 30.628C194.033 30.54 194.417 30.496 194.833 30.496C195.505 30.496 196.101 30.612 196.621 30.844C197.141 31.068 197.573 31.388 197.917 31.804C198.269 32.212 198.533 32.704 198.709 33.28C198.893 33.848 198.985 34.476 198.985 35.164V43H196.021V35.164C196.021 34.412 195.849 33.832 195.505 33.424C195.161 33.008 194.637 32.8 193.933 32.8C193.421 32.8 192.941 32.916 192.493 33.148C192.045 33.38 191.621 33.696 191.221 34.096V43H188.257V30.688H190.069C190.453 30.688 190.705 30.868 190.825 31.228L191.029 32.2Z" fill="black"/>
</g>
<defs>
<filter id="filter0_d_590_423" x="0" y="0" width="242" height="75" filterUnits="userSpaceOnUse" color-interpolation-filters="sRGB">
<feFlood flood-opacity="0" result="BackgroundImageFix"/>
<feColorMatrix in="SourceAlpha" type="matrix" values="0 0 0 0 0 0 0 0 0 0 0 0 0 0 0 0 0 0 127 0" result="hardAlpha"/>
<feOffset dx="2" dy="4"/>
<feGaussianBlur stdDeviation="2"/>
<feComposite in2="hardAlpha" operator="out"/>
<feColorMatrix type="matrix" values="0 0 0 0 0 0 0 0 0 0 0 0 0 0 0 0 0 0 0.25 0"/>
<feBlend mode="normal" in2="BackgroundImageFix" result="effect1_dropShadow_590_423"/>
<feBlend mode="normal" in="SourceGraphic" in2="effect1_dropShadow_590_423" result="shape"/>
</filter>
</defs>
</svg>
