<svg width="270" height="75" viewBox="0 0 270 75" fill="none" xmlns="http://www.w3.org/2000/svg">
<g filter="url(#filter0_d_13_5)">
<rect x="2" width="262" height="67" rx="12" fill="white"/>
<path d="M54.916 40.396C55.54 40.396 56.096 40.292 56.584 40.084C57.08 39.876 57.496 39.584 57.832 39.208C58.168 38.832 58.424 38.376 58.6 37.84C58.784 37.304 58.876 36.704 58.876 36.04V25.648H62.104V36.04C62.104 37.072 61.936 38.028 61.6 38.908C61.272 39.78 60.796 40.536 60.172 41.176C59.556 41.808 58.804 42.304 57.916 42.664C57.028 43.016 56.028 43.192 54.916 43.192C53.796 43.192 52.792 43.016 51.904 42.664C51.016 42.304 50.26 41.808 49.636 41.176C49.02 40.536 48.544 39.78 48.208 38.908C47.88 38.028 47.716 37.072 47.716 36.04V25.648H50.944V36.028C50.944 36.692 51.032 37.292 51.208 37.828C51.392 38.364 51.652 38.824 51.988 39.208C52.332 39.584 52.748 39.876 53.236 40.084C53.732 40.292 54.292 40.396 54.916 40.396ZM72.2729 33.088C72.1929 33.216 72.1089 33.308 72.0209 33.364C71.9329 33.412 71.8209 33.436 71.6849 33.436C71.5409 33.436 71.3849 33.396 71.2169 33.316C71.0569 33.236 70.8689 33.148 70.6529 33.052C70.4369 32.948 70.1889 32.856 69.9089 32.776C69.6369 32.696 69.3129 32.656 68.9369 32.656C68.3529 32.656 67.8929 32.78 67.5569 33.028C67.2289 33.276 67.0649 33.6 67.0649 34C67.0649 34.264 67.1489 34.488 67.3169 34.672C67.4929 34.848 67.7209 35.004 68.0009 35.14C68.2889 35.276 68.6129 35.4 68.9729 35.512C69.3329 35.616 69.6969 35.732 70.0649 35.86C70.4409 35.988 70.8089 36.136 71.1689 36.304C71.5289 36.464 71.8489 36.672 72.1289 36.928C72.4169 37.176 72.6449 37.476 72.8129 37.828C72.9889 38.18 73.0769 38.604 73.0769 39.1C73.0769 39.692 72.9689 40.24 72.7529 40.744C72.5449 41.24 72.2329 41.672 71.8169 42.04C71.4009 42.4 70.8849 42.684 70.2689 42.892C69.6609 43.092 68.9569 43.192 68.1569 43.192C67.7329 43.192 67.3169 43.152 66.9089 43.072C66.5089 43 66.1209 42.896 65.7449 42.76C65.3769 42.624 65.0329 42.464 64.7129 42.28C64.4009 42.096 64.1249 41.896 63.8849 41.68L64.5689 40.552C64.6569 40.416 64.7609 40.312 64.8809 40.24C65.0009 40.168 65.1529 40.132 65.3369 40.132C65.5209 40.132 65.6929 40.184 65.8529 40.288C66.0209 40.392 66.2129 40.504 66.4289 40.624C66.6449 40.744 66.8969 40.856 67.1849 40.96C67.4809 41.064 67.8529 41.116 68.3009 41.116C68.6529 41.116 68.9529 41.076 69.2009 40.996C69.4569 40.908 69.6649 40.796 69.8249 40.66C69.9929 40.524 70.1129 40.368 70.1849 40.192C70.2649 40.008 70.3049 39.82 70.3049 39.628C70.3049 39.34 70.2169 39.104 70.0409 38.92C69.8729 38.736 69.6449 38.576 69.3569 38.44C69.0769 38.304 68.7529 38.184 68.3849 38.08C68.0249 37.968 67.6529 37.848 67.2689 37.72C66.8929 37.592 66.5209 37.444 66.1529 37.276C65.7929 37.1 65.4689 36.88 65.1809 36.616C64.9009 36.352 64.6729 36.028 64.4969 35.644C64.3289 35.26 64.2449 34.796 64.2449 34.252C64.2449 33.748 64.3449 33.268 64.5449 32.812C64.7449 32.356 65.0369 31.96 65.4209 31.624C65.8129 31.28 66.2969 31.008 66.8729 30.808C67.4569 30.6 68.1289 30.496 68.8889 30.496C69.7369 30.496 70.5089 30.636 71.2049 30.916C71.9009 31.196 72.4809 31.564 72.9449 32.02L72.2729 33.088ZM83.2398 35.428C83.2398 35.044 83.1838 34.684 83.0718 34.348C82.9678 34.004 82.8078 33.704 82.5918 33.448C82.3758 33.192 82.0998 32.992 81.7638 32.848C81.4358 32.696 81.0518 32.62 80.6118 32.62C79.7558 32.62 79.0798 32.864 78.5838 33.352C78.0958 33.84 77.7838 34.532 77.6478 35.428H83.2398ZM77.5878 37.216C77.6358 37.848 77.7478 38.396 77.9238 38.86C78.0998 39.316 78.3318 39.696 78.6198 40C78.9078 40.296 79.2478 40.52 79.6398 40.672C80.0398 40.816 80.4798 40.888 80.9598 40.888C81.4398 40.888 81.8518 40.832 82.1958 40.72C82.5478 40.608 82.8518 40.484 83.1078 40.348C83.3718 40.212 83.5998 40.088 83.7918 39.976C83.9918 39.864 84.1838 39.808 84.3678 39.808C84.6158 39.808 84.7998 39.9 84.9198 40.084L85.7718 41.164C85.4438 41.548 85.0758 41.872 84.6678 42.136C84.2598 42.392 83.8318 42.6 83.3838 42.76C82.9438 42.912 82.4918 43.02 82.0278 43.084C81.5718 43.148 81.1278 43.18 80.6958 43.18C79.8398 43.18 79.0438 43.04 78.3078 42.76C77.5718 42.472 76.9318 42.052 76.3878 41.5C75.8438 40.94 75.4158 40.252 75.1038 39.436C74.7918 38.612 74.6357 37.66 74.6357 36.58C74.6357 35.74 74.7718 34.952 75.0438 34.216C75.3158 33.472 75.7038 32.828 76.2078 32.284C76.7198 31.732 77.3398 31.296 78.0678 30.976C78.8038 30.656 79.6318 30.496 80.5518 30.496C81.3278 30.496 82.0438 30.62 82.6998 30.868C83.3558 31.116 83.9198 31.48 84.3918 31.96C84.8638 32.432 85.2318 33.016 85.4958 33.712C85.7678 34.4 85.9037 35.188 85.9037 36.076C85.9037 36.524 85.8558 36.828 85.7598 36.988C85.6638 37.14 85.4798 37.216 85.2078 37.216H77.5878ZM90.9241 32.824C91.3081 32.088 91.7641 31.512 92.2921 31.096C92.8201 30.672 93.4441 30.46 94.1641 30.46C94.7321 30.46 95.1881 30.584 95.5321 30.832L95.3401 33.052C95.3001 33.196 95.2401 33.3 95.1601 33.364C95.0881 33.42 94.9881 33.448 94.8601 33.448C94.7401 33.448 94.5601 33.428 94.3201 33.388C94.0881 33.348 93.8601 33.328 93.6361 33.328C93.3081 33.328 93.0161 33.376 92.7601 33.472C92.5041 33.568 92.2721 33.708 92.0641 33.892C91.8641 34.068 91.6841 34.284 91.5241 34.54C91.3721 34.796 91.2281 35.088 91.0921 35.416V43H88.1281V30.688H89.8681C90.1721 30.688 90.3841 30.744 90.5041 30.856C90.6241 30.96 90.7041 31.152 90.7441 31.432L90.9241 32.824ZM114.263 28.3H109.031V43H105.803V28.3H100.571V25.648H114.263V28.3ZM121.115 35.428C121.115 35.044 121.059 34.684 120.947 34.348C120.843 34.004 120.683 33.704 120.467 33.448C120.251 33.192 119.975 32.992 119.639 32.848C119.311 32.696 118.927 32.62 118.487 32.62C117.631 32.62 116.955 32.864 116.459 33.352C115.971 33.84 115.659 34.532 115.523 35.428H121.115ZM115.463 37.216C115.511 37.848 115.623 38.396 115.799 38.86C115.975 39.316 116.207 39.696 116.495 40C116.783 40.296 117.123 40.52 117.515 40.672C117.915 40.816 118.355 40.888 118.835 40.888C119.315 40.888 119.727 40.832 120.071 40.72C120.423 40.608 120.727 40.484 120.983 40.348C121.247 40.212 121.475 40.088 121.667 39.976C121.867 39.864 122.059 39.808 122.243 39.808C122.491 39.808 122.675 39.9 122.795 40.084L123.647 41.164C123.319 41.548 122.951 41.872 122.543 42.136C122.135 42.392 121.707 42.6 121.259 42.76C120.819 42.912 120.367 43.02 119.903 43.084C119.447 43.148 119.003 43.18 118.571 43.18C117.715 43.18 116.919 43.04 116.183 42.76C115.447 42.472 114.807 42.052 114.263 41.5C113.719 40.94 113.291 40.252 112.979 39.436C112.667 38.612 112.511 37.66 112.511 36.58C112.511 35.74 112.647 34.952 112.919 34.216C113.191 33.472 113.579 32.828 114.083 32.284C114.595 31.732 115.215 31.296 115.943 30.976C116.679 30.656 117.507 30.496 118.427 30.496C119.203 30.496 119.919 30.62 120.575 30.868C121.231 31.116 121.795 31.48 122.267 31.96C122.739 32.432 123.107 33.016 123.371 33.712C123.643 34.4 123.779 35.188 123.779 36.076C123.779 36.524 123.731 36.828 123.635 36.988C123.539 37.14 123.355 37.216 123.083 37.216H115.463ZM133.515 33.088C133.435 33.216 133.351 33.308 133.263 33.364C133.175 33.412 133.063 33.436 132.927 33.436C132.783 33.436 132.627 33.396 132.459 33.316C132.299 33.236 132.111 33.148 131.895 33.052C131.679 32.948 131.431 32.856 131.151 32.776C130.879 32.696 130.555 32.656 130.179 32.656C129.595 32.656 129.135 32.78 128.799 33.028C128.471 33.276 128.307 33.6 128.307 34C128.307 34.264 128.391 34.488 128.559 34.672C128.735 34.848 128.963 35.004 129.243 35.14C129.531 35.276 129.855 35.4 130.215 35.512C130.575 35.616 130.939 35.732 131.307 35.86C131.683 35.988 132.051 36.136 132.411 36.304C132.771 36.464 133.091 36.672 133.371 36.928C133.659 37.176 133.887 37.476 134.055 37.828C134.231 38.18 134.319 38.604 134.319 39.1C134.319 39.692 134.211 40.24 133.995 40.744C133.787 41.24 133.475 41.672 133.059 42.04C132.643 42.4 132.127 42.684 131.511 42.892C130.903 43.092 130.199 43.192 129.399 43.192C128.975 43.192 128.559 43.152 128.151 43.072C127.751 43 127.363 42.896 126.987 42.76C126.619 42.624 126.275 42.464 125.955 42.28C125.643 42.096 125.367 41.896 125.127 41.68L125.811 40.552C125.899 40.416 126.003 40.312 126.123 40.24C126.243 40.168 126.395 40.132 126.579 40.132C126.763 40.132 126.935 40.184 127.095 40.288C127.263 40.392 127.455 40.504 127.671 40.624C127.887 40.744 128.139 40.856 128.427 40.96C128.723 41.064 129.095 41.116 129.543 41.116C129.895 41.116 130.195 41.076 130.443 40.996C130.699 40.908 130.907 40.796 131.067 40.66C131.235 40.524 131.355 40.368 131.427 40.192C131.507 40.008 131.547 39.82 131.547 39.628C131.547 39.34 131.459 39.104 131.283 38.92C131.115 38.736 130.887 38.576 130.599 38.44C130.319 38.304 129.995 38.184 129.627 38.08C129.267 37.968 128.895 37.848 128.511 37.72C128.135 37.592 127.763 37.444 127.395 37.276C127.035 37.1 126.711 36.88 126.423 36.616C126.143 36.352 125.915 36.028 125.739 35.644C125.571 35.26 125.487 34.796 125.487 34.252C125.487 33.748 125.587 33.268 125.787 32.812C125.987 32.356 126.279 31.96 126.663 31.624C127.055 31.28 127.539 31.008 128.115 30.808C128.699 30.6 129.371 30.496 130.131 30.496C130.979 30.496 131.751 30.636 132.447 30.916C133.143 31.196 133.723 31.564 134.187 32.02L133.515 33.088ZM140.654 43.192C139.582 43.192 138.758 42.892 138.182 42.292C137.614 41.684 137.33 40.848 137.33 39.784V32.908H136.07C135.91 32.908 135.774 32.856 135.662 32.752C135.55 32.648 135.494 32.492 135.494 32.284V31.108L137.474 30.784L138.098 27.424C138.138 27.264 138.214 27.14 138.326 27.052C138.438 26.964 138.582 26.92 138.758 26.92H140.294V30.796H143.582V32.908H140.294V39.58C140.294 39.964 140.386 40.264 140.57 40.48C140.762 40.696 141.022 40.804 141.35 40.804C141.534 40.804 141.686 40.784 141.806 40.744C141.934 40.696 142.042 40.648 142.13 40.6C142.226 40.552 142.31 40.508 142.382 40.468C142.454 40.42 142.526 40.396 142.598 40.396C142.686 40.396 142.758 40.42 142.814 40.468C142.87 40.508 142.93 40.572 142.994 40.66L143.882 42.1C143.45 42.46 142.954 42.732 142.394 42.916C141.834 43.1 141.254 43.192 140.654 43.192ZM157.028 33.904C157.636 33.904 158.164 33.828 158.612 33.676C159.068 33.524 159.44 33.316 159.728 33.052C160.024 32.78 160.244 32.46 160.388 32.092C160.532 31.724 160.604 31.32 160.604 30.88C160.604 30 160.312 29.324 159.728 28.852C159.152 28.38 158.268 28.144 157.076 28.144H155.012V33.904H157.028ZM165.332 43H162.416C161.864 43 161.464 42.784 161.216 42.352L157.568 36.796C157.432 36.588 157.28 36.44 157.112 36.352C156.952 36.264 156.712 36.22 156.392 36.22H155.012V43H151.784V25.648H157.076C158.252 25.648 159.26 25.772 160.1 26.02C160.948 26.26 161.64 26.6 162.176 27.04C162.72 27.48 163.12 28.008 163.376 28.624C163.632 29.232 163.76 29.904 163.76 30.64C163.76 31.224 163.672 31.776 163.496 32.296C163.328 32.816 163.08 33.288 162.752 33.712C162.432 34.136 162.032 34.508 161.552 34.828C161.08 35.148 160.54 35.4 159.932 35.584C160.14 35.704 160.332 35.848 160.508 36.016C160.684 36.176 160.844 36.368 160.988 36.592L165.332 43ZM173.873 35.428C173.873 35.044 173.817 34.684 173.705 34.348C173.601 34.004 173.441 33.704 173.225 33.448C173.009 33.192 172.733 32.992 172.397 32.848C172.069 32.696 171.685 32.62 171.245 32.62C170.389 32.62 169.713 32.864 169.217 33.352C168.729 33.84 168.417 34.532 168.281 35.428H173.873ZM168.221 37.216C168.269 37.848 168.381 38.396 168.557 38.86C168.733 39.316 168.965 39.696 169.253 40C169.541 40.296 169.881 40.52 170.273 40.672C170.673 40.816 171.113 40.888 171.593 40.888C172.073 40.888 172.485 40.832 172.829 40.72C173.181 40.608 173.485 40.484 173.741 40.348C174.005 40.212 174.233 40.088 174.425 39.976C174.625 39.864 174.817 39.808 175.001 39.808C175.249 39.808 175.433 39.9 175.553 40.084L176.405 41.164C176.077 41.548 175.709 41.872 175.301 42.136C174.893 42.392 174.465 42.6 174.017 42.76C173.577 42.912 173.125 43.02 172.661 43.084C172.205 43.148 171.761 43.18 171.329 43.18C170.473 43.18 169.677 43.04 168.941 42.76C168.205 42.472 167.565 42.052 167.021 41.5C166.477 40.94 166.049 40.252 165.737 39.436C165.425 38.612 165.269 37.66 165.269 36.58C165.269 35.74 165.405 34.952 165.677 34.216C165.949 33.472 166.337 32.828 166.841 32.284C167.353 31.732 167.973 31.296 168.701 30.976C169.437 30.656 170.265 30.496 171.185 30.496C171.961 30.496 172.677 30.62 173.333 30.868C173.989 31.116 174.553 31.48 175.025 31.96C175.497 32.432 175.865 33.016 176.129 33.712C176.401 34.4 176.537 35.188 176.537 36.076C176.537 36.524 176.489 36.828 176.393 36.988C176.297 37.14 176.113 37.216 175.841 37.216H168.221ZM181.725 39.808C182.061 40.216 182.425 40.504 182.817 40.672C183.217 40.84 183.649 40.924 184.113 40.924C184.561 40.924 184.965 40.84 185.325 40.672C185.685 40.504 185.989 40.248 186.237 39.904C186.493 39.56 186.689 39.128 186.825 38.608C186.961 38.08 187.029 37.46 187.029 36.748C187.029 36.028 186.969 35.42 186.849 34.924C186.737 34.42 186.573 34.012 186.357 33.7C186.141 33.388 185.877 33.16 185.565 33.016C185.261 32.872 184.913 32.8 184.521 32.8C183.905 32.8 183.381 32.932 182.949 33.196C182.517 33.452 182.109 33.816 181.725 34.288V39.808ZM181.569 32.368C182.073 31.8 182.645 31.34 183.285 30.988C183.925 30.636 184.677 30.46 185.541 30.46C186.213 30.46 186.825 30.6 187.377 30.88C187.937 31.16 188.417 31.568 188.817 32.104C189.225 32.632 189.537 33.288 189.753 34.072C189.977 34.848 190.089 35.74 190.089 36.748C190.089 37.668 189.965 38.52 189.717 39.304C189.469 40.088 189.113 40.768 188.649 41.344C188.193 41.92 187.637 42.372 186.981 42.7C186.333 43.02 185.605 43.18 184.797 43.18C184.109 43.18 183.521 43.076 183.033 42.868C182.545 42.652 182.109 42.356 181.725 41.98V47.02H178.761V30.688H180.573C180.957 30.688 181.209 30.868 181.329 31.228L181.569 32.368ZM197.85 30.496C198.762 30.496 199.59 30.644 200.334 30.94C201.086 31.236 201.726 31.656 202.254 32.2C202.789 32.744 203.201 33.408 203.49 34.192C203.778 34.976 203.922 35.852 203.922 36.82C203.922 37.796 203.778 38.676 203.49 39.46C203.201 40.244 202.789 40.912 202.254 41.464C201.726 42.016 201.086 42.44 200.334 42.736C199.59 43.032 198.762 43.18 197.85 43.18C196.93 43.18 196.094 43.032 195.342 42.736C194.59 42.44 193.946 42.016 193.41 41.464C192.882 40.912 192.47 40.244 192.174 39.46C191.886 38.676 191.742 37.796 191.742 36.82C191.742 35.852 191.886 34.976 192.174 34.192C192.47 33.408 192.882 32.744 193.41 32.2C193.946 31.656 194.59 31.236 195.342 30.94C196.094 30.644 196.93 30.496 197.85 30.496ZM197.85 40.9C198.874 40.9 199.63 40.556 200.118 39.868C200.614 39.18 200.862 38.172 200.862 36.844C200.862 35.516 200.614 34.504 200.118 33.808C199.63 33.112 198.874 32.764 197.85 32.764C196.81 32.764 196.038 33.116 195.534 33.82C195.038 34.516 194.79 35.524 194.79 36.844C194.79 38.164 195.038 39.172 195.534 39.868C196.038 40.556 196.81 40.9 197.85 40.9ZM208.979 32.824C209.363 32.088 209.819 31.512 210.347 31.096C210.875 30.672 211.499 30.46 212.219 30.46C212.787 30.46 213.243 30.584 213.587 30.832L213.395 33.052C213.355 33.196 213.295 33.3 213.215 33.364C213.143 33.42 213.043 33.448 212.915 33.448C212.795 33.448 212.615 33.428 212.375 33.388C212.143 33.348 211.915 33.328 211.691 33.328C211.363 33.328 211.071 33.376 210.815 33.472C210.559 33.568 210.327 33.708 210.119 33.892C209.919 34.068 209.739 34.284 209.579 34.54C209.427 34.796 209.283 35.088 209.147 35.416V43H206.183V30.688H207.923C208.227 30.688 208.439 30.744 208.559 30.856C208.679 30.96 208.759 31.152 208.799 31.432L208.979 32.824ZM219.24 43.192C218.168 43.192 217.344 42.892 216.768 42.292C216.2 41.684 215.916 40.848 215.916 39.784V32.908H214.656C214.496 32.908 214.36 32.856 214.248 32.752C214.136 32.648 214.08 32.492 214.08 32.284V31.108L216.06 30.784L216.684 27.424C216.724 27.264 216.8 27.14 216.912 27.052C217.024 26.964 217.168 26.92 217.344 26.92H218.88V30.796H222.168V32.908H218.88V39.58C218.88 39.964 218.972 40.264 219.156 40.48C219.348 40.696 219.608 40.804 219.936 40.804C220.12 40.804 220.272 40.784 220.392 40.744C220.52 40.696 220.628 40.648 220.716 40.6C220.812 40.552 220.896 40.508 220.968 40.468C221.04 40.42 221.112 40.396 221.184 40.396C221.272 40.396 221.344 40.42 221.4 40.468C221.456 40.508 221.516 40.572 221.58 40.66L222.468 42.1C222.036 42.46 221.54 42.732 220.98 42.916C220.42 43.1 219.84 43.192 219.24 43.192Z" fill="black"/>
</g>
<defs>
<filter id="filter0_d_13_5" x="0" y="0" width="270" height="75" filterUnits="userSpaceOnUse" color-interpolation-filters="sRGB">
<feFlood flood-opacity="0" result="BackgroundImageFix"/>
<feColorMatrix in="SourceAlpha" type="matrix" values="0 0 0 0 0 0 0 0 0 0 0 0 0 0 0 0 0 0 127 0" result="hardAlpha"/>
<feOffset dx="2" dy="4"/>
<feGaussianBlur stdDeviation="2"/>
<feComposite in2="hardAlpha" operator="out"/>
<feColorMatrix type="matrix" values="0 0 0 0 0 0 0 0 0 0 0 0 0 0 0 0 0 0 0.25 0"/>
<feBlend mode="normal" in2="BackgroundImageFix" result="effect1_dropShadow_13_5"/>
<feBlend mode="normal" in="SourceGraphic" in2="effect1_dropShadow_13_5" result="shape"/>
</filter>
</defs>
</svg>
