<svg width="753" height="528" viewBox="0 0 753 528" fill="none" xmlns="http://www.w3.org/2000/svg">
<g filter="url(#filter0_d_271_751)">
<rect x="125" y="453" width="262" height="67" rx="12" fill="white"/>
<path d="M177.916 493.396C178.54 493.396 179.096 493.292 179.584 493.084C180.08 492.876 180.496 492.584 180.832 492.208C181.168 491.832 181.424 491.376 181.6 490.84C181.784 490.304 181.876 489.704 181.876 489.04V478.648H185.104V489.04C185.104 490.072 184.936 491.028 184.6 491.908C184.272 492.78 183.796 493.536 183.172 494.176C182.556 494.808 181.804 495.304 180.916 495.664C180.028 496.016 179.028 496.192 177.916 496.192C176.796 496.192 175.792 496.016 174.904 495.664C174.016 495.304 173.26 494.808 172.636 494.176C172.02 493.536 171.544 492.78 171.208 491.908C170.88 491.028 170.716 490.072 170.716 489.04V478.648H173.944V489.028C173.944 489.692 174.032 490.292 174.208 490.828C174.392 491.364 174.652 491.824 174.988 492.208C175.332 492.584 175.748 492.876 176.236 493.084C176.732 493.292 177.292 493.396 177.916 493.396ZM195.273 486.088C195.193 486.216 195.109 486.308 195.021 486.364C194.933 486.412 194.821 486.436 194.685 486.436C194.541 486.436 194.385 486.396 194.217 486.316C194.057 486.236 193.869 486.148 193.653 486.052C193.437 485.948 193.189 485.856 192.909 485.776C192.637 485.696 192.313 485.656 191.937 485.656C191.353 485.656 190.893 485.78 190.557 486.028C190.229 486.276 190.065 486.6 190.065 487C190.065 487.264 190.149 487.488 190.317 487.672C190.493 487.848 190.721 488.004 191.001 488.14C191.289 488.276 191.613 488.4 191.973 488.512C192.333 488.616 192.697 488.732 193.065 488.86C193.441 488.988 193.809 489.136 194.169 489.304C194.529 489.464 194.849 489.672 195.129 489.928C195.417 490.176 195.645 490.476 195.813 490.828C195.989 491.18 196.077 491.604 196.077 492.1C196.077 492.692 195.969 493.24 195.753 493.744C195.545 494.24 195.233 494.672 194.817 495.04C194.401 495.4 193.885 495.684 193.269 495.892C192.661 496.092 191.957 496.192 191.157 496.192C190.733 496.192 190.317 496.152 189.909 496.072C189.509 496 189.121 495.896 188.745 495.76C188.377 495.624 188.033 495.464 187.713 495.28C187.401 495.096 187.125 494.896 186.885 494.68L187.569 493.552C187.657 493.416 187.761 493.312 187.881 493.24C188.001 493.168 188.153 493.132 188.337 493.132C188.521 493.132 188.693 493.184 188.853 493.288C189.021 493.392 189.213 493.504 189.429 493.624C189.645 493.744 189.897 493.856 190.185 493.96C190.481 494.064 190.853 494.116 191.301 494.116C191.653 494.116 191.953 494.076 192.201 493.996C192.457 493.908 192.665 493.796 192.825 493.66C192.993 493.524 193.113 493.368 193.185 493.192C193.265 493.008 193.305 492.82 193.305 492.628C193.305 492.34 193.217 492.104 193.041 491.92C192.873 491.736 192.645 491.576 192.357 491.44C192.077 491.304 191.753 491.184 191.385 491.08C191.025 490.968 190.653 490.848 190.269 490.72C189.893 490.592 189.521 490.444 189.153 490.276C188.793 490.1 188.469 489.88 188.181 489.616C187.901 489.352 187.673 489.028 187.497 488.644C187.329 488.26 187.245 487.796 187.245 487.252C187.245 486.748 187.345 486.268 187.545 485.812C187.745 485.356 188.037 484.96 188.421 484.624C188.813 484.28 189.297 484.008 189.873 483.808C190.457 483.6 191.129 483.496 191.889 483.496C192.737 483.496 193.509 483.636 194.205 483.916C194.901 484.196 195.481 484.564 195.945 485.02L195.273 486.088ZM206.24 488.428C206.24 488.044 206.184 487.684 206.072 487.348C205.968 487.004 205.808 486.704 205.592 486.448C205.376 486.192 205.1 485.992 204.764 485.848C204.436 485.696 204.052 485.62 203.612 485.62C202.756 485.62 202.08 485.864 201.584 486.352C201.096 486.84 200.784 487.532 200.648 488.428H206.24ZM200.588 490.216C200.636 490.848 200.748 491.396 200.924 491.86C201.1 492.316 201.332 492.696 201.62 493C201.908 493.296 202.248 493.52 202.64 493.672C203.04 493.816 203.48 493.888 203.96 493.888C204.44 493.888 204.852 493.832 205.196 493.72C205.548 493.608 205.852 493.484 206.108 493.348C206.372 493.212 206.6 493.088 206.792 492.976C206.992 492.864 207.184 492.808 207.368 492.808C207.616 492.808 207.8 492.9 207.92 493.084L208.772 494.164C208.444 494.548 208.076 494.872 207.668 495.136C207.26 495.392 206.832 495.6 206.384 495.76C205.944 495.912 205.492 496.02 205.028 496.084C204.572 496.148 204.128 496.18 203.696 496.18C202.84 496.18 202.044 496.04 201.308 495.76C200.572 495.472 199.932 495.052 199.388 494.5C198.844 493.94 198.416 493.252 198.104 492.436C197.792 491.612 197.636 490.66 197.636 489.58C197.636 488.74 197.772 487.952 198.044 487.216C198.316 486.472 198.704 485.828 199.208 485.284C199.72 484.732 200.34 484.296 201.068 483.976C201.804 483.656 202.632 483.496 203.552 483.496C204.328 483.496 205.044 483.62 205.7 483.868C206.356 484.116 206.92 484.48 207.392 484.96C207.864 485.432 208.232 486.016 208.496 486.712C208.768 487.4 208.904 488.188 208.904 489.076C208.904 489.524 208.856 489.828 208.76 489.988C208.664 490.14 208.48 490.216 208.208 490.216H200.588ZM213.924 485.824C214.308 485.088 214.764 484.512 215.292 484.096C215.82 483.672 216.444 483.46 217.164 483.46C217.732 483.46 218.188 483.584 218.532 483.832L218.34 486.052C218.3 486.196 218.24 486.3 218.16 486.364C218.088 486.42 217.988 486.448 217.86 486.448C217.74 486.448 217.56 486.428 217.32 486.388C217.088 486.348 216.86 486.328 216.636 486.328C216.308 486.328 216.016 486.376 215.76 486.472C215.504 486.568 215.272 486.708 215.064 486.892C214.864 487.068 214.684 487.284 214.524 487.54C214.372 487.796 214.228 488.088 214.092 488.416V496H211.128V483.688H212.868C213.172 483.688 213.384 483.744 213.504 483.856C213.624 483.96 213.704 484.152 213.744 484.432L213.924 485.824ZM237.263 481.3H232.031V496H228.803V481.3H223.571V478.648H237.263V481.3ZM244.115 488.428C244.115 488.044 244.059 487.684 243.947 487.348C243.843 487.004 243.683 486.704 243.467 486.448C243.251 486.192 242.975 485.992 242.639 485.848C242.311 485.696 241.927 485.62 241.487 485.62C240.631 485.62 239.955 485.864 239.459 486.352C238.971 486.84 238.659 487.532 238.523 488.428H244.115ZM238.463 490.216C238.511 490.848 238.623 491.396 238.799 491.86C238.975 492.316 239.207 492.696 239.495 493C239.783 493.296 240.123 493.52 240.515 493.672C240.915 493.816 241.355 493.888 241.835 493.888C242.315 493.888 242.727 493.832 243.071 493.72C243.423 493.608 243.727 493.484 243.983 493.348C244.247 493.212 244.475 493.088 244.667 492.976C244.867 492.864 245.059 492.808 245.243 492.808C245.491 492.808 245.675 492.9 245.795 493.084L246.647 494.164C246.319 494.548 245.951 494.872 245.543 495.136C245.135 495.392 244.707 495.6 244.259 495.76C243.819 495.912 243.367 496.02 242.903 496.084C242.447 496.148 242.003 496.18 241.571 496.18C240.715 496.18 239.919 496.04 239.183 495.76C238.447 495.472 237.807 495.052 237.263 494.5C236.719 493.94 236.291 493.252 235.979 492.436C235.667 491.612 235.511 490.66 235.511 489.58C235.511 488.74 235.647 487.952 235.919 487.216C236.191 486.472 236.579 485.828 237.083 485.284C237.595 484.732 238.215 484.296 238.943 483.976C239.679 483.656 240.507 483.496 241.427 483.496C242.203 483.496 242.919 483.62 243.575 483.868C244.231 484.116 244.795 484.48 245.267 484.96C245.739 485.432 246.107 486.016 246.371 486.712C246.643 487.4 246.779 488.188 246.779 489.076C246.779 489.524 246.731 489.828 246.635 489.988C246.539 490.14 246.355 490.216 246.083 490.216H238.463ZM256.515 486.088C256.435 486.216 256.351 486.308 256.263 486.364C256.175 486.412 256.063 486.436 255.927 486.436C255.783 486.436 255.627 486.396 255.459 486.316C255.299 486.236 255.111 486.148 254.895 486.052C254.679 485.948 254.431 485.856 254.151 485.776C253.879 485.696 253.555 485.656 253.179 485.656C252.595 485.656 252.135 485.78 251.799 486.028C251.471 486.276 251.307 486.6 251.307 487C251.307 487.264 251.391 487.488 251.559 487.672C251.735 487.848 251.963 488.004 252.243 488.14C252.531 488.276 252.855 488.4 253.215 488.512C253.575 488.616 253.939 488.732 254.307 488.86C254.683 488.988 255.051 489.136 255.411 489.304C255.771 489.464 256.091 489.672 256.371 489.928C256.659 490.176 256.887 490.476 257.055 490.828C257.231 491.18 257.319 491.604 257.319 492.1C257.319 492.692 257.211 493.24 256.995 493.744C256.787 494.24 256.475 494.672 256.059 495.04C255.643 495.4 255.127 495.684 254.511 495.892C253.903 496.092 253.199 496.192 252.399 496.192C251.975 496.192 251.559 496.152 251.151 496.072C250.751 496 250.363 495.896 249.987 495.76C249.619 495.624 249.275 495.464 248.955 495.28C248.643 495.096 248.367 494.896 248.127 494.68L248.811 493.552C248.899 493.416 249.003 493.312 249.123 493.24C249.243 493.168 249.395 493.132 249.579 493.132C249.763 493.132 249.935 493.184 250.095 493.288C250.263 493.392 250.455 493.504 250.671 493.624C250.887 493.744 251.139 493.856 251.427 493.96C251.723 494.064 252.095 494.116 252.543 494.116C252.895 494.116 253.195 494.076 253.443 493.996C253.699 493.908 253.907 493.796 254.067 493.66C254.235 493.524 254.355 493.368 254.427 493.192C254.507 493.008 254.547 492.82 254.547 492.628C254.547 492.34 254.459 492.104 254.283 491.92C254.115 491.736 253.887 491.576 253.599 491.44C253.319 491.304 252.995 491.184 252.627 491.08C252.267 490.968 251.895 490.848 251.511 490.72C251.135 490.592 250.763 490.444 250.395 490.276C250.035 490.1 249.711 489.88 249.423 489.616C249.143 489.352 248.915 489.028 248.739 488.644C248.571 488.26 248.487 487.796 248.487 487.252C248.487 486.748 248.587 486.268 248.787 485.812C248.987 485.356 249.279 484.96 249.663 484.624C250.055 484.28 250.539 484.008 251.115 483.808C251.699 483.6 252.371 483.496 253.131 483.496C253.979 483.496 254.751 483.636 255.447 483.916C256.143 484.196 256.723 484.564 257.187 485.02L256.515 486.088ZM263.654 496.192C262.582 496.192 261.758 495.892 261.182 495.292C260.614 494.684 260.33 493.848 260.33 492.784V485.908H259.07C258.91 485.908 258.774 485.856 258.662 485.752C258.55 485.648 258.494 485.492 258.494 485.284V484.108L260.474 483.784L261.098 480.424C261.138 480.264 261.214 480.14 261.326 480.052C261.438 479.964 261.582 479.92 261.758 479.92H263.294V483.796H266.582V485.908H263.294V492.58C263.294 492.964 263.386 493.264 263.57 493.48C263.762 493.696 264.022 493.804 264.35 493.804C264.534 493.804 264.686 493.784 264.806 493.744C264.934 493.696 265.042 493.648 265.13 493.6C265.226 493.552 265.31 493.508 265.382 493.468C265.454 493.42 265.526 493.396 265.598 493.396C265.686 493.396 265.758 493.42 265.814 493.468C265.87 493.508 265.93 493.572 265.994 493.66L266.882 495.1C266.45 495.46 265.954 495.732 265.394 495.916C264.834 496.1 264.254 496.192 263.654 496.192ZM280.028 486.904C280.636 486.904 281.164 486.828 281.612 486.676C282.068 486.524 282.44 486.316 282.728 486.052C283.024 485.78 283.244 485.46 283.388 485.092C283.532 484.724 283.604 484.32 283.604 483.88C283.604 483 283.312 482.324 282.728 481.852C282.152 481.38 281.268 481.144 280.076 481.144H278.012V486.904H280.028ZM288.332 496H285.416C284.864 496 284.464 495.784 284.216 495.352L280.568 489.796C280.432 489.588 280.28 489.44 280.112 489.352C279.952 489.264 279.712 489.22 279.392 489.22H278.012V496H274.784V478.648H280.076C281.252 478.648 282.26 478.772 283.1 479.02C283.948 479.26 284.64 479.6 285.176 480.04C285.72 480.48 286.12 481.008 286.376 481.624C286.632 482.232 286.76 482.904 286.76 483.64C286.76 484.224 286.672 484.776 286.496 485.296C286.328 485.816 286.08 486.288 285.752 486.712C285.432 487.136 285.032 487.508 284.552 487.828C284.08 488.148 283.54 488.4 282.932 488.584C283.14 488.704 283.332 488.848 283.508 489.016C283.684 489.176 283.844 489.368 283.988 489.592L288.332 496ZM296.873 488.428C296.873 488.044 296.817 487.684 296.705 487.348C296.601 487.004 296.441 486.704 296.225 486.448C296.009 486.192 295.733 485.992 295.397 485.848C295.069 485.696 294.685 485.62 294.245 485.62C293.389 485.62 292.713 485.864 292.217 486.352C291.729 486.84 291.417 487.532 291.281 488.428H296.873ZM291.221 490.216C291.269 490.848 291.381 491.396 291.557 491.86C291.733 492.316 291.965 492.696 292.253 493C292.541 493.296 292.881 493.52 293.273 493.672C293.673 493.816 294.113 493.888 294.593 493.888C295.073 493.888 295.485 493.832 295.829 493.72C296.181 493.608 296.485 493.484 296.741 493.348C297.005 493.212 297.233 493.088 297.425 492.976C297.625 492.864 297.817 492.808 298.001 492.808C298.249 492.808 298.433 492.9 298.553 493.084L299.405 494.164C299.077 494.548 298.709 494.872 298.301 495.136C297.893 495.392 297.465 495.6 297.017 495.76C296.577 495.912 296.125 496.02 295.661 496.084C295.205 496.148 294.761 496.18 294.329 496.18C293.473 496.18 292.677 496.04 291.941 495.76C291.205 495.472 290.565 495.052 290.021 494.5C289.477 493.94 289.049 493.252 288.737 492.436C288.425 491.612 288.269 490.66 288.269 489.58C288.269 488.74 288.405 487.952 288.677 487.216C288.949 486.472 289.337 485.828 289.841 485.284C290.353 484.732 290.973 484.296 291.701 483.976C292.437 483.656 293.265 483.496 294.185 483.496C294.961 483.496 295.677 483.62 296.333 483.868C296.989 484.116 297.553 484.48 298.025 484.96C298.497 485.432 298.865 486.016 299.129 486.712C299.401 487.4 299.537 488.188 299.537 489.076C299.537 489.524 299.489 489.828 299.393 489.988C299.297 490.14 299.113 490.216 298.841 490.216H291.221ZM304.725 492.808C305.061 493.216 305.425 493.504 305.817 493.672C306.217 493.84 306.649 493.924 307.113 493.924C307.561 493.924 307.965 493.84 308.325 493.672C308.685 493.504 308.989 493.248 309.237 492.904C309.493 492.56 309.689 492.128 309.825 491.608C309.961 491.08 310.029 490.46 310.029 489.748C310.029 489.028 309.969 488.42 309.849 487.924C309.737 487.42 309.573 487.012 309.357 486.7C309.141 486.388 308.877 486.16 308.565 486.016C308.261 485.872 307.913 485.8 307.521 485.8C306.905 485.8 306.381 485.932 305.949 486.196C305.517 486.452 305.109 486.816 304.725 487.288V492.808ZM304.569 485.368C305.073 484.8 305.645 484.34 306.285 483.988C306.925 483.636 307.677 483.46 308.541 483.46C309.213 483.46 309.825 483.6 310.377 483.88C310.937 484.16 311.417 484.568 311.817 485.104C312.225 485.632 312.537 486.288 312.753 487.072C312.977 487.848 313.089 488.74 313.089 489.748C313.089 490.668 312.965 491.52 312.717 492.304C312.469 493.088 312.113 493.768 311.649 494.344C311.193 494.92 310.637 495.372 309.981 495.7C309.333 496.02 308.605 496.18 307.797 496.18C307.109 496.18 306.521 496.076 306.033 495.868C305.545 495.652 305.109 495.356 304.725 494.98V500.02H301.761V483.688H303.573C303.957 483.688 304.209 483.868 304.329 484.228L304.569 485.368ZM320.85 483.496C321.762 483.496 322.59 483.644 323.334 483.94C324.086 484.236 324.726 484.656 325.254 485.2C325.789 485.744 326.201 486.408 326.49 487.192C326.778 487.976 326.922 488.852 326.922 489.82C326.922 490.796 326.778 491.676 326.49 492.46C326.201 493.244 325.789 493.912 325.254 494.464C324.726 495.016 324.086 495.44 323.334 495.736C322.59 496.032 321.762 496.18 320.85 496.18C319.93 496.18 319.094 496.032 318.342 495.736C317.59 495.44 316.946 495.016 316.41 494.464C315.882 493.912 315.47 493.244 315.174 492.46C314.886 491.676 314.742 490.796 314.742 489.82C314.742 488.852 314.886 487.976 315.174 487.192C315.47 486.408 315.882 485.744 316.41 485.2C316.946 484.656 317.59 484.236 318.342 483.94C319.094 483.644 319.93 483.496 320.85 483.496ZM320.85 493.9C321.874 493.9 322.63 493.556 323.118 492.868C323.614 492.18 323.862 491.172 323.862 489.844C323.862 488.516 323.614 487.504 323.118 486.808C322.63 486.112 321.874 485.764 320.85 485.764C319.81 485.764 319.038 486.116 318.534 486.82C318.038 487.516 317.79 488.524 317.79 489.844C317.79 491.164 318.038 492.172 318.534 492.868C319.038 493.556 319.81 493.9 320.85 493.9ZM331.979 485.824C332.363 485.088 332.819 484.512 333.347 484.096C333.875 483.672 334.499 483.46 335.219 483.46C335.787 483.46 336.243 483.584 336.587 483.832L336.395 486.052C336.355 486.196 336.295 486.3 336.215 486.364C336.143 486.42 336.043 486.448 335.915 486.448C335.795 486.448 335.615 486.428 335.375 486.388C335.143 486.348 334.915 486.328 334.691 486.328C334.363 486.328 334.071 486.376 333.815 486.472C333.559 486.568 333.327 486.708 333.119 486.892C332.919 487.068 332.739 487.284 332.579 487.54C332.427 487.796 332.283 488.088 332.147 488.416V496H329.183V483.688H330.923C331.227 483.688 331.439 483.744 331.559 483.856C331.679 483.96 331.759 484.152 331.799 484.432L331.979 485.824ZM342.24 496.192C341.168 496.192 340.344 495.892 339.768 495.292C339.2 494.684 338.916 493.848 338.916 492.784V485.908H337.656C337.496 485.908 337.36 485.856 337.248 485.752C337.136 485.648 337.08 485.492 337.08 485.284V484.108L339.06 483.784L339.684 480.424C339.724 480.264 339.8 480.14 339.912 480.052C340.024 479.964 340.168 479.92 340.344 479.92H341.88V483.796H345.168V485.908H341.88V492.58C341.88 492.964 341.972 493.264 342.156 493.48C342.348 493.696 342.608 493.804 342.936 493.804C343.12 493.804 343.272 493.784 343.392 493.744C343.52 493.696 343.628 493.648 343.716 493.6C343.812 493.552 343.896 493.508 343.968 493.468C344.04 493.42 344.112 493.396 344.184 493.396C344.272 493.396 344.344 493.42 344.4 493.468C344.456 493.508 344.516 493.572 344.58 493.66L345.468 495.1C345.036 495.46 344.54 495.732 343.98 495.916C343.42 496.1 342.84 496.192 342.24 496.192Z" fill="black"/>
</g>
<g filter="url(#filter1_d_271_751)">
<rect x="513" width="234" height="67" rx="12" fill="white"/>
<path d="M586.916 40.396C587.54 40.396 588.096 40.292 588.584 40.084C589.08 39.876 589.496 39.584 589.832 39.208C590.168 38.832 590.424 38.376 590.6 37.84C590.784 37.304 590.876 36.704 590.876 36.04V25.648H594.104V36.04C594.104 37.072 593.936 38.028 593.6 38.908C593.272 39.78 592.796 40.536 592.172 41.176C591.556 41.808 590.804 42.304 589.916 42.664C589.028 43.016 588.028 43.192 586.916 43.192C585.796 43.192 584.792 43.016 583.904 42.664C583.016 42.304 582.26 41.808 581.636 41.176C581.02 40.536 580.544 39.78 580.208 38.908C579.88 38.028 579.716 37.072 579.716 36.04V25.648H582.944V36.028C582.944 36.692 583.032 37.292 583.208 37.828C583.392 38.364 583.652 38.824 583.988 39.208C584.332 39.584 584.748 39.876 585.236 40.084C585.732 40.292 586.292 40.396 586.916 40.396ZM600.985 43H597.745V25.648H600.985V43ZM626.113 34.324C626.113 35.596 625.901 36.764 625.477 37.828C625.053 38.892 624.457 39.808 623.689 40.576C622.921 41.344 621.997 41.94 620.917 42.364C619.837 42.788 618.637 43 617.317 43H610.705V25.648H617.317C618.637 25.648 619.837 25.864 620.917 26.296C621.997 26.72 622.921 27.316 623.689 28.084C624.457 28.844 625.053 29.756 625.477 30.82C625.901 31.884 626.113 33.052 626.113 34.324ZM622.801 34.324C622.801 33.372 622.673 32.52 622.417 31.768C622.169 31.008 621.805 30.368 621.325 29.848C620.853 29.32 620.277 28.916 619.597 28.636C618.925 28.356 618.165 28.216 617.317 28.216H613.945V40.432H617.317C618.165 40.432 618.925 40.292 619.597 40.012C620.277 39.732 620.853 39.332 621.325 38.812C621.805 38.284 622.169 37.644 622.417 36.892C622.673 36.132 622.801 35.276 622.801 34.324ZM636.263 35.428C636.263 35.044 636.207 34.684 636.095 34.348C635.991 34.004 635.831 33.704 635.615 33.448C635.399 33.192 635.123 32.992 634.787 32.848C634.459 32.696 634.075 32.62 633.635 32.62C632.779 32.62 632.103 32.864 631.607 33.352C631.119 33.84 630.807 34.532 630.671 35.428H636.263ZM630.611 37.216C630.659 37.848 630.771 38.396 630.947 38.86C631.123 39.316 631.355 39.696 631.643 40C631.931 40.296 632.271 40.52 632.663 40.672C633.063 40.816 633.503 40.888 633.983 40.888C634.463 40.888 634.875 40.832 635.219 40.72C635.571 40.608 635.875 40.484 636.131 40.348C636.395 40.212 636.623 40.088 636.815 39.976C637.015 39.864 637.207 39.808 637.391 39.808C637.639 39.808 637.823 39.9 637.943 40.084L638.795 41.164C638.467 41.548 638.099 41.872 637.691 42.136C637.283 42.392 636.855 42.6 636.407 42.76C635.967 42.912 635.515 43.02 635.051 43.084C634.595 43.148 634.151 43.18 633.719 43.18C632.863 43.18 632.067 43.04 631.331 42.76C630.595 42.472 629.955 42.052 629.411 41.5C628.867 40.94 628.439 40.252 628.127 39.436C627.815 38.612 627.659 37.66 627.659 36.58C627.659 35.74 627.795 34.952 628.067 34.216C628.339 33.472 628.727 32.828 629.231 32.284C629.743 31.732 630.363 31.296 631.091 30.976C631.827 30.656 632.655 30.496 633.575 30.496C634.351 30.496 635.067 30.62 635.723 30.868C636.379 31.116 636.943 31.48 637.415 31.96C637.887 32.432 638.255 33.016 638.519 33.712C638.791 34.4 638.927 35.188 638.927 36.076C638.927 36.524 638.879 36.828 638.783 36.988C638.687 37.14 638.503 37.216 638.231 37.216H630.611ZM648.664 33.088C648.584 33.216 648.5 33.308 648.412 33.364C648.324 33.412 648.212 33.436 648.076 33.436C647.932 33.436 647.776 33.396 647.608 33.316C647.448 33.236 647.26 33.148 647.044 33.052C646.828 32.948 646.58 32.856 646.299 32.776C646.028 32.696 645.704 32.656 645.328 32.656C644.744 32.656 644.284 32.78 643.948 33.028C643.62 33.276 643.456 33.6 643.456 34C643.456 34.264 643.54 34.488 643.708 34.672C643.884 34.848 644.112 35.004 644.392 35.14C644.68 35.276 645.004 35.4 645.364 35.512C645.724 35.616 646.088 35.732 646.456 35.86C646.832 35.988 647.2 36.136 647.56 36.304C647.92 36.464 648.24 36.672 648.52 36.928C648.808 37.176 649.036 37.476 649.204 37.828C649.38 38.18 649.468 38.604 649.468 39.1C649.468 39.692 649.36 40.24 649.144 40.744C648.936 41.24 648.624 41.672 648.208 42.04C647.792 42.4 647.276 42.684 646.66 42.892C646.052 43.092 645.348 43.192 644.548 43.192C644.124 43.192 643.708 43.152 643.3 43.072C642.9 43 642.512 42.896 642.136 42.76C641.768 42.624 641.424 42.464 641.104 42.28C640.792 42.096 640.516 41.896 640.276 41.68L640.96 40.552C641.048 40.416 641.152 40.312 641.271 40.24C641.391 40.168 641.544 40.132 641.728 40.132C641.912 40.132 642.084 40.184 642.244 40.288C642.412 40.392 642.604 40.504 642.82 40.624C643.036 40.744 643.288 40.856 643.576 40.96C643.872 41.064 644.244 41.116 644.692 41.116C645.044 41.116 645.344 41.076 645.592 40.996C645.848 40.908 646.056 40.796 646.216 40.66C646.384 40.524 646.503 40.368 646.576 40.192C646.656 40.008 646.696 39.82 646.696 39.628C646.696 39.34 646.608 39.104 646.432 38.92C646.264 38.736 646.036 38.576 645.747 38.44C645.468 38.304 645.144 38.184 644.776 38.08C644.416 37.968 644.044 37.848 643.66 37.72C643.284 37.592 642.912 37.444 642.544 37.276C642.184 37.1 641.86 36.88 641.572 36.616C641.292 36.352 641.064 36.028 640.888 35.644C640.72 35.26 640.636 34.796 640.636 34.252C640.636 33.748 640.736 33.268 640.936 32.812C641.136 32.356 641.428 31.96 641.812 31.624C642.204 31.28 642.688 31.008 643.264 30.808C643.848 30.6 644.52 30.496 645.28 30.496C646.128 30.496 646.9 30.636 647.596 30.916C648.292 31.196 648.872 31.564 649.336 32.02L648.664 33.088ZM654.77 30.688V43H651.794V30.688H654.77ZM655.178 27.1C655.178 27.356 655.126 27.596 655.022 27.82C654.918 28.044 654.778 28.24 654.602 28.408C654.434 28.576 654.234 28.712 654.002 28.816C653.77 28.912 653.522 28.96 653.258 28.96C653.002 28.96 652.758 28.912 652.526 28.816C652.302 28.712 652.106 28.576 651.938 28.408C651.77 28.24 651.634 28.044 651.53 27.82C651.434 27.596 651.386 27.356 651.386 27.1C651.386 26.836 651.434 26.588 651.53 26.356C651.634 26.124 651.77 25.924 651.938 25.756C652.106 25.588 652.302 25.456 652.526 25.36C652.758 25.256 653.002 25.204 653.258 25.204C653.522 25.204 653.77 25.256 654.002 25.36C654.234 25.456 654.434 25.588 654.602 25.756C654.778 25.924 654.918 26.124 655.022 26.356C655.126 26.588 655.178 26.836 655.178 27.1ZM662.292 36.544C662.66 36.544 662.98 36.496 663.252 36.4C663.524 36.296 663.748 36.156 663.924 35.98C664.108 35.804 664.244 35.592 664.332 35.344C664.428 35.096 664.476 34.824 664.476 34.528C664.476 33.92 664.292 33.44 663.924 33.088C663.564 32.728 663.02 32.548 662.292 32.548C661.564 32.548 661.016 32.728 660.648 33.088C660.288 33.44 660.108 33.92 660.108 34.528C660.108 34.816 660.152 35.084 660.24 35.332C660.336 35.58 660.472 35.796 660.648 35.98C660.832 36.156 661.06 36.296 661.332 36.4C661.612 36.496 661.932 36.544 662.292 36.544ZM665.64 43.552C665.64 43.312 665.568 43.116 665.424 42.964C665.28 42.812 665.084 42.696 664.836 42.616C664.588 42.528 664.296 42.464 663.96 42.424C663.632 42.384 663.28 42.356 662.904 42.34C662.536 42.316 662.152 42.296 661.752 42.28C661.36 42.264 660.976 42.232 660.6 42.184C660.272 42.368 660.004 42.584 659.796 42.832C659.596 43.08 659.496 43.368 659.496 43.696C659.496 43.912 659.548 44.112 659.652 44.296C659.764 44.488 659.936 44.652 660.168 44.788C660.408 44.924 660.716 45.028 661.092 45.1C661.468 45.18 661.928 45.22 662.472 45.22C663.024 45.22 663.5 45.176 663.9 45.088C664.3 45.008 664.628 44.892 664.884 44.74C665.148 44.596 665.34 44.42 665.46 44.212C665.58 44.012 665.64 43.792 665.64 43.552ZM668.592 31.108V32.212C668.592 32.564 668.38 32.78 667.956 32.86L666.852 33.064C667.02 33.488 667.104 33.952 667.104 34.456C667.104 35.064 666.98 35.616 666.732 36.112C666.492 36.6 666.156 37.016 665.724 37.36C665.292 37.704 664.78 37.972 664.188 38.164C663.604 38.348 662.972 38.44 662.292 38.44C662.052 38.44 661.82 38.428 661.596 38.404C661.372 38.38 661.152 38.348 660.936 38.308C660.552 38.54 660.36 38.8 660.36 39.088C660.36 39.336 660.472 39.52 660.696 39.64C660.928 39.752 661.232 39.832 661.608 39.88C661.984 39.928 662.412 39.96 662.892 39.976C663.372 39.984 663.864 40.008 664.368 40.048C664.872 40.088 665.364 40.16 665.844 40.264C666.324 40.36 666.752 40.516 667.128 40.732C667.504 40.948 667.804 41.244 668.028 41.62C668.26 41.988 668.376 42.464 668.376 43.048C668.376 43.592 668.24 44.12 667.968 44.632C667.704 45.144 667.316 45.6 666.804 46C666.3 46.4 665.676 46.72 664.932 46.96C664.196 47.208 663.356 47.332 662.412 47.332C661.484 47.332 660.676 47.24 659.988 47.056C659.3 46.88 658.728 46.64 658.272 46.336C657.816 46.04 657.476 45.696 657.252 45.304C657.028 44.912 656.916 44.504 656.916 44.08C656.916 43.504 657.088 43.024 657.432 42.64C657.784 42.248 658.264 41.936 658.872 41.704C658.544 41.536 658.284 41.312 658.092 41.032C657.9 40.752 657.804 40.384 657.804 39.928C657.804 39.744 657.836 39.556 657.9 39.364C657.972 39.164 658.072 38.968 658.2 38.776C658.336 38.584 658.504 38.404 658.704 38.236C658.904 38.06 659.14 37.904 659.412 37.768C658.788 37.432 658.296 36.984 657.936 36.424C657.584 35.864 657.408 35.208 657.408 34.456C657.408 33.848 657.528 33.3 657.768 32.812C658.016 32.316 658.356 31.896 658.788 31.552C659.228 31.2 659.744 30.932 660.336 30.748C660.936 30.564 661.588 30.472 662.292 30.472C662.82 30.472 663.316 30.528 663.78 30.64C664.244 30.744 664.668 30.9 665.052 31.108H668.592ZM673.244 32.2C673.492 31.952 673.752 31.724 674.024 31.516C674.304 31.3 674.596 31.12 674.9 30.976C675.212 30.824 675.544 30.708 675.896 30.628C676.248 30.54 676.632 30.496 677.048 30.496C677.72 30.496 678.316 30.612 678.836 30.844C679.356 31.068 679.788 31.388 680.132 31.804C680.484 32.212 680.748 32.704 680.924 33.28C681.108 33.848 681.2 34.476 681.2 35.164V43H678.236V35.164C678.236 34.412 678.064 33.832 677.72 33.424C677.376 33.008 676.852 32.8 676.148 32.8C675.636 32.8 675.156 32.916 674.708 33.148C674.26 33.38 673.836 33.696 673.436 34.096V43H670.472V30.688H672.284C672.668 30.688 672.92 30.868 673.04 31.228L673.244 32.2Z" fill="black"/>
</g>
<g filter="url(#filter2_d_271_751)">
<rect x="2" y="48" width="230" height="67" rx="12" fill="white"/>
<path d="M70.572 82.372C71.164 82.372 71.68 82.3 72.12 82.156C72.56 82.004 72.924 81.792 73.212 81.52C73.508 81.24 73.728 80.904 73.872 80.512C74.016 80.112 74.088 79.668 74.088 79.18C74.088 78.716 74.016 78.296 73.872 77.92C73.728 77.544 73.512 77.224 73.224 76.96C72.936 76.696 72.572 76.496 72.132 76.36C71.692 76.216 71.172 76.144 70.572 76.144H68.16V82.372H70.572ZM70.572 73.648C71.732 73.648 72.736 73.784 73.584 74.056C74.432 74.328 75.132 74.708 75.684 75.196C76.236 75.684 76.644 76.268 76.908 76.948C77.18 77.628 77.316 78.372 77.316 79.18C77.316 80.02 77.176 80.792 76.896 81.496C76.616 82.192 76.196 82.792 75.636 83.296C75.076 83.8 74.372 84.192 73.524 84.472C72.684 84.752 71.7 84.892 70.572 84.892H68.16V91H64.932V73.648H70.572ZM81.9319 80.824C82.3159 80.088 82.7719 79.512 83.2999 79.096C83.8279 78.672 84.4519 78.46 85.1719 78.46C85.7399 78.46 86.1959 78.584 86.5399 78.832L86.3479 81.052C86.3079 81.196 86.2479 81.3 86.1679 81.364C86.0959 81.42 85.9959 81.448 85.8679 81.448C85.7479 81.448 85.5679 81.428 85.3279 81.388C85.0959 81.348 84.8679 81.328 84.6439 81.328C84.3159 81.328 84.0239 81.376 83.7679 81.472C83.5119 81.568 83.2799 81.708 83.0719 81.892C82.8719 82.068 82.6919 82.284 82.5319 82.54C82.3799 82.796 82.2359 83.088 82.0999 83.416V91H79.1359V78.688H80.8759C81.1799 78.688 81.3919 78.744 81.5119 78.856C81.6319 78.96 81.7119 79.152 81.7519 79.432L81.9319 80.824ZM93.1854 78.496C94.0974 78.496 94.9254 78.644 95.6694 78.94C96.4214 79.236 97.0614 79.656 97.5894 80.2C98.1254 80.744 98.5374 81.408 98.8254 82.192C99.1134 82.976 99.2574 83.852 99.2574 84.82C99.2574 85.796 99.1134 86.676 98.8254 87.46C98.5374 88.244 98.1254 88.912 97.5894 89.464C97.0614 90.016 96.4214 90.44 95.6694 90.736C94.9254 91.032 94.0974 91.18 93.1854 91.18C92.2654 91.18 91.4294 91.032 90.6774 90.736C89.9254 90.44 89.2814 90.016 88.7454 89.464C88.2174 88.912 87.8054 88.244 87.5094 87.46C87.2214 86.676 87.0774 85.796 87.0774 84.82C87.0774 83.852 87.2214 82.976 87.5094 82.192C87.8054 81.408 88.2174 80.744 88.7454 80.2C89.2814 79.656 89.9254 79.236 90.6774 78.94C91.4294 78.644 92.2654 78.496 93.1854 78.496ZM93.1854 88.9C94.2094 88.9 94.9654 88.556 95.4534 87.868C95.9494 87.18 96.1974 86.172 96.1974 84.844C96.1974 83.516 95.9494 82.504 95.4534 81.808C94.9654 81.112 94.2094 80.764 93.1854 80.764C92.1454 80.764 91.3734 81.116 90.8694 81.82C90.3734 82.516 90.1254 83.524 90.1254 84.844C90.1254 86.164 90.3734 87.172 90.8694 87.868C91.3734 88.556 92.1454 88.9 93.1854 88.9ZM105.388 91.192C104.316 91.192 103.492 90.892 102.916 90.292C102.348 89.684 102.064 88.848 102.064 87.784V80.908H100.804C100.644 80.908 100.508 80.856 100.396 80.752C100.284 80.648 100.228 80.492 100.228 80.284V79.108L102.208 78.784L102.832 75.424C102.872 75.264 102.948 75.14 103.06 75.052C103.172 74.964 103.316 74.92 103.492 74.92H105.028V78.796H108.316V80.908H105.028V87.58C105.028 87.964 105.12 88.264 105.304 88.48C105.496 88.696 105.756 88.804 106.084 88.804C106.268 88.804 106.42 88.784 106.54 88.744C106.668 88.696 106.776 88.648 106.864 88.6C106.96 88.552 107.044 88.508 107.116 88.468C107.188 88.42 107.26 88.396 107.332 88.396C107.42 88.396 107.492 88.42 107.548 88.468C107.604 88.508 107.664 88.572 107.728 88.66L108.616 90.1C108.184 90.46 107.688 90.732 107.128 90.916C106.568 91.1 105.988 91.192 105.388 91.192ZM115.568 78.496C116.48 78.496 117.308 78.644 118.052 78.94C118.804 79.236 119.444 79.656 119.972 80.2C120.508 80.744 120.92 81.408 121.208 82.192C121.496 82.976 121.64 83.852 121.64 84.82C121.64 85.796 121.496 86.676 121.208 87.46C120.92 88.244 120.508 88.912 119.972 89.464C119.444 90.016 118.804 90.44 118.052 90.736C117.308 91.032 116.48 91.18 115.568 91.18C114.648 91.18 113.812 91.032 113.06 90.736C112.308 90.44 111.664 90.016 111.128 89.464C110.6 88.912 110.188 88.244 109.892 87.46C109.604 86.676 109.46 85.796 109.46 84.82C109.46 83.852 109.604 82.976 109.892 82.192C110.188 81.408 110.6 80.744 111.128 80.2C111.664 79.656 112.308 79.236 113.06 78.94C113.812 78.644 114.648 78.496 115.568 78.496ZM115.568 88.9C116.592 88.9 117.348 88.556 117.836 87.868C118.332 87.18 118.58 86.172 118.58 84.844C118.58 83.516 118.332 82.504 117.836 81.808C117.348 81.112 116.592 80.764 115.568 80.764C114.528 80.764 113.756 81.116 113.252 81.82C112.756 82.516 112.508 83.524 112.508 84.844C112.508 86.164 112.756 87.172 113.252 87.868C113.756 88.556 114.528 88.9 115.568 88.9ZM127.771 91.192C126.699 91.192 125.875 90.892 125.299 90.292C124.731 89.684 124.447 88.848 124.447 87.784V80.908H123.187C123.027 80.908 122.891 80.856 122.779 80.752C122.667 80.648 122.611 80.492 122.611 80.284V79.108L124.591 78.784L125.215 75.424C125.255 75.264 125.331 75.14 125.443 75.052C125.555 74.964 125.699 74.92 125.875 74.92H127.411V78.796H130.699V80.908H127.411V87.58C127.411 87.964 127.503 88.264 127.687 88.48C127.879 88.696 128.139 88.804 128.467 88.804C128.651 88.804 128.803 88.784 128.923 88.744C129.051 88.696 129.159 88.648 129.247 88.6C129.343 88.552 129.427 88.508 129.499 88.468C129.571 88.42 129.643 88.396 129.715 88.396C129.803 88.396 129.875 88.42 129.931 88.468C129.987 88.508 130.047 88.572 130.111 88.66L130.999 90.1C130.567 90.46 130.071 90.732 129.511 90.916C128.951 91.1 128.371 91.192 127.771 91.192ZM143.781 78.688L137.073 94.384C136.985 94.592 136.869 94.748 136.725 94.852C136.589 94.964 136.377 95.02 136.089 95.02H133.881L136.185 90.076L131.205 78.688H133.809C134.041 78.688 134.221 78.744 134.349 78.856C134.485 78.968 134.585 79.096 134.649 79.24L137.265 85.624C137.353 85.84 137.425 86.056 137.481 86.272C137.545 86.488 137.605 86.708 137.661 86.932C137.733 86.708 137.805 86.488 137.877 86.272C137.949 86.048 138.029 85.828 138.117 85.612L140.589 79.24C140.653 79.08 140.757 78.948 140.901 78.844C141.053 78.74 141.221 78.688 141.405 78.688H143.781ZM148.217 87.808C148.553 88.216 148.917 88.504 149.309 88.672C149.709 88.84 150.141 88.924 150.605 88.924C151.053 88.924 151.457 88.84 151.817 88.672C152.177 88.504 152.481 88.248 152.729 87.904C152.985 87.56 153.181 87.128 153.317 86.608C153.453 86.08 153.521 85.46 153.521 84.748C153.521 84.028 153.461 83.42 153.341 82.924C153.229 82.42 153.065 82.012 152.849 81.7C152.633 81.388 152.369 81.16 152.057 81.016C151.753 80.872 151.405 80.8 151.013 80.8C150.397 80.8 149.873 80.932 149.441 81.196C149.009 81.452 148.601 81.816 148.217 82.288V87.808ZM148.061 80.368C148.565 79.8 149.137 79.34 149.777 78.988C150.417 78.636 151.169 78.46 152.033 78.46C152.705 78.46 153.317 78.6 153.869 78.88C154.429 79.16 154.909 79.568 155.309 80.104C155.717 80.632 156.029 81.288 156.245 82.072C156.469 82.848 156.581 83.74 156.581 84.748C156.581 85.668 156.457 86.52 156.209 87.304C155.961 88.088 155.605 88.768 155.141 89.344C154.685 89.92 154.129 90.372 153.473 90.7C152.825 91.02 152.097 91.18 151.289 91.18C150.601 91.18 150.013 91.076 149.525 90.868C149.037 90.652 148.601 90.356 148.217 89.98V95.02H145.253V78.688H147.065C147.449 78.688 147.701 78.868 147.821 79.228L148.061 80.368ZM166.826 83.428C166.826 83.044 166.77 82.684 166.658 82.348C166.554 82.004 166.394 81.704 166.178 81.448C165.962 81.192 165.686 80.992 165.35 80.848C165.022 80.696 164.638 80.62 164.198 80.62C163.342 80.62 162.666 80.864 162.17 81.352C161.682 81.84 161.37 82.532 161.234 83.428H166.826ZM161.174 85.216C161.222 85.848 161.334 86.396 161.51 86.86C161.686 87.316 161.918 87.696 162.206 88C162.494 88.296 162.834 88.52 163.226 88.672C163.626 88.816 164.066 88.888 164.546 88.888C165.026 88.888 165.438 88.832 165.782 88.72C166.134 88.608 166.438 88.484 166.694 88.348C166.958 88.212 167.186 88.088 167.378 87.976C167.578 87.864 167.77 87.808 167.954 87.808C168.202 87.808 168.386 87.9 168.506 88.084L169.358 89.164C169.03 89.548 168.662 89.872 168.254 90.136C167.846 90.392 167.418 90.6 166.97 90.76C166.53 90.912 166.078 91.02 165.614 91.084C165.158 91.148 164.714 91.18 164.282 91.18C163.426 91.18 162.63 91.04 161.894 90.76C161.158 90.472 160.518 90.052 159.974 89.5C159.43 88.94 159.002 88.252 158.69 87.436C158.378 86.612 158.222 85.66 158.222 84.58C158.222 83.74 158.358 82.952 158.63 82.216C158.902 81.472 159.29 80.828 159.794 80.284C160.306 79.732 160.926 79.296 161.654 78.976C162.39 78.656 163.218 78.496 164.138 78.496C164.914 78.496 165.63 78.62 166.286 78.868C166.942 79.116 167.506 79.48 167.978 79.96C168.45 80.432 168.818 81.016 169.082 81.712C169.354 82.4 169.49 83.188 169.49 84.076C169.49 84.524 169.442 84.828 169.346 84.988C169.25 85.14 169.066 85.216 168.794 85.216H161.174Z" fill="black"/>
</g>
<g filter="url(#filter3_d_271_751)">
<rect x="486" y="326" width="234" height="67" rx="12" fill="white"/>
<path d="M534.654 366.396C535.278 366.396 535.834 366.292 536.322 366.084C536.818 365.876 537.234 365.584 537.57 365.208C537.906 364.832 538.162 364.376 538.338 363.84C538.522 363.304 538.614 362.704 538.614 362.04V351.648H541.842V362.04C541.842 363.072 541.674 364.028 541.338 364.908C541.01 365.78 540.534 366.536 539.91 367.176C539.294 367.808 538.542 368.304 537.654 368.664C536.766 369.016 535.766 369.192 534.654 369.192C533.534 369.192 532.53 369.016 531.642 368.664C530.754 368.304 529.998 367.808 529.374 367.176C528.758 366.536 528.282 365.78 527.946 364.908C527.618 364.028 527.454 363.072 527.454 362.04V351.648H530.682V362.028C530.682 362.692 530.77 363.292 530.946 363.828C531.13 364.364 531.39 364.824 531.726 365.208C532.07 365.584 532.486 365.876 532.974 366.084C533.47 366.292 534.03 366.396 534.654 366.396ZM559.583 369H556.367C556.143 369 555.963 368.944 555.827 368.832C555.699 368.72 555.595 368.592 555.515 368.448L551.495 361.788C551.431 361.988 551.355 362.16 551.267 362.304L547.415 368.448C547.319 368.584 547.207 368.712 547.079 368.832C546.959 368.944 546.799 369 546.599 369H543.587L549.347 360.072L543.815 351.648H547.031C547.255 351.648 547.415 351.68 547.511 351.744C547.615 351.8 547.711 351.896 547.799 352.032L551.747 358.392C551.827 358.192 551.923 357.992 552.035 357.792L555.659 352.092C555.747 351.94 555.843 351.828 555.947 351.756C556.051 351.684 556.183 351.648 556.343 351.648H559.427L553.847 359.94L559.583 369ZM590.344 351.648L584.956 369H582.04L578.248 357.144C578.144 356.856 578.048 356.504 577.96 356.088C577.912 356.288 577.864 356.476 577.816 356.652C577.768 356.828 577.716 356.992 577.66 357.144L573.832 369H570.904L565.528 351.648H568.228C568.508 351.648 568.74 351.716 568.924 351.852C569.116 351.98 569.244 352.156 569.308 352.38L572.26 362.76C572.324 363.016 572.384 363.296 572.44 363.6C572.504 363.896 572.568 364.208 572.632 364.536C572.696 364.2 572.764 363.884 572.836 363.588C572.916 363.292 573 363.016 573.088 362.76L576.496 352.38C576.56 352.196 576.684 352.028 576.868 351.876C577.06 351.724 577.292 351.648 577.564 351.648H578.512C578.792 351.648 579.02 351.716 579.196 351.852C579.372 351.988 579.504 352.164 579.592 352.38L582.988 362.76C583.156 363.256 583.308 363.828 583.444 364.476C583.548 363.844 583.664 363.272 583.792 362.76L586.744 352.38C586.792 352.18 586.912 352.008 587.104 351.864C587.304 351.72 587.54 351.648 587.812 351.648H590.344ZM594.962 356.688V369H591.986V356.688H594.962ZM595.37 353.1C595.37 353.356 595.318 353.596 595.214 353.82C595.11 354.044 594.97 354.24 594.794 354.408C594.626 354.576 594.426 354.712 594.194 354.816C593.962 354.912 593.714 354.96 593.45 354.96C593.194 354.96 592.95 354.912 592.718 354.816C592.494 354.712 592.298 354.576 592.13 354.408C591.962 354.24 591.826 354.044 591.722 353.82C591.626 353.596 591.578 353.356 591.578 353.1C591.578 352.836 591.626 352.588 591.722 352.356C591.826 352.124 591.962 351.924 592.13 351.756C592.298 351.588 592.494 351.456 592.718 351.36C592.95 351.256 593.194 351.204 593.45 351.204C593.714 351.204 593.962 351.256 594.194 351.36C594.426 351.456 594.626 351.588 594.794 351.756C594.97 351.924 595.11 352.124 595.214 352.356C595.318 352.588 595.37 352.836 595.37 353.1ZM600.78 358.824C601.164 358.088 601.62 357.512 602.148 357.096C602.676 356.672 603.3 356.46 604.02 356.46C604.588 356.46 605.044 356.584 605.388 356.832L605.196 359.052C605.156 359.196 605.096 359.3 605.016 359.364C604.944 359.42 604.844 359.448 604.716 359.448C604.596 359.448 604.416 359.428 604.176 359.388C603.944 359.348 603.716 359.328 603.492 359.328C603.164 359.328 602.872 359.376 602.616 359.472C602.36 359.568 602.128 359.708 601.92 359.892C601.72 360.068 601.54 360.284 601.38 360.54C601.228 360.796 601.084 361.088 600.948 361.416V369H597.984V356.688H599.724C600.028 356.688 600.24 356.744 600.36 356.856C600.48 356.96 600.56 357.152 600.6 357.432L600.78 358.824ZM614.517 361.428C614.517 361.044 614.461 360.684 614.349 360.348C614.245 360.004 614.085 359.704 613.869 359.448C613.653 359.192 613.377 358.992 613.041 358.848C612.713 358.696 612.329 358.62 611.889 358.62C611.033 358.62 610.357 358.864 609.861 359.352C609.373 359.84 609.061 360.532 608.925 361.428H614.517ZM608.865 363.216C608.913 363.848 609.025 364.396 609.201 364.86C609.377 365.316 609.609 365.696 609.897 366C610.185 366.296 610.525 366.52 610.917 366.672C611.317 366.816 611.757 366.888 612.237 366.888C612.717 366.888 613.129 366.832 613.473 366.72C613.825 366.608 614.129 366.484 614.385 366.348C614.649 366.212 614.877 366.088 615.069 365.976C615.269 365.864 615.461 365.808 615.645 365.808C615.893 365.808 616.077 365.9 616.197 366.084L617.049 367.164C616.721 367.548 616.353 367.872 615.945 368.136C615.537 368.392 615.109 368.6 614.661 368.76C614.221 368.912 613.769 369.02 613.305 369.084C612.849 369.148 612.405 369.18 611.973 369.18C611.117 369.18 610.321 369.04 609.585 368.76C608.849 368.472 608.209 368.052 607.665 367.5C607.121 366.94 606.693 366.252 606.381 365.436C606.069 364.612 605.913 363.66 605.913 362.58C605.913 361.74 606.049 360.952 606.321 360.216C606.593 359.472 606.981 358.828 607.485 358.284C607.997 357.732 608.617 357.296 609.345 356.976C610.081 356.656 610.909 356.496 611.829 356.496C612.605 356.496 613.321 356.62 613.977 356.868C614.633 357.116 615.197 357.48 615.669 357.96C616.141 358.432 616.509 359.016 616.773 359.712C617.045 360.4 617.181 361.188 617.181 362.076C617.181 362.524 617.133 362.828 617.037 362.988C616.941 363.14 616.757 363.216 616.485 363.216H608.865ZM620.082 369V358.92L619.014 358.752C618.782 358.704 618.594 358.624 618.45 358.512C618.314 358.392 618.246 358.224 618.246 358.008V356.796H620.082V355.884C620.082 355.18 620.186 354.548 620.394 353.988C620.61 353.428 620.914 352.952 621.306 352.56C621.706 352.168 622.19 351.868 622.758 351.66C623.326 351.452 623.966 351.348 624.678 351.348C625.246 351.348 625.774 351.424 626.262 351.576L626.202 353.064C626.194 353.176 626.162 353.268 626.106 353.34C626.05 353.404 625.974 353.456 625.878 353.496C625.79 353.528 625.686 353.552 625.566 353.568C625.446 353.576 625.318 353.58 625.182 353.58C624.83 353.58 624.514 353.62 624.234 353.7C623.962 353.772 623.73 353.904 623.538 354.096C623.346 354.28 623.198 354.528 623.094 354.84C622.998 355.144 622.95 355.524 622.95 355.98V356.796H626.154V358.908H623.046V369H620.082ZM630.615 358.824C630.999 358.088 631.455 357.512 631.983 357.096C632.511 356.672 633.135 356.46 633.855 356.46C634.423 356.46 634.879 356.584 635.223 356.832L635.031 359.052C634.991 359.196 634.931 359.3 634.851 359.364C634.779 359.42 634.679 359.448 634.551 359.448C634.431 359.448 634.251 359.428 634.011 359.388C633.779 359.348 633.551 359.328 633.327 359.328C632.999 359.328 632.707 359.376 632.451 359.472C632.195 359.568 631.963 359.708 631.755 359.892C631.555 360.068 631.375 360.284 631.215 360.54C631.063 360.796 630.919 361.088 630.783 361.416V369H627.819V356.688H629.559C629.863 356.688 630.075 356.744 630.195 356.856C630.315 356.96 630.395 357.152 630.435 357.432L630.615 358.824ZM643.113 363.744C642.257 363.784 641.537 363.86 640.953 363.972C640.369 364.076 639.901 364.212 639.549 364.38C639.197 364.548 638.945 364.744 638.793 364.968C638.641 365.192 638.565 365.436 638.565 365.7C638.565 366.22 638.717 366.592 639.021 366.816C639.333 367.04 639.737 367.152 640.233 367.152C640.841 367.152 641.365 367.044 641.805 366.828C642.253 366.604 642.689 366.268 643.113 365.82V363.744ZM636.321 358.404C637.737 357.108 639.441 356.46 641.433 356.46C642.153 356.46 642.797 356.58 643.365 356.82C643.933 357.052 644.413 357.38 644.805 357.804C645.197 358.22 645.493 358.72 645.693 359.304C645.901 359.888 646.005 360.528 646.005 361.224V369H644.661C644.381 369 644.165 368.96 644.013 368.88C643.861 368.792 643.741 368.62 643.653 368.364L643.389 367.476C643.077 367.756 642.773 368.004 642.477 368.22C642.181 368.428 641.873 368.604 641.553 368.748C641.233 368.892 640.889 369 640.521 369.072C640.161 369.152 639.761 369.192 639.321 369.192C638.801 369.192 638.321 369.124 637.881 368.988C637.441 368.844 637.061 368.632 636.741 368.352C636.421 368.072 636.173 367.724 635.997 367.308C635.821 366.892 635.733 366.408 635.733 365.856C635.733 365.544 635.785 365.236 635.889 364.932C635.993 364.62 636.161 364.324 636.393 364.044C636.633 363.764 636.941 363.5 637.317 363.252C637.693 363.004 638.153 362.788 638.697 362.604C639.249 362.42 639.889 362.272 640.617 362.16C641.345 362.04 642.177 361.968 643.113 361.944V361.224C643.113 360.4 642.937 359.792 642.585 359.4C642.233 359 641.725 358.8 641.061 358.8C640.581 358.8 640.181 358.856 639.861 358.968C639.549 359.08 639.273 359.208 639.033 359.352C638.793 359.488 638.573 359.612 638.373 359.724C638.181 359.836 637.965 359.892 637.725 359.892C637.517 359.892 637.341 359.84 637.197 359.736C637.053 359.624 636.937 359.496 636.849 359.352L636.321 358.404ZM648.796 369V356.688H650.608C650.992 356.688 651.244 356.868 651.364 357.228L651.556 358.14C651.772 357.9 651.996 357.68 652.228 357.48C652.468 357.28 652.72 357.108 652.984 356.964C653.256 356.82 653.544 356.708 653.848 356.628C654.16 356.54 654.5 356.496 654.868 356.496C655.644 356.496 656.28 356.708 656.776 357.132C657.28 357.548 657.656 358.104 657.904 358.8C658.096 358.392 658.336 358.044 658.624 357.756C658.912 357.46 659.228 357.22 659.572 357.036C659.916 356.852 660.28 356.716 660.664 356.628C661.056 356.54 661.448 356.496 661.84 356.496C662.52 356.496 663.124 356.6 663.652 356.808C664.18 357.016 664.624 357.32 664.984 357.72C665.344 358.12 665.616 358.608 665.8 359.184C665.992 359.76 666.088 360.42 666.088 361.164V369H663.124V361.164C663.124 360.38 662.952 359.792 662.608 359.4C662.264 359 661.76 358.8 661.096 358.8C660.792 358.8 660.508 358.852 660.244 358.956C659.988 359.06 659.76 359.212 659.56 359.412C659.368 359.604 659.216 359.848 659.104 360.144C658.992 360.44 658.936 360.78 658.936 361.164V369H655.96V361.164C655.96 360.34 655.792 359.74 655.456 359.364C655.128 358.988 654.644 358.8 654.004 358.8C653.572 358.8 653.168 358.908 652.792 359.124C652.424 359.332 652.08 359.62 651.76 359.988V369H648.796ZM676.837 361.428C676.837 361.044 676.781 360.684 676.669 360.348C676.565 360.004 676.405 359.704 676.189 359.448C675.973 359.192 675.697 358.992 675.361 358.848C675.033 358.696 674.649 358.62 674.209 358.62C673.353 358.62 672.677 358.864 672.181 359.352C671.693 359.84 671.381 360.532 671.245 361.428H676.837ZM671.185 363.216C671.233 363.848 671.345 364.396 671.521 364.86C671.697 365.316 671.929 365.696 672.217 366C672.505 366.296 672.845 366.52 673.237 366.672C673.637 366.816 674.077 366.888 674.557 366.888C675.037 366.888 675.449 366.832 675.793 366.72C676.145 366.608 676.449 366.484 676.705 366.348C676.969 366.212 677.197 366.088 677.389 365.976C677.589 365.864 677.781 365.808 677.965 365.808C678.213 365.808 678.397 365.9 678.517 366.084L679.369 367.164C679.041 367.548 678.673 367.872 678.265 368.136C677.857 368.392 677.429 368.6 676.981 368.76C676.541 368.912 676.089 369.02 675.625 369.084C675.169 369.148 674.725 369.18 674.293 369.18C673.437 369.18 672.641 369.04 671.905 368.76C671.169 368.472 670.529 368.052 669.985 367.5C669.441 366.94 669.013 366.252 668.701 365.436C668.389 364.612 668.233 363.66 668.233 362.58C668.233 361.74 668.369 360.952 668.641 360.216C668.913 359.472 669.301 358.828 669.805 358.284C670.317 357.732 670.937 357.296 671.665 356.976C672.401 356.656 673.229 356.496 674.149 356.496C674.925 356.496 675.641 356.62 676.297 356.868C676.953 357.116 677.517 357.48 677.989 357.96C678.461 358.432 678.829 359.016 679.093 359.712C679.365 360.4 679.501 361.188 679.501 362.076C679.501 362.524 679.453 362.828 679.357 362.988C679.261 363.14 679.077 363.216 678.805 363.216H671.185Z" fill="black"/>
</g>
<defs>
<filter id="filter0_d_271_751" x="123" y="453" width="270" height="75" filterUnits="userSpaceOnUse" color-interpolation-filters="sRGB">
<feFlood flood-opacity="0" result="BackgroundImageFix"/>
<feColorMatrix in="SourceAlpha" type="matrix" values="0 0 0 0 0 0 0 0 0 0 0 0 0 0 0 0 0 0 127 0" result="hardAlpha"/>
<feOffset dx="2" dy="4"/>
<feGaussianBlur stdDeviation="2"/>
<feComposite in2="hardAlpha" operator="out"/>
<feColorMatrix type="matrix" values="0 0 0 0 0 0 0 0 0 0 0 0 0 0 0 0 0 0 0.25 0"/>
<feBlend mode="normal" in2="BackgroundImageFix" result="effect1_dropShadow_271_751"/>
<feBlend mode="normal" in="SourceGraphic" in2="effect1_dropShadow_271_751" result="shape"/>
</filter>
<filter id="filter1_d_271_751" x="511" y="0" width="242" height="75" filterUnits="userSpaceOnUse" color-interpolation-filters="sRGB">
<feFlood flood-opacity="0" result="BackgroundImageFix"/>
<feColorMatrix in="SourceAlpha" type="matrix" values="0 0 0 0 0 0 0 0 0 0 0 0 0 0 0 0 0 0 127 0" result="hardAlpha"/>
<feOffset dx="2" dy="4"/>
<feGaussianBlur stdDeviation="2"/>
<feComposite in2="hardAlpha" operator="out"/>
<feColorMatrix type="matrix" values="0 0 0 0 0 0 0 0 0 0 0 0 0 0 0 0 0 0 0.25 0"/>
<feBlend mode="normal" in2="BackgroundImageFix" result="effect1_dropShadow_271_751"/>
<feBlend mode="normal" in="SourceGraphic" in2="effect1_dropShadow_271_751" result="shape"/>
</filter>
<filter id="filter2_d_271_751" x="0" y="48" width="238" height="75" filterUnits="userSpaceOnUse" color-interpolation-filters="sRGB">
<feFlood flood-opacity="0" result="BackgroundImageFix"/>
<feColorMatrix in="SourceAlpha" type="matrix" values="0 0 0 0 0 0 0 0 0 0 0 0 0 0 0 0 0 0 127 0" result="hardAlpha"/>
<feOffset dx="2" dy="4"/>
<feGaussianBlur stdDeviation="2"/>
<feComposite in2="hardAlpha" operator="out"/>
<feColorMatrix type="matrix" values="0 0 0 0 0 0 0 0 0 0 0 0 0 0 0 0 0 0 0.25 0"/>
<feBlend mode="normal" in2="BackgroundImageFix" result="effect1_dropShadow_271_751"/>
<feBlend mode="normal" in="SourceGraphic" in2="effect1_dropShadow_271_751" result="shape"/>
</filter>
<filter id="filter3_d_271_751" x="484" y="326" width="242" height="75" filterUnits="userSpaceOnUse" color-interpolation-filters="sRGB">
<feFlood flood-opacity="0" result="BackgroundImageFix"/>
<feColorMatrix in="SourceAlpha" type="matrix" values="0 0 0 0 0 0 0 0 0 0 0 0 0 0 0 0 0 0 127 0" result="hardAlpha"/>
<feOffset dx="2" dy="4"/>
<feGaussianBlur stdDeviation="2"/>
<feComposite in2="hardAlpha" operator="out"/>
<feColorMatrix type="matrix" values="0 0 0 0 0 0 0 0 0 0 0 0 0 0 0 0 0 0 0.25 0"/>
<feBlend mode="normal" in2="BackgroundImageFix" result="effect1_dropShadow_271_751"/>
<feBlend mode="normal" in="SourceGraphic" in2="effect1_dropShadow_271_751" result="shape"/>
</filter>
</defs>
</svg>
