<svg xmlns="http://www.w3.org/2000/svg" xmlns:xlink="http://www.w3.org/1999/xlink" width="500" zoomAndPan="magnify" viewBox="0 0 375 374.999991" height="500" preserveAspectRatio="xMidYMid meet" version="1.0"><defs><g/><clipPath id="daa76afa4a"><path d="M 90 93 L 266 93 L 266 241 L 90 241 Z M 90 93 " clip-rule="nonzero"/></clipPath><clipPath id="5b4b9a0861"><path d="M 88.359375 95.007812 L 262.328125 91.535156 L 265.230469 237.003906 L 91.265625 240.480469 Z M 88.359375 95.007812 " clip-rule="nonzero"/></clipPath><clipPath id="8beba476ce"><path d="M 88.359375 95.007812 L 330.5625 90.171875 L 335.292969 327.125 L 93.09375 331.960938 Z M 88.359375 95.007812 " clip-rule="nonzero"/></clipPath></defs><rect x="-37.5" width="450" fill="#ffffff" y="-37.499999" height="449.999989" fill-opacity="1"/><rect x="-37.5" width="450" fill="#000000" y="-37.499999" height="449.999989" fill-opacity="1"/><path fill="#14ffec" d="M 125.527344 106.90625 C 108.914062 114.75 97.476562 122.816406 89.632812 132.429688 C 81.800781 142.03125 77.527344 153.207031 75.226562 167.292969 C 72.640625 183.128906 72.546875 202.617188 78.425781 221.460938 C 83.027344 236.210938 91.292969 250.570312 104.894531 262.46875 C 120.894531 276.46875 144.277344 287.082031 168.78125 291.898438 C 191.769531 296.417969 215.722656 295.835938 235.460938 288.152344 C 254.707031 280.664062 269.96875 266.410156 280.949219 248.941406 C 293.214844 229.425781 300.136719 205.902344 301.304688 183.300781 C 302.449219 161.222656 298.101562 140.039062 288.671875 123.007812 C 279.828125 107.03125 266.507812 94.710938 249.042969 88.738281 C 233.0625 83.277344 213.59375 83.117188 193.96875 85.996094 C 169.160156 89.636719 144.117188 98.128906 125.527344 106.90625 Z M 88.558594 131.558594 C 96.542969 121.773438 108.132812 113.589844 124.9375 105.652344 C 143.632812 96.824219 168.816406 88.285156 193.765625 84.625 C 213.589844 81.71875 233.28125 81.886719 249.488281 87.425781 C 267.296875 93.515625 280.875 106.070312 289.882812 122.339844 C 299.4375 139.601562 303.84375 161.042969 302.6875 183.371094 C 301.507812 206.195312 294.515625 229.957031 282.121094 249.679688 C 270.992188 267.382812 255.507812 281.835938 235.960938 289.445312 C 215.964844 297.226562 191.742188 297.824219 168.515625 293.261719 C 143.785156 288.398438 120.164062 277.671875 103.984375 263.511719 C 90.167969 251.421875 81.773438 236.84375 77.101562 221.871094 C 71.152344 202.796875 71.246094 183.082031 73.859375 167.070312 C 76.203125 152.746094 80.5625 141.363281 88.558594 131.558594 " fill-opacity="1" fill-rule="nonzero"/><path fill="#14ffec" d="M 99.769531 112.03125 C 93.125 123.125 88.101562 136.273438 85.890625 150.308594 C 83.910156 162.890625 84.1875 176.179688 87.589844 189.339844 C 91.183594 203.257812 98.265625 217.035156 107.6875 229.203125 C 117.121094 241.394531 128.898438 251.960938 141.855469 259.433594 C 154.664062 266.820312 168.636719 271.183594 182.429688 272.566406 C 196.496094 273.976562 210.375 272.285156 222.648438 267.542969 C 234.390625 263.007812 244.671875 255.671875 253.328125 246.4375 C 262.59375 236.542969 269.992188 224.464844 275.304688 211.296875 C 280.328125 198.855469 283.492188 185.441406 284.917969 172.15625 C 286.417969 158.210938 286.007812 144.40625 283.832031 132.011719 C 281.714844 119.941406 277.921875 109.21875 271.730469 100.210938 C 265.542969 91.21875 256.949219 83.921875 245.214844 78.6875 C 233.6875 73.539062 219.121094 70.382812 204.042969 69.167969 C 188.300781 67.902344 172.015625 68.753906 158.054688 71.679688 C 144.410156 74.535156 132.984375 79.371094 123.394531 86.121094 C 113.8125 92.867188 106.0625 101.523438 99.769531 112.03125 Z M 84.523438 150.09375 C 86.761719 135.875 91.851562 122.558594 98.582031 111.320312 C 104.976562 100.648438 112.855469 91.847656 122.597656 84.988281 C 132.339844 78.132812 143.933594 73.222656 157.773438 70.324219 C 171.867188 67.371094 188.289062 66.507812 204.152344 67.785156 C 219.371094 69.011719 234.097656 72.207031 245.78125 77.421875 C 257.761719 82.769531 266.539062 90.226562 272.867188 99.425781 C 279.183594 108.613281 283.046875 119.519531 285.199219 131.773438 C 287.394531 144.289062 287.8125 158.226562 286.296875 172.300781 C 284.855469 185.710938 281.664062 199.25 276.589844 211.8125 C 271.214844 225.132812 263.722656 237.363281 254.335938 247.382812 C 245.546875 256.765625 235.09375 264.21875 223.148438 268.832031 C 210.667969 273.65625 196.570312 275.375 182.296875 273.941406 C 168.3125 272.542969 154.152344 268.117188 141.164062 260.632812 C 128.046875 253.066406 116.132812 242.375 106.589844 230.050781 C 97.058594 217.738281 89.890625 203.789062 86.25 189.6875 C 82.800781 176.335938 82.515625 162.851562 84.523438 150.09375 " fill-opacity="1" fill-rule="nonzero"/><g fill="#14ffec" fill-opacity="1"><g transform="translate(139.666753, 247.716692)"><g><path d="M 46.832031 -66.117188 C 85.917969 -66.117188 47.175781 0 109.847656 0 L 109.847656 -1.378906 C 97.796875 -1.378906 91.769531 -14.464844 85.054688 -29.613281 C 77.136719 -47.691406 70.9375 -67.492188 46.832031 -67.492188 C 40.460938 -67.492188 35.8125 -64.566406 32.886719 -61.640625 C 41.152344 -77.136719 52.34375 -90.222656 65.773438 -105.542969 C 66.289062 -105.542969 79.71875 -119.148438 91.769531 -121.558594 L 63.1875 -121.558594 C 72.140625 -115.015625 54.40625 -94.699219 54.40625 -94.699219 C 36.15625 -73.003906 23.242188 -53.890625 19.113281 -22.039062 L 19.113281 -121.558594 L 6.027344 -121.558594 L 6.027344 0 L 19.113281 0 C 19.113281 -22.554688 22.898438 -39.257812 29.269531 -53.890625 C 30.820312 -57.335938 36.15625 -66.117188 46.832031 -66.117188 Z M 46.832031 -66.117188 "/></g></g></g><g clip-path="url(#daa76afa4a)"><g clip-path="url(#5b4b9a0861)"><g clip-path="url(#8beba476ce)"><path fill="#14ffec" d="M 246.070312 162.742188 C 252.15625 162.621094 257.515625 165.90625 260.332031 170.84375 C 258.238281 150.367188 248.855469 132.113281 234.855469 118.664062 C 219.28125 103.695312 197.996094 94.671875 174.695312 95.140625 C 151.394531 95.605469 130.488281 105.46875 115.523438 121.046875 C 100.554688 136.621094 91.53125 157.90625 92 181.207031 C 92.464844 204.507812 102.328125 225.414062 117.90625 240.378906 C 133.480469 255.34375 154.761719 264.367188 178.066406 263.902344 C 179.859375 263.867188 181.617188 263.777344 183.339844 263.636719 C 185.082031 263.492188 186.824219 263.292969 188.570312 263.042969 L 188.625 263.035156 C 202.996094 261.15625 216.890625 256.804688 230.9375 252.402344 C 248.519531 246.894531 266.34375 241.308594 285.738281 240.34375 L 285.765625 240.339844 C 286.332031 240.28125 286.9375 240.234375 287.585938 240.195312 C 288.234375 240.15625 288.84375 240.128906 289.40625 240.117188 C 301.585938 239.875 312.714844 244.589844 320.855469 252.414062 C 328.996094 260.238281 334.15625 271.167969 334.398438 283.347656 C 334.640625 295.53125 329.925781 306.65625 322.101562 314.796875 C 314.277344 322.941406 303.347656 328.097656 291.167969 328.339844 C 290.65625 328.351562 290.230469 327.945312 290.222656 327.429688 C 290.210938 326.917969 290.617188 326.492188 291.132812 326.484375 C 302.800781 326.25 313.269531 321.3125 320.765625 313.511719 C 328.257812 305.710938 332.777344 295.050781 332.542969 283.382812 C 332.3125 271.714844 327.371094 261.246094 319.570312 253.75 C 311.773438 246.257812 301.113281 241.738281 289.445312 241.96875 C 288.808594 241.980469 288.226562 242.003906 287.691406 242.035156 C 287.144531 242.070312 286.558594 242.117188 285.945312 242.179688 C 285.90625 242.183594 285.871094 242.1875 285.835938 242.183594 C 266.675781 243.136719 248.960938 248.6875 231.484375 254.164062 C 217.355469 258.59375 203.378906 262.972656 188.867188 264.871094 L 188.828125 264.875 C 187.085938 265.128906 185.304688 265.328125 183.484375 265.480469 C 181.683594 265.625 179.890625 265.71875 178.101562 265.753906 C 154.289062 266.230469 132.535156 257.007812 116.617188 241.714844 C 100.703125 226.421875 90.617188 205.054688 90.140625 181.238281 C 89.664062 157.425781 98.886719 135.671875 114.183594 119.753906 C 129.476562 103.839844 150.84375 93.753906 174.65625 93.277344 C 198.472656 92.804688 220.222656 102.023438 236.140625 117.320312 C 252.058594 132.613281 262.144531 153.980469 262.617188 177.792969 C 262.621094 178.011719 262.550781 178.214844 262.425781 178.378906 L 262.429688 178.453125 C 262.605469 187.308594 255.570312 194.632812 246.714844 194.808594 C 237.855469 194.984375 230.535156 187.949219 230.359375 179.09375 C 230.183594 170.238281 237.21875 162.914062 246.074219 162.738281 Z M 246.070312 162.742188 " fill-opacity="1" fill-rule="evenodd"/></g></g></g></svg>