<svg width="895" height="289" viewBox="0 0 895 289" fill="none" xmlns="http://www.w3.org/2000/svg">
<path d="M880.5 154.5C880.5 172.832 868.33 190.393 846.091 206.448C823.862 222.494 791.665 236.966 751.835 249.128C672.179 273.449 562.105 288.5 440.5 288.5C318.895 288.5 208.821 273.449 129.165 249.128C89.3346 236.966 57.1376 222.494 34.9093 206.448C12.6695 190.393 0.5 172.832 0.5 154.5C0.5 136.168 12.6695 118.607 34.9093 102.552C57.1376 86.5055 89.3346 72.0341 129.165 59.8723C208.821 35.5507 318.895 20.5 440.5 20.5C562.105 20.5 672.179 35.5507 751.835 59.8723C791.665 72.0341 823.862 86.5055 846.091 102.552C868.33 118.607 880.5 136.168 880.5 154.5Z" stroke="url(#paint0_linear_251_612)"/>
<path d="M826.5 144.5C826.5 162.863 815.931 180.427 796.661 196.469C777.393 212.509 749.482 226.975 714.949 239.134C645.886 263.451 550.445 278.5 445 278.5C339.555 278.5 244.114 263.451 175.051 239.134C140.518 226.975 112.607 212.509 93.3393 196.469C74.0687 180.427 63.5 162.863 63.5 144.5C63.5 126.137 74.0687 108.573 93.3393 92.5308C112.607 76.4915 140.518 62.0248 175.051 49.8658C244.114 25.5493 339.555 10.5 445 10.5C550.445 10.5 645.886 25.5493 714.949 49.8658C749.482 62.0248 777.393 76.4915 796.661 92.5308C815.931 108.573 826.5 126.137 826.5 144.5Z" stroke="url(#paint1_linear_251_612)"/>
<path d="M802.5 134.5C802.5 152.882 792.877 170.45 775.354 186.485C757.831 202.52 732.448 216.983 701.039 229.14C638.225 253.452 551.414 268.5 455.5 268.5C359.586 268.5 272.775 253.452 209.961 229.14C178.552 216.983 153.169 202.52 135.646 186.485C118.123 170.45 108.5 152.882 108.5 134.5C108.5 116.118 118.123 98.55 135.646 82.5154C153.169 66.4805 178.552 52.0172 209.961 39.8604C272.775 15.5481 359.586 0.5 455.5 0.5C551.414 0.5 638.225 15.5481 701.039 39.8604C732.448 52.0172 757.831 66.4805 775.354 82.5154C792.877 98.55 802.5 116.118 802.5 134.5Z" stroke="url(#paint2_linear_251_612)"/>
<path d="M782.607 47.9912H772.393C771.624 47.9912 771 48.7188 771 49.6155V61.5272C771 62.424 771.624 63.1516 772.393 63.1516H782.607C783.376 63.1516 784 62.424 784 61.5272V49.6155C784 48.7188 783.376 47.9912 782.607 47.9912ZM778.075 59.8149C778.075 61.2904 777.332 61.9638 776.249 61.9638C775.271 61.9638 774.706 61.375 774.415 60.6609L775.411 59.9604C775.602 60.3564 775.776 60.6914 776.197 60.6914C776.598 60.6914 776.853 60.5087 776.853 59.7946V54.9521H778.075V59.8149ZM780.965 61.9638C779.83 61.9638 779.096 61.3343 778.739 60.5087L779.734 59.8386C779.996 60.3361 780.338 60.7049 780.939 60.7049C781.444 60.7049 781.769 60.4105 781.769 60.0011C781.769 59.5138 781.438 59.3412 780.878 59.0535L780.573 58.9012C779.691 58.4647 779.108 57.9131 779.108 56.7524C779.108 55.6831 779.807 54.8709 780.895 54.8709C781.673 54.8709 782.23 55.1856 782.63 56.0113L781.679 56.7219C781.47 56.2854 781.243 56.1128 780.892 56.1128C780.535 56.1128 780.309 56.3768 780.309 56.7219C780.309 57.1483 780.535 57.3209 781.06 57.5883L781.365 57.7405C782.404 58.2583 782.987 58.7896 782.987 59.9807C782.987 61.2599 782.123 61.9638 780.965 61.9638Z" fill="url(#paint3_linear_251_612)"/>
<path d="M886.996 152.948C886.756 152.948 886.513 152.869 886.302 152.72L884.092 151.115C883.763 150.886 883.924 150.807 884.031 150.763C884.472 150.574 884.561 150.535 885.03 150.205C885.081 150.17 885.145 150.183 885.195 150.222L886.893 151.458C886.953 151.502 887.039 151.502 887.097 151.458L893.711 146.771C893.772 146.727 893.811 146.639 893.811 146.551V137.177C893.811 137.085 893.772 137.001 893.707 136.953L887.097 132.271C887.036 132.227 886.953 132.227 886.893 132.271L880.286 136.957C880.221 137.001 880.182 137.089 880.182 137.182V146.551C880.182 146.639 880.221 146.727 880.286 146.767L882.098 148.05C883.082 148.653 883.684 147.945 883.684 147.228V137.978C883.684 137.846 883.77 137.744 883.877 137.744H884.715C884.819 137.744 884.909 137.846 884.909 137.978V147.233C884.909 148.842 884.192 149.765 882.95 149.765C882.567 149.765 882.266 149.765 881.428 149.255L879.695 148.028C879.265 147.725 879 147.158 879 146.547V137.177C879 136.571 879.265 135.999 879.695 135.696L886.302 131.009C886.721 130.718 887.276 130.718 887.691 131.009L894.305 135.7C894.735 136.003 895 136.571 895 137.182V146.551C895 147.158 894.735 147.725 894.305 148.033L887.691 152.72C887.48 152.869 887.24 152.948 886.996 152.948ZM892.336 143.711C892.336 141.957 891.369 141.491 889.338 141.161C887.283 140.827 887.075 140.655 887.075 140.066C887.075 139.578 887.251 138.927 888.773 138.927C890.13 138.927 890.631 139.288 890.839 140.413C890.857 140.519 890.936 140.598 891.025 140.598H891.885C891.938 140.598 891.988 140.572 892.024 140.523C892.06 140.475 892.078 140.409 892.074 140.343C891.942 138.404 890.893 137.503 888.773 137.503C886.885 137.503 885.761 138.479 885.761 140.119C885.761 141.895 886.882 142.387 888.69 142.607C890.857 142.867 891.025 143.258 891.025 143.781C891.025 144.687 890.431 145.074 889.038 145.074C887.286 145.074 886.903 144.533 886.774 143.465C886.76 143.35 886.681 143.267 886.585 143.267H885.729C885.621 143.267 885.539 143.372 885.539 143.5C885.539 144.867 886.144 146.498 889.041 146.498C891.132 146.494 892.336 145.478 892.336 143.711Z" fill="url(#paint4_linear_251_612)"/>
<path fill-rule="evenodd" clip-rule="evenodd" d="M202.035 260C200.353 260 199 261.646 199 263.662C199 264.888 199.501 265.977 200.27 266.642C199.873 266.988 199.552 267.438 199.331 267.955C199.111 268.473 198.997 269.043 199 269.621C199 270.848 199.501 271.936 200.27 272.6C199.873 272.947 199.552 273.397 199.331 273.914C199.111 274.431 198.997 275.002 199 275.579C199 277.596 200.353 279.242 202.035 279.242C203.717 279.242 205.071 277.596 205.071 275.579V272.483C205.602 273 206.272 273.283 206.965 273.284C208.647 273.283 210 271.637 210 269.621C210.003 269.043 209.889 268.473 209.669 267.955C209.448 267.438 209.127 266.988 208.73 266.642C209.127 266.295 209.448 265.845 209.669 265.328C209.889 264.811 210.003 264.24 210 263.662C210 261.646 208.647 260 206.965 260H202.035ZM200.141 263.662C200.141 262.387 200.994 261.365 202.035 261.365H203.929V265.959H202.035C200.994 265.959 200.141 264.937 200.141 263.662ZM206.965 265.959H205.071V261.365H206.965C208.006 261.365 208.859 262.387 208.859 263.662C208.859 264.937 208.006 265.959 206.965 265.959ZM200.141 269.621C200.141 268.346 200.995 267.324 202.036 267.324H203.93V271.918H202.035C200.994 271.918 200.141 270.896 200.141 269.621H200.141ZM205.071 269.621C205.071 268.346 205.924 267.324 206.965 267.324C208.007 267.324 208.86 268.345 208.86 269.621C208.86 270.896 208.007 271.918 206.965 271.918C205.924 271.918 205.071 270.896 205.071 269.621H205.071ZM200.141 275.579C200.141 274.305 200.995 273.283 202.036 273.283H203.93V275.579C203.93 276.855 203.078 277.876 202.036 277.876C200.995 277.876 200.141 276.855 200.141 275.579Z" fill="url(#paint5_linear_251_612)"/>
<path d="M837.334 150.615H828.256C827.01 150.615 826 151.793 826 153.246V163.437C826 164.89 827.01 166.068 828.256 166.068H837.334C838.58 166.068 839.591 164.89 839.591 163.437V153.246C839.591 151.793 838.58 150.615 837.334 150.615Z" fill="url(#paint6_linear_251_612)"/>
<path d="M833.144 154.68L831.449 157.944L833.263 161.41C833.275 161.434 833.278 161.463 833.272 161.49C833.269 161.501 833.263 161.504 833.254 161.505L833.244 161.504L833.231 161.504C833.224 161.504 833.217 161.504 833.208 161.506H831.9L831.875 161.506C831.804 161.503 831.753 161.492 831.722 161.431C831.601 161.156 831.48 160.882 831.358 160.607C831.248 160.363 831.136 160.12 831.021 159.879L830.97 159.773C830.832 159.487 830.697 159.2 830.564 158.912H830.555C830.433 159.197 830.307 159.481 830.177 159.762C830.046 160.046 829.917 160.328 829.789 160.607C829.662 160.888 829.531 161.166 829.397 161.442C829.376 161.498 829.34 161.51 829.29 161.512L829.27 161.512H828.021L828.015 161.513L827.997 161.514C827.988 161.515 827.982 161.513 827.98 161.495C827.976 161.469 827.981 161.443 827.993 161.421L829.753 158.05L828.039 154.669C828.021 154.641 828.018 154.618 828.03 154.6C828.037 154.591 828.045 154.584 828.054 154.58C828.064 154.575 828.074 154.573 828.085 154.574H829.37C829.398 154.572 829.426 154.577 829.452 154.59C829.474 154.604 829.493 154.624 829.507 154.648C829.616 154.932 829.738 155.215 829.872 155.499C830.004 155.78 830.139 156.06 830.277 156.339C830.413 156.613 830.539 156.893 830.656 157.179H830.665C830.784 156.893 830.907 156.609 831.034 156.328C831.158 156.052 831.286 155.773 831.417 155.493C831.546 155.217 831.672 154.939 831.795 154.659C831.802 154.633 831.815 154.609 831.832 154.59C831.854 154.576 831.879 154.571 831.905 154.574H833.099C833.11 154.571 833.121 154.572 833.132 154.577C833.142 154.582 833.151 154.591 833.157 154.602C833.162 154.614 833.165 154.627 833.163 154.64C833.162 154.653 833.157 154.665 833.149 154.675L833.145 154.68L833.144 154.68ZM835.824 161.643L835.761 161.644C835.341 161.651 834.926 161.55 834.544 161.346C834.188 161.154 833.891 160.841 833.691 160.448C833.49 160.058 833.387 159.572 833.382 158.991L833.381 158.944C833.378 158.456 833.485 157.975 833.691 157.551C833.898 157.131 834.199 156.785 834.563 156.55L834.594 156.53C834.989 156.275 835.466 156.147 836.025 156.147L836.05 156.148L836.078 156.149L836.109 156.15L836.144 156.153L836.202 156.157L836.269 156.164L836.317 156.169V154.074C836.317 154.024 836.335 154 836.372 154H837.521C837.528 153.998 837.536 153.999 837.543 154.002C837.55 154.005 837.556 154.009 837.562 154.016C837.567 154.022 837.571 154.029 837.573 154.038C837.576 154.046 837.576 154.055 837.575 154.063V160.347C837.575 160.452 837.579 160.566 837.586 160.688L837.603 160.964L837.612 161.123C837.613 161.145 837.608 161.167 837.598 161.186C837.589 161.205 837.574 161.22 837.557 161.229C837.261 161.374 836.952 161.48 836.636 161.548C836.368 161.606 836.096 161.638 835.824 161.643ZM836.317 160.326V157.423C836.268 157.408 836.218 157.397 836.167 157.391C836.105 157.384 836.042 157.38 835.98 157.381C835.759 157.378 835.54 157.436 835.342 157.551C835.148 157.663 834.984 157.831 834.863 158.04C834.743 158.245 834.68 158.513 834.676 158.844L834.676 158.88C834.672 159.111 834.704 159.342 834.772 159.56C834.827 159.736 834.914 159.895 835.027 160.028C835.135 160.15 835.266 160.241 835.41 160.294C835.562 160.351 835.72 160.38 835.879 160.379C835.965 160.379 836.044 160.375 836.117 160.368C836.175 160.363 836.232 160.352 836.289 160.335L836.317 160.326Z" fill="black"/>
<path fill-rule="evenodd" clip-rule="evenodd" d="M116.5 203C111.805 203 108 207.03 108 212C108 216.97 111.805 221 116.5 221C121.194 221 125 216.97 125 212C125 207.03 121.194 203 116.5 203ZM116.599 217.264C113.859 217.264 111.641 214.908 111.641 212C111.641 209.091 113.859 206.736 116.599 206.736C117.938 206.736 119.057 207.259 119.916 208.108L118.517 209.592V209.589C117.997 209.062 117.337 208.792 116.599 208.792C114.963 208.792 113.633 210.259 113.633 211.997C113.633 213.733 114.963 215.205 116.599 215.205C118.084 215.205 119.094 214.303 119.302 213.066H116.599V211.013H121.264C121.326 211.366 121.359 211.733 121.359 212.118C121.359 215.126 119.463 217.264 116.599 217.264Z" fill="url(#paint7_linear_251_612)"/>
<path d="M31.2117 188.976H33.101V189.913H32.0017V190.851H33.101V191.788H31.2117V188.976ZM33.4784 188.976H35.3685V189.791H34.2692V189.954H35.3685V191.829H33.4784V190.973H34.5777V190.81H33.4784V188.976ZM35.7466 188.976H37.6352V189.791H36.5359V189.954H37.6352V191.829H35.7466V190.973H36.8459V190.81H35.7466V188.976Z" fill="url(#paint8_linear_251_612)"/>
<path fill-rule="evenodd" clip-rule="evenodd" d="M34.4935 209.308L29.4784 207.685L28 193.077H41L39.5223 207.683L34.4935 209.308ZM30.9228 199.69L31.0608 201.481H36.3886L36.2102 203.804L34.4957 204.344H34.4942L32.7826 203.805L32.6728 202.377H31.1294L31.3446 205.19L34.4935 206.209L37.6474 205.19L38.0317 200.17L38.0692 199.69L38.3466 196.063H30.6462L30.7863 197.855H36.6623L36.5222 199.69H30.9228Z" fill="url(#paint9_linear_251_612)"/>
<path d="M187.501 27.6299H198.501V41.1062H187.501V27.6299ZM187 41.7361H199V27H187V41.7361ZM194.86 32.2521C194.86 32.2019 194.875 32.1765 194.92 32.1765H195.705C195.745 32.1765 195.765 32.1954 195.765 32.2521V37.2208C195.765 37.271 195.755 37.2964 195.705 37.2964H194.931C194.881 37.2964 194.866 37.2651 194.866 37.2144V32.2521H194.86H194.86ZM194.805 30.8228C194.805 30.6524 194.859 30.489 194.955 30.3686C195.05 30.2481 195.18 30.1804 195.315 30.1804C195.45 30.1804 195.58 30.2481 195.676 30.3686C195.771 30.489 195.825 30.6524 195.825 30.8228C195.83 30.9098 195.82 30.9971 195.795 31.0787C195.771 31.1603 195.733 31.2342 195.683 31.2953C195.634 31.3564 195.574 31.4033 195.509 31.4326C195.444 31.4619 195.374 31.473 195.305 31.4651C195.238 31.4704 195.17 31.4574 195.107 31.4268C195.044 31.3962 194.986 31.3488 194.939 31.2879C194.892 31.2269 194.855 31.1538 194.832 31.0736C194.809 30.9933 194.8 30.9078 194.806 30.8228H194.805ZM192.555 34.3243C192.415 33.6226 192.084 32.1015 191.96 31.3647H191.95C191.845 32.1015 191.581 33.3484 191.371 34.3243H192.555ZM191.165 35.3445L190.77 37.2338C190.76 37.284 190.745 37.2969 190.695 37.2969H189.961C189.911 37.2969 189.901 37.278 189.911 37.2025L191.331 30.941C191.365 30.7703 191.382 30.5946 191.381 30.4185C191.381 30.3742 191.396 30.3553 191.421 30.3553H192.471C192.506 30.3553 192.521 30.3677 192.531 30.4185L194.121 37.2133C194.131 37.2635 194.121 37.2953 194.081 37.2953H193.251C193.211 37.2953 193.186 37.2829 193.176 37.2413L192.766 35.3456H191.166L191.165 35.3445Z" fill="url(#paint10_linear_251_612)"/>
<path fill-rule="evenodd" clip-rule="evenodd" d="M82 65.567C82 65.2358 82.1107 64.9182 82.3077 64.6841C82.5047 64.4499 82.7719 64.3184 83.0505 64.3184H93.5224C93.6604 64.3181 93.7972 64.3502 93.9248 64.4128C94.0524 64.4755 94.1684 64.5674 94.2661 64.6834C94.3638 64.7994 94.4413 64.9371 94.4941 65.0887C94.5469 65.2404 94.5741 65.4029 94.574 65.567V78.0139C94.5742 78.1781 94.5471 78.3406 94.4943 78.4923C94.4416 78.644 94.3642 78.7819 94.2665 78.898C94.1689 79.0141 94.053 79.1061 93.9254 79.1689C93.7978 79.2317 93.661 79.264 93.5229 79.2639H83.0505C82.9125 79.2639 82.7758 79.2316 82.6484 79.1688C82.5209 79.106 82.405 79.014 82.3075 78.898C82.2099 78.7819 82.1326 78.6442 82.0798 78.4926C82.027 78.3411 81.9999 78.1786 82 78.0146V65.567ZM86.977 70.0167H88.6797V71.033C88.9254 70.4488 89.5541 69.9229 90.4989 69.9229C92.3101 69.9229 92.7393 71.0867 92.7393 73.2218V77.177H90.9064V73.7083C90.9064 72.4922 90.6606 71.8061 90.0365 71.8061C89.1706 71.8061 88.8105 72.5459 88.8105 73.7083V77.177H86.977V70.0167ZM83.8335 77.0839H85.667V69.9229H83.8335V77.0832V77.0839ZM85.9294 67.5874C85.9328 67.774 85.9049 67.9595 85.8472 68.1331C85.7895 68.3067 85.7032 68.4648 85.5934 68.5982C85.4836 68.7317 85.3525 68.8377 85.2078 68.91C85.063 68.9824 84.9076 69.0197 84.7506 69.0197C84.5935 69.0197 84.4381 68.9824 84.2934 68.91C84.1486 68.8377 84.0175 68.7317 83.9077 68.5982C83.7979 68.4648 83.7116 68.3067 83.6539 68.1331C83.5962 67.9595 83.5683 67.774 83.5718 67.5874C83.5785 67.2211 83.7057 66.8726 83.926 66.6164C84.1464 66.3602 84.4423 66.2167 84.7506 66.2167C85.0588 66.2167 85.3548 66.3602 85.5751 66.6164C85.7954 66.8726 85.9226 67.2211 85.9294 67.5874Z" fill="url(#paint11_linear_251_612)"/>
<path d="M657.845 266H645.169C643.426 266 642 267.426 642 269.169V281.845C642 283.588 643.426 285.014 645.169 285.014H657.845C659.588 285.014 661.014 283.588 661.014 281.845V269.169C661.014 267.426 659.588 266 657.845 266ZM651.11 275.675C650.45 276.335 649.413 276.645 648.241 276.645C647.931 276.645 647.648 276.632 647.433 276.591V280.012H645.79V271.055C646.382 270.948 647.204 270.867 648.322 270.867C649.534 270.867 650.423 271.123 651.002 271.608C651.541 272.052 651.891 272.766 651.891 273.615C651.891 274.477 651.622 275.19 651.11 275.675ZM654.557 280.147C653.763 280.147 653.049 279.959 652.564 279.689L652.887 278.49C653.264 278.719 653.978 278.962 654.571 278.962C655.298 278.962 655.622 278.666 655.622 278.234C655.622 277.79 655.352 277.561 654.544 277.278C653.264 276.834 652.726 276.133 652.739 275.366C652.739 274.207 653.695 273.305 655.217 273.305C655.945 273.305 656.578 273.493 656.955 273.695L656.632 274.867C656.349 274.706 655.823 274.49 655.244 274.49C654.652 274.49 654.328 274.773 654.328 275.177C654.328 275.595 654.638 275.797 655.473 276.093C656.659 276.524 657.211 277.13 657.224 278.1C657.224 279.285 656.295 280.147 654.557 280.147ZM650.234 273.682C650.234 274.746 649.48 275.352 648.241 275.352C647.904 275.352 647.635 275.339 647.433 275.285V272.214C647.608 272.173 647.931 272.133 648.389 272.133C649.534 272.133 650.234 272.672 650.234 273.682Z" fill="url(#paint12_linear_251_612)"/>
<path d="M115.465 130.453C115.54 130.461 115.608 130.473 115.673 130.49L115.664 130.488V133.681C115.586 133.704 115.496 133.721 115.403 133.728H115.399C115.295 133.736 115.19 133.74 115.085 133.739C115.082 133.739 115.079 133.739 115.076 133.739C114.856 133.739 114.645 133.705 114.448 133.641L114.462 133.646C114.264 133.584 114.094 133.484 113.955 133.353L113.956 133.354C113.81 133.212 113.695 133.04 113.621 132.849L113.617 132.839C113.537 132.63 113.49 132.389 113.49 132.138C113.49 132.121 113.49 132.104 113.49 132.088V132.09C113.488 132.06 113.487 132.024 113.487 131.987C113.487 131.391 113.844 130.876 114.363 130.632L114.372 130.628C114.613 130.51 114.897 130.44 115.199 130.44C115.205 130.44 115.212 130.44 115.218 130.44H115.217C115.3 130.441 115.382 130.445 115.465 130.453V130.453ZM117.308 134.676C116.959 134.821 116.55 134.943 116.126 135.021L116.088 135.027C115.74 135.093 115.339 135.131 114.929 135.132H114.928C114.912 135.132 114.892 135.133 114.873 135.133C114.308 135.133 113.773 135.012 113.293 134.796L113.316 134.805C112.84 134.589 112.454 134.248 112.193 133.828L112.187 133.817C111.927 133.374 111.774 132.843 111.774 132.278C111.774 132.237 111.775 132.197 111.776 132.157V132.162C111.776 132.155 111.776 132.147 111.776 132.138C111.776 131.583 111.929 131.064 112.195 130.615L112.187 130.63C112.473 130.153 112.879 129.771 113.367 129.515L113.384 129.507C113.902 129.24 114.516 129.083 115.169 129.083C115.263 129.083 115.356 129.086 115.449 129.093L115.436 129.092C115.501 129.096 115.577 129.102 115.665 129.11V126.805C115.665 126.75 115.69 126.723 115.738 126.723H117.259C117.261 126.723 117.265 126.723 117.268 126.723C117.3 126.723 117.327 126.746 117.332 126.776V126.777C117.332 126.78 117.332 126.782 117.332 126.785C117.332 126.788 117.332 126.792 117.332 126.795V126.794V133.708C117.332 133.841 117.338 133.985 117.35 134.141C117.362 134.297 117.372 134.437 117.38 134.562C117.38 134.565 117.38 134.567 117.38 134.57C117.38 134.618 117.35 134.659 117.308 134.678L117.308 134.678V134.676ZM111.547 134.981H109.832C109.712 134.981 109.626 134.976 109.578 134.899C109.417 134.595 109.256 134.292 109.095 133.992C108.929 133.683 108.758 133.377 108.582 133.073C108.399 132.76 108.22 132.443 108.044 132.125H108.032C107.87 132.439 107.703 132.751 107.531 133.061C107.359 133.373 107.188 133.683 107.018 133.991C106.85 134.3 106.677 134.606 106.5 134.91C106.467 134.98 106.41 134.988 106.329 134.988H104.676C104.643 134.988 104.625 135 104.622 134.969C104.621 134.964 104.62 134.958 104.62 134.952C104.62 134.928 104.628 134.905 104.64 134.887L106.971 131.179L104.7 127.46C104.676 127.429 104.671 127.404 104.688 127.382C104.704 127.364 104.728 127.353 104.754 127.353C104.756 127.353 104.758 127.353 104.761 127.354H104.76H106.463C106.467 127.354 106.47 127.354 106.474 127.354C106.509 127.354 106.543 127.36 106.574 127.372L106.572 127.371C106.602 127.388 106.626 127.41 106.644 127.435L106.644 127.436C106.789 127.748 106.95 128.06 107.127 128.372C107.305 128.684 107.484 128.992 107.664 129.296C107.845 129.601 108.012 129.909 108.166 130.221H108.178C108.337 129.901 108.5 129.589 108.667 129.285C108.833 128.98 109.002 128.674 109.174 128.366C109.347 128.057 109.514 127.751 109.675 127.448C109.685 127.417 109.701 127.391 109.723 127.371C109.747 127.359 109.774 127.353 109.803 127.353C109.809 127.353 109.815 127.353 109.82 127.353H109.82H111.401C111.406 127.352 111.412 127.352 111.418 127.352C111.456 127.352 111.487 127.382 111.487 127.418C111.487 127.439 111.477 127.458 111.462 127.47L111.462 127.473L109.216 131.064L111.619 134.877C111.629 134.894 111.635 134.915 111.635 134.936C111.635 134.947 111.633 134.957 111.63 134.966C111.623 134.993 111.595 134.975 111.546 134.983L111.547 134.981ZM116.126 123H105.874C103.734 123 102 124.68 102 126.752V136.248C102 138.32 103.735 140 105.874 140H116.126C118.266 140 120 138.32 120 136.248V126.752C120 124.68 118.265 123 116.126 123Z" fill="url(#paint13_linear_251_612)"/>
<path d="M14.8934 130.81C15.0315 130.963 15.0642 131.226 14.992 131.598C14.9166 131.986 14.7714 132.262 14.5562 132.428C14.3408 132.594 14.0132 132.677 13.5734 132.677H12.9097L13.3171 130.58H14.0646C14.4792 130.58 14.7553 130.657 14.8934 130.81ZM5.54956 130.58H4.80209L4.39465 132.677H5.05828C5.49803 132.677 5.82568 132.594 6.04107 132.428C6.25632 132.262 6.40151 131.986 6.47695 131.598C6.54916 131.225 6.51637 130.963 6.37831 130.81C6.24025 130.657 5.9641 130.58 5.54956 130.58ZM19 132C19 134.761 14.7466 137 9.5 137C4.25336 137 0 134.761 0 132C0 129.239 4.25336 127 9.5 127C14.7466 127 19 129.239 19 132ZM7.3636 132.345C7.47663 132.143 7.55705 131.919 7.60465 131.674C7.71999 131.08 7.63294 130.618 7.34348 130.286C7.05417 129.955 6.59371 129.789 5.96269 129.789H3.86477L2.89146 134.8H3.98245L4.24116 133.468H5.1757C5.58793 133.468 5.92714 133.425 6.19344 133.338C6.4597 133.251 6.70168 133.106 6.91953 132.902C7.10228 132.734 7.25023 132.548 7.3636 132.345ZM11.2035 133.468L11.6564 131.136C11.7485 130.662 11.6794 130.319 11.4492 130.107C11.2188 129.895 10.8004 129.789 10.1936 129.789H9.22939L9.48821 128.457H8.40585L7.43235 133.468H8.51471L9.0723 130.597H9.93741C10.2143 130.597 10.3954 130.643 10.4804 130.735C10.5655 130.826 10.5835 130.998 10.5345 131.251L10.1039 133.468H11.2035V133.468ZM15.8585 130.286C15.5693 129.955 15.1088 129.789 14.4778 129.789H12.3798L11.4065 134.8H12.4975L12.7562 133.468H13.6907C14.1029 133.468 14.4422 133.425 14.7085 133.338C14.9747 133.251 15.2167 133.106 15.4345 132.902C15.6175 132.734 15.7653 132.548 15.8786 132.345C15.9918 132.143 16.072 131.919 16.1197 131.674C16.235 131.08 16.148 130.618 15.8585 130.286Z" fill="url(#paint14_linear_251_612)"/>
<path fill-rule="evenodd" clip-rule="evenodd" d="M820.884 222.955C820.925 223.259 820.948 223.584 820.948 223.934C820.948 225.609 820.793 225.703 817.314 235.759C820.146 234.108 822.051 231.04 822.051 227.526C822.051 225.869 821.628 224.312 820.884 222.955ZM812.693 228.359L809.835 236.663C811.764 237.231 813.808 237.173 815.689 236.512C815.663 236.471 815.64 236.427 815.621 236.38L812.693 228.359ZM818.956 227.045C818.956 225.867 818.533 225.052 818.17 224.417C817.688 223.632 817.235 222.969 817.235 222.184C817.235 221.308 817.9 220.493 818.835 220.493C818.877 220.493 818.917 220.499 818.958 220.5C817.264 218.948 815.006 218 812.526 218C809.198 218 806.27 219.707 804.567 222.293C805.174 222.312 805.988 222.32 807.719 222.185C808.232 222.154 808.292 222.908 807.78 222.968C807.78 222.968 807.264 223.03 806.689 223.06L810.158 233.378L812.243 227.126L810.759 223.059C810.246 223.03 809.76 222.968 809.76 222.968C809.247 222.938 809.307 222.153 809.82 222.184C811.789 222.335 812.797 222.347 814.868 222.184C815.381 222.153 815.442 222.907 814.929 222.968C814.929 222.968 814.412 223.03 813.838 223.059L817.281 233.299C818.64 228.757 818.956 227.997 818.956 227.045ZM803 227.526C803 231.296 805.191 234.554 808.369 236.099L803.825 223.649C803.296 224.834 803 226.144 803 227.526Z" fill="url(#paint15_linear_251_612)"/>
<path d="M722.418 68C721.289 68 720.276 67.6858 719.409 67.0777C718.552 66.4696 717.91 65.598 717.491 64.4831C717.247 63.8345 717.101 63.125 717.033 62.3142C716.955 61.3514 717.014 60.3682 717.218 59.4054C717.54 57.8547 718.192 56.5169 719.146 55.402C720.091 54.3074 721.211 53.5676 722.486 53.223C723.032 53.0709 723.577 53 724.093 53C724.716 53 725.33 53.1115 725.914 53.3345C726.781 53.6689 727.375 54.2466 727.657 55.0574C727.793 55.4324 727.832 55.8277 727.793 56.2736C727.735 56.902 727.54 57.4595 727.209 57.9358C726.829 58.4831 726.372 58.8176 725.817 58.9595C725.719 58.9899 725.612 59 725.495 59C725.447 59 725.408 59 725.359 58.9899C725.193 58.9696 725.047 58.8986 724.95 58.7669C724.853 58.6351 724.814 58.4628 724.833 58.2905C724.862 58.0878 724.94 57.9155 725.018 57.7736L725.047 57.7128C725.203 57.3885 725.349 57.0845 725.427 56.7601C725.554 56.2128 725.554 55.7973 725.417 55.4122C725.271 55.0068 724.999 54.7534 724.59 54.652C724.434 54.6115 724.278 54.5912 724.122 54.5912C723.772 54.5912 723.402 54.6824 723.012 54.8649C722.243 55.2297 721.59 55.8378 721.035 56.7196C720.656 57.3277 720.363 58.0068 720.149 58.7973C719.993 59.3649 719.896 59.9628 719.838 60.5811C719.808 60.875 719.789 61.2196 719.789 61.5541C719.799 62.5372 719.935 63.3176 720.227 64.0068C720.548 64.777 720.987 65.3142 721.581 65.6588C721.98 65.8919 722.428 66.0135 722.905 66.0135C722.983 66.0135 723.071 66.0135 723.158 66.0034C724.171 65.9223 725.067 65.4459 725.885 64.5541C726.303 64.098 726.654 63.5709 726.956 62.9426C727.005 62.8514 727.053 62.75 727.131 62.6689C727.229 62.5574 727.355 62.4966 727.491 62.4966C727.657 62.4966 727.803 62.5878 727.9 62.75C728.017 62.9527 728.008 63.1757 727.988 63.3176C727.93 63.7331 727.784 64.1385 727.54 64.6149C726.839 65.9223 725.875 66.8851 724.677 67.4831C724.064 67.7872 723.402 67.9595 722.72 67.9899C722.613 68 722.515 68 722.418 68Z" fill="url(#paint16_linear_251_612)"/>
<path d="M789.555 178.201C789.555 178.201 787.19 184.578 779.049 183.093C778.92 183.069 778.798 183.025 778.673 182.987C778.644 182.979 778.615 182.969 778.586 182.961C778.463 182.923 778.342 182.884 778.222 182.842C778.208 182.837 778.195 182.833 778.181 182.828C778.072 182.789 777.963 182.749 777.855 182.707C777.827 182.696 777.799 182.686 777.771 182.674C777.655 182.628 777.54 182.58 777.426 182.531C777.405 182.521 777.385 182.512 777.363 182.503C777.263 182.458 777.165 182.412 777.067 182.365C777.042 182.353 777.016 182.341 776.991 182.329C776.977 182.322 776.962 182.315 776.947 182.308C776.884 182.276 776.823 182.243 776.76 182.211C776.713 182.186 776.664 182.162 776.616 182.136C776.528 182.088 776.441 182.04 776.355 181.99C776.323 181.971 776.291 181.954 776.259 181.935C776.142 181.866 776.025 181.795 775.911 181.722C775.879 181.702 775.847 181.68 775.815 181.658C775.74 181.61 775.666 181.562 775.593 181.511C775.585 181.506 775.578 181.5 775.57 181.495C775.542 181.476 775.515 181.456 775.487 181.436C775.41 181.382 775.333 181.327 775.258 181.272C775.221 181.244 775.185 181.216 775.149 181.189C775.08 181.137 775.012 181.083 774.945 181.029C774.911 181.002 774.877 180.976 774.844 180.949C774.761 180.881 774.679 180.812 774.599 180.742C774.584 180.729 774.568 180.716 774.552 180.702C774.551 180.701 774.549 180.7 774.548 180.699C774.457 180.619 774.367 180.537 774.279 180.453C774.252 180.429 774.225 180.403 774.198 180.377C774.132 180.314 774.066 180.249 774.002 180.184C773.975 180.158 773.949 180.132 773.923 180.105C773.84 180.019 773.757 179.933 773.677 179.846C773.674 179.842 773.671 179.839 773.667 179.835C773.666 179.834 773.664 179.832 773.663 179.83C773.58 179.739 773.499 179.647 773.42 179.554C773.398 179.528 773.376 179.501 773.354 179.474C773.295 179.403 773.237 179.333 773.18 179.261C773.157 179.231 773.133 179.201 773.11 179.171C773.046 179.088 772.983 179.005 772.921 178.921C772.91 178.905 772.898 178.889 772.887 178.874C772.884 178.871 772.882 178.868 772.881 178.866C772.81 178.768 772.742 178.668 772.674 178.568C772.654 178.537 772.634 178.506 772.614 178.474C772.565 178.4 772.518 178.326 772.471 178.251C772.447 178.213 772.424 178.175 772.401 178.136C772.359 178.066 772.318 177.996 772.278 177.926C772.256 177.886 772.233 177.847 772.211 177.806C772.199 177.784 772.186 177.762 772.174 177.739C772.153 177.701 772.134 177.662 772.114 177.623C772.082 177.563 772.05 177.502 772.02 177.44C770.734 174.869 770.524 171.722 772.207 169.302L773.521 167.635C772.039 170.501 772.705 173.99 774.56 176.519C774.627 176.611 774.695 176.702 774.765 176.793C774.787 176.82 774.809 176.848 774.831 176.874C774.889 176.949 774.949 177.022 775.009 177.095C775.03 177.12 775.052 177.145 775.074 177.171C775.154 177.266 775.237 177.361 775.321 177.453C775.325 177.457 775.329 177.461 775.333 177.466C775.413 177.553 775.494 177.639 775.577 177.724C775.602 177.75 775.629 177.775 775.655 177.801C775.72 177.868 775.786 177.932 775.854 177.996C775.879 178.022 775.905 178.046 775.931 178.071C776.022 178.156 776.114 178.24 776.208 178.323C776.218 178.331 776.228 178.339 776.237 178.347C776.323 178.422 776.411 178.496 776.5 178.569C776.531 178.594 776.562 178.619 776.594 178.644C776.664 178.7 776.734 178.755 776.805 178.809C776.839 178.835 776.874 178.862 776.909 178.888C776.986 178.945 777.064 179.001 777.143 179.057C777.17 179.075 777.196 179.095 777.223 179.113C777.304 179.169 777.387 179.224 777.471 179.278C777.502 179.298 777.533 179.32 777.564 179.34C777.679 179.413 777.795 179.484 777.913 179.553C777.943 179.571 777.973 179.587 778.003 179.604C778.091 179.655 778.18 179.705 778.27 179.754C778.319 179.781 778.369 179.805 778.419 179.832C778.493 179.87 778.567 179.908 778.642 179.945C778.67 179.959 778.698 179.972 778.725 179.985C778.821 180.031 778.917 180.075 779.013 180.119C779.036 180.129 779.059 180.139 779.082 180.149C779.194 180.199 779.308 180.246 779.423 180.291C779.453 180.303 779.483 180.314 779.512 180.326C779.617 180.367 779.722 180.406 779.829 180.444C779.845 180.449 779.862 180.456 779.878 180.461C779.997 180.502 780.116 180.541 780.237 180.578C780.268 180.588 780.299 180.597 780.33 180.606C780.454 180.643 780.576 180.682 780.703 180.711C784.043 181.471 787.569 180.788 789.555 178.201ZM777.77 174.112C777.952 174.374 778.155 174.685 778.397 174.895C778.484 174.992 778.576 175.086 778.67 175.179C778.693 175.203 778.718 175.226 778.742 175.25C778.833 175.338 778.925 175.425 779.021 175.509C779.025 175.512 779.028 175.516 779.032 175.519C779.033 175.52 779.034 175.52 779.035 175.521C779.141 175.614 779.25 175.703 779.361 175.791C779.385 175.81 779.41 175.83 779.435 175.849C779.546 175.934 779.66 176.018 779.776 176.098C779.779 176.1 779.782 176.103 779.786 176.105C779.837 176.141 779.889 176.174 779.941 176.208C779.966 176.224 779.99 176.241 780.015 176.256C780.098 176.31 780.182 176.362 780.268 176.412C780.28 176.419 780.292 176.425 780.304 176.432C780.377 176.475 780.452 176.516 780.527 176.557C780.553 176.572 780.58 176.585 780.606 176.598C780.658 176.625 780.71 176.653 780.762 176.679C780.77 176.683 780.779 176.687 780.786 176.69C780.893 176.743 781.002 176.794 781.112 176.842C781.136 176.852 781.16 176.861 781.184 176.871C781.273 176.909 781.362 176.946 781.451 176.98C781.489 176.994 781.528 177.008 781.566 177.022C781.647 177.052 781.729 177.08 781.811 177.107C781.848 177.119 781.885 177.131 781.922 177.143C782.039 177.179 782.155 177.225 782.277 177.245C788.563 178.287 790.014 173.447 790.014 173.447C788.706 175.331 786.172 176.23 783.469 175.528C783.349 175.497 783.231 175.462 783.113 175.425C783.077 175.414 783.042 175.403 783.006 175.391C782.922 175.364 782.839 175.335 782.757 175.305C782.719 175.291 782.681 175.277 782.644 175.263C782.554 175.228 782.465 175.193 782.377 175.155C782.352 175.145 782.328 175.135 782.304 175.124C782.193 175.076 782.084 175.025 781.976 174.972C781.921 174.945 781.867 174.916 781.812 174.888C781.78 174.872 781.749 174.856 781.717 174.839C781.647 174.801 781.577 174.762 781.509 174.722C781.493 174.713 781.476 174.704 781.459 174.694C781.374 174.644 781.29 174.593 781.207 174.54C781.182 174.524 781.157 174.506 781.131 174.489C781.076 174.454 781.022 174.418 780.968 174.381C780.852 174.301 780.739 174.218 780.628 174.133C780.603 174.113 780.577 174.093 780.552 174.073C779.368 173.138 778.431 171.862 777.984 170.414C777.517 168.912 777.618 167.227 778.428 165.859L777.433 167.264C776.216 169.016 776.282 171.361 777.231 173.214C777.391 173.524 777.57 173.826 777.77 174.112ZM784.395 171.945C784.447 171.964 784.499 171.981 784.551 171.999C784.574 172.006 784.597 172.014 784.62 172.021C784.694 172.044 784.768 172.071 784.844 172.086C788.315 172.756 789.256 170.304 789.507 169.944C788.682 171.131 787.297 171.416 785.596 171.003C785.462 170.971 785.314 170.922 785.184 170.876C785.018 170.817 784.855 170.75 784.696 170.673C784.394 170.528 784.106 170.352 783.839 170.151C782.318 168.996 781.373 166.794 782.366 165L781.828 165.741C781.111 166.797 781.04 168.108 781.538 169.275C782.063 170.513 783.139 171.485 784.395 171.945Z" fill="url(#paint17_linear_251_612)"/>
<defs>
<linearGradient id="paint0_linear_251_612" x1="440.5" y1="20" x2="440.5" y2="289" gradientUnits="userSpaceOnUse">
<stop stop-opacity="0"/>
<stop offset="0.479167" stop-color="#0D7377"/>
</linearGradient>
<linearGradient id="paint1_linear_251_612" x1="445" y1="10" x2="445" y2="279" gradientUnits="userSpaceOnUse">
<stop stop-opacity="0"/>
<stop offset="0.479167" stop-color="#0D7377"/>
</linearGradient>
<linearGradient id="paint2_linear_251_612" x1="455.5" y1="0" x2="455.5" y2="269" gradientUnits="userSpaceOnUse">
<stop stop-opacity="0"/>
<stop offset="0.479167" stop-color="#0D7377"/>
</linearGradient>
<linearGradient id="paint3_linear_251_612" x1="777.5" y1="47.9912" x2="777.5" y2="63.1516" gradientUnits="userSpaceOnUse">
<stop stop-color="#14FFEC" stop-opacity="0.5"/>
<stop offset="1" stop-color="#0D7377"/>
</linearGradient>
<linearGradient id="paint4_linear_251_612" x1="887" y1="130.791" x2="887" y2="152.948" gradientUnits="userSpaceOnUse">
<stop stop-color="#14FFEC" stop-opacity="0.5"/>
<stop offset="1" stop-color="#0D7377"/>
</linearGradient>
<linearGradient id="paint5_linear_251_612" x1="204.5" y1="260" x2="204.5" y2="279.242" gradientUnits="userSpaceOnUse">
<stop stop-color="#14FFEC" stop-opacity="0.5"/>
<stop offset="1" stop-color="#0D7377"/>
</linearGradient>
<linearGradient id="paint6_linear_251_612" x1="832.795" y1="150.615" x2="832.795" y2="166.068" gradientUnits="userSpaceOnUse">
<stop stop-color="#14FFEC" stop-opacity="0.5"/>
<stop offset="1" stop-color="#0D7377"/>
</linearGradient>
<linearGradient id="paint7_linear_251_612" x1="116.5" y1="203" x2="116.5" y2="221" gradientUnits="userSpaceOnUse">
<stop stop-color="#14FFEC" stop-opacity="0.5"/>
<stop offset="1" stop-color="#0D7377"/>
</linearGradient>
<linearGradient id="paint8_linear_251_612" x1="34.4235" y1="188.976" x2="34.4235" y2="191.829" gradientUnits="userSpaceOnUse">
<stop stop-color="#14FFEC" stop-opacity="0.5"/>
<stop offset="1" stop-color="#0D7377"/>
</linearGradient>
<linearGradient id="paint9_linear_251_612" x1="34.5" y1="193.077" x2="34.5" y2="209.308" gradientUnits="userSpaceOnUse">
<stop stop-color="#14FFEC" stop-opacity="0.5"/>
<stop offset="1" stop-color="#0D7377"/>
</linearGradient>
<linearGradient id="paint10_linear_251_612" x1="193" y1="27" x2="193" y2="41.7361" gradientUnits="userSpaceOnUse">
<stop stop-color="#14FFEC" stop-opacity="0.5"/>
<stop offset="1" stop-color="#0D7377"/>
</linearGradient>
<linearGradient id="paint11_linear_251_612" x1="88.287" y1="64.3184" x2="88.287" y2="79.2639" gradientUnits="userSpaceOnUse">
<stop stop-color="#14FFEC" stop-opacity="0.5"/>
<stop offset="1" stop-color="#0D7377"/>
</linearGradient>
<linearGradient id="paint12_linear_251_612" x1="651.507" y1="266" x2="651.507" y2="285.014" gradientUnits="userSpaceOnUse">
<stop stop-color="#14FFEC" stop-opacity="0.5"/>
<stop offset="1" stop-color="#0D7377"/>
</linearGradient>
<linearGradient id="paint13_linear_251_612" x1="111" y1="123" x2="111" y2="140" gradientUnits="userSpaceOnUse">
<stop stop-color="#14FFEC" stop-opacity="0.5"/>
<stop offset="1" stop-color="#0D7377"/>
</linearGradient>
<linearGradient id="paint14_linear_251_612" x1="9.5" y1="127" x2="9.5" y2="137" gradientUnits="userSpaceOnUse">
<stop stop-color="#14FFEC" stop-opacity="0.5"/>
<stop offset="1" stop-color="#0D7377"/>
</linearGradient>
<linearGradient id="paint15_linear_251_612" x1="812.526" y1="218" x2="812.526" y2="237.052" gradientUnits="userSpaceOnUse">
<stop stop-color="#14FFEC" stop-opacity="0.5"/>
<stop offset="1" stop-color="#0D7377"/>
</linearGradient>
<linearGradient id="paint16_linear_251_612" x1="722.5" y1="53" x2="722.5" y2="68" gradientUnits="userSpaceOnUse">
<stop stop-color="#14FFEC" stop-opacity="0.5"/>
<stop offset="1" stop-color="#0D7377"/>
</linearGradient>
<linearGradient id="paint17_linear_251_612" x1="780.507" y1="165" x2="780.507" y2="183.317" gradientUnits="userSpaceOnUse">
<stop stop-color="#14FFEC" stop-opacity="0.5"/>
<stop offset="1" stop-color="#0D7377"/>
</linearGradient>
</defs>
</svg>
