<svg width="242" height="75" viewBox="0 0 242 75" fill="none" xmlns="http://www.w3.org/2000/svg">
<g filter="url(#filter0_d_13_16)">
<rect x="2" width="234" height="67" rx="12" fill="white"/>
<path d="M75.916 40.396C76.54 40.396 77.096 40.292 77.584 40.084C78.08 39.876 78.496 39.584 78.832 39.208C79.168 38.832 79.424 38.376 79.6 37.84C79.784 37.304 79.876 36.704 79.876 36.04V25.648H83.104V36.04C83.104 37.072 82.936 38.028 82.6 38.908C82.272 39.78 81.796 40.536 81.172 41.176C80.556 41.808 79.804 42.304 78.916 42.664C78.028 43.016 77.028 43.192 75.916 43.192C74.796 43.192 73.792 43.016 72.904 42.664C72.016 42.304 71.26 41.808 70.636 41.176C70.02 40.536 69.544 39.78 69.208 38.908C68.88 38.028 68.716 37.072 68.716 36.04V25.648H71.944V36.028C71.944 36.692 72.032 37.292 72.208 37.828C72.392 38.364 72.652 38.824 72.988 39.208C73.332 39.584 73.748 39.876 74.236 40.084C74.732 40.292 75.292 40.396 75.916 40.396ZM89.9845 43H86.7445V25.648H89.9845V43ZM115.113 34.324C115.113 35.596 114.901 36.764 114.477 37.828C114.053 38.892 113.457 39.808 112.689 40.576C111.921 41.344 110.997 41.94 109.917 42.364C108.837 42.788 107.637 43 106.317 43H99.7054V25.648H106.317C107.637 25.648 108.837 25.864 109.917 26.296C110.997 26.72 111.921 27.316 112.689 28.084C113.457 28.844 114.053 29.756 114.477 30.82C114.901 31.884 115.113 33.052 115.113 34.324ZM111.801 34.324C111.801 33.372 111.673 32.52 111.417 31.768C111.169 31.008 110.805 30.368 110.325 29.848C109.853 29.32 109.277 28.916 108.597 28.636C107.925 28.356 107.165 28.216 106.317 28.216H102.945V40.432H106.317C107.165 40.432 107.925 40.292 108.597 40.012C109.277 39.732 109.853 39.332 110.325 38.812C110.805 38.284 111.169 37.644 111.417 36.892C111.673 36.132 111.801 35.276 111.801 34.324ZM125.263 35.428C125.263 35.044 125.207 34.684 125.095 34.348C124.991 34.004 124.831 33.704 124.615 33.448C124.399 33.192 124.123 32.992 123.787 32.848C123.459 32.696 123.075 32.62 122.635 32.62C121.779 32.62 121.103 32.864 120.607 33.352C120.119 33.84 119.807 34.532 119.671 35.428H125.263ZM119.611 37.216C119.659 37.848 119.771 38.396 119.947 38.86C120.123 39.316 120.355 39.696 120.643 40C120.931 40.296 121.271 40.52 121.663 40.672C122.063 40.816 122.503 40.888 122.983 40.888C123.463 40.888 123.875 40.832 124.219 40.72C124.571 40.608 124.875 40.484 125.131 40.348C125.395 40.212 125.623 40.088 125.815 39.976C126.015 39.864 126.207 39.808 126.391 39.808C126.639 39.808 126.823 39.9 126.943 40.084L127.795 41.164C127.467 41.548 127.099 41.872 126.691 42.136C126.283 42.392 125.855 42.6 125.407 42.76C124.967 42.912 124.515 43.02 124.051 43.084C123.595 43.148 123.151 43.18 122.719 43.18C121.863 43.18 121.067 43.04 120.331 42.76C119.595 42.472 118.955 42.052 118.411 41.5C117.867 40.94 117.439 40.252 117.127 39.436C116.815 38.612 116.659 37.66 116.659 36.58C116.659 35.74 116.795 34.952 117.067 34.216C117.339 33.472 117.727 32.828 118.231 32.284C118.743 31.732 119.363 31.296 120.091 30.976C120.827 30.656 121.655 30.496 122.575 30.496C123.351 30.496 124.067 30.62 124.723 30.868C125.379 31.116 125.943 31.48 126.415 31.96C126.887 32.432 127.255 33.016 127.519 33.712C127.791 34.4 127.927 35.188 127.927 36.076C127.927 36.524 127.879 36.828 127.783 36.988C127.687 37.14 127.503 37.216 127.231 37.216H119.611ZM137.664 33.088C137.584 33.216 137.5 33.308 137.412 33.364C137.324 33.412 137.212 33.436 137.076 33.436C136.932 33.436 136.776 33.396 136.608 33.316C136.448 33.236 136.26 33.148 136.044 33.052C135.828 32.948 135.58 32.856 135.299 32.776C135.028 32.696 134.704 32.656 134.328 32.656C133.744 32.656 133.284 32.78 132.948 33.028C132.62 33.276 132.456 33.6 132.456 34C132.456 34.264 132.54 34.488 132.708 34.672C132.884 34.848 133.112 35.004 133.392 35.14C133.68 35.276 134.004 35.4 134.364 35.512C134.724 35.616 135.088 35.732 135.456 35.86C135.832 35.988 136.2 36.136 136.56 36.304C136.92 36.464 137.24 36.672 137.52 36.928C137.808 37.176 138.036 37.476 138.204 37.828C138.38 38.18 138.468 38.604 138.468 39.1C138.468 39.692 138.36 40.24 138.144 40.744C137.936 41.24 137.624 41.672 137.208 42.04C136.792 42.4 136.276 42.684 135.66 42.892C135.052 43.092 134.348 43.192 133.548 43.192C133.124 43.192 132.708 43.152 132.3 43.072C131.9 43 131.512 42.896 131.136 42.76C130.768 42.624 130.424 42.464 130.104 42.28C129.792 42.096 129.516 41.896 129.276 41.68L129.96 40.552C130.048 40.416 130.152 40.312 130.271 40.24C130.391 40.168 130.544 40.132 130.728 40.132C130.912 40.132 131.084 40.184 131.244 40.288C131.412 40.392 131.604 40.504 131.82 40.624C132.036 40.744 132.288 40.856 132.576 40.96C132.872 41.064 133.244 41.116 133.692 41.116C134.044 41.116 134.344 41.076 134.592 40.996C134.848 40.908 135.056 40.796 135.216 40.66C135.384 40.524 135.503 40.368 135.576 40.192C135.656 40.008 135.696 39.82 135.696 39.628C135.696 39.34 135.608 39.104 135.432 38.92C135.264 38.736 135.036 38.576 134.747 38.44C134.468 38.304 134.144 38.184 133.776 38.08C133.416 37.968 133.044 37.848 132.66 37.72C132.284 37.592 131.912 37.444 131.544 37.276C131.184 37.1 130.86 36.88 130.572 36.616C130.292 36.352 130.064 36.028 129.888 35.644C129.72 35.26 129.636 34.796 129.636 34.252C129.636 33.748 129.736 33.268 129.936 32.812C130.136 32.356 130.428 31.96 130.812 31.624C131.204 31.28 131.688 31.008 132.264 30.808C132.848 30.6 133.52 30.496 134.28 30.496C135.128 30.496 135.9 30.636 136.596 30.916C137.292 31.196 137.872 31.564 138.336 32.02L137.664 33.088ZM143.77 30.688V43H140.794V30.688H143.77ZM144.178 27.1C144.178 27.356 144.126 27.596 144.022 27.82C143.918 28.044 143.778 28.24 143.602 28.408C143.434 28.576 143.234 28.712 143.002 28.816C142.77 28.912 142.522 28.96 142.258 28.96C142.002 28.96 141.758 28.912 141.526 28.816C141.302 28.712 141.106 28.576 140.938 28.408C140.77 28.24 140.634 28.044 140.53 27.82C140.434 27.596 140.386 27.356 140.386 27.1C140.386 26.836 140.434 26.588 140.53 26.356C140.634 26.124 140.77 25.924 140.938 25.756C141.106 25.588 141.302 25.456 141.526 25.36C141.758 25.256 142.002 25.204 142.258 25.204C142.522 25.204 142.77 25.256 143.002 25.36C143.234 25.456 143.434 25.588 143.602 25.756C143.778 25.924 143.918 26.124 144.022 26.356C144.126 26.588 144.178 26.836 144.178 27.1ZM151.292 36.544C151.66 36.544 151.98 36.496 152.252 36.4C152.524 36.296 152.748 36.156 152.924 35.98C153.108 35.804 153.244 35.592 153.332 35.344C153.428 35.096 153.476 34.824 153.476 34.528C153.476 33.92 153.292 33.44 152.924 33.088C152.564 32.728 152.02 32.548 151.292 32.548C150.564 32.548 150.016 32.728 149.648 33.088C149.288 33.44 149.108 33.92 149.108 34.528C149.108 34.816 149.152 35.084 149.24 35.332C149.336 35.58 149.472 35.796 149.648 35.98C149.832 36.156 150.06 36.296 150.332 36.4C150.612 36.496 150.932 36.544 151.292 36.544ZM154.64 43.552C154.64 43.312 154.568 43.116 154.424 42.964C154.28 42.812 154.084 42.696 153.836 42.616C153.588 42.528 153.296 42.464 152.96 42.424C152.632 42.384 152.28 42.356 151.904 42.34C151.536 42.316 151.152 42.296 150.752 42.28C150.36 42.264 149.976 42.232 149.6 42.184C149.272 42.368 149.004 42.584 148.796 42.832C148.596 43.08 148.496 43.368 148.496 43.696C148.496 43.912 148.548 44.112 148.652 44.296C148.764 44.488 148.936 44.652 149.168 44.788C149.408 44.924 149.716 45.028 150.092 45.1C150.468 45.18 150.928 45.22 151.472 45.22C152.024 45.22 152.5 45.176 152.9 45.088C153.3 45.008 153.628 44.892 153.884 44.74C154.148 44.596 154.34 44.42 154.46 44.212C154.58 44.012 154.64 43.792 154.64 43.552ZM157.592 31.108V32.212C157.592 32.564 157.38 32.78 156.956 32.86L155.852 33.064C156.02 33.488 156.104 33.952 156.104 34.456C156.104 35.064 155.98 35.616 155.732 36.112C155.492 36.6 155.156 37.016 154.724 37.36C154.292 37.704 153.78 37.972 153.188 38.164C152.604 38.348 151.972 38.44 151.292 38.44C151.052 38.44 150.82 38.428 150.596 38.404C150.372 38.38 150.152 38.348 149.936 38.308C149.552 38.54 149.36 38.8 149.36 39.088C149.36 39.336 149.472 39.52 149.696 39.64C149.928 39.752 150.232 39.832 150.608 39.88C150.984 39.928 151.412 39.96 151.892 39.976C152.372 39.984 152.864 40.008 153.368 40.048C153.872 40.088 154.364 40.16 154.844 40.264C155.324 40.36 155.752 40.516 156.128 40.732C156.504 40.948 156.804 41.244 157.028 41.62C157.26 41.988 157.376 42.464 157.376 43.048C157.376 43.592 157.24 44.12 156.968 44.632C156.704 45.144 156.316 45.6 155.804 46C155.3 46.4 154.676 46.72 153.932 46.96C153.196 47.208 152.356 47.332 151.412 47.332C150.484 47.332 149.676 47.24 148.988 47.056C148.3 46.88 147.728 46.64 147.272 46.336C146.816 46.04 146.476 45.696 146.252 45.304C146.028 44.912 145.916 44.504 145.916 44.08C145.916 43.504 146.088 43.024 146.432 42.64C146.784 42.248 147.264 41.936 147.872 41.704C147.544 41.536 147.284 41.312 147.092 41.032C146.9 40.752 146.804 40.384 146.804 39.928C146.804 39.744 146.836 39.556 146.9 39.364C146.972 39.164 147.072 38.968 147.2 38.776C147.336 38.584 147.504 38.404 147.704 38.236C147.904 38.06 148.14 37.904 148.412 37.768C147.788 37.432 147.296 36.984 146.936 36.424C146.584 35.864 146.408 35.208 146.408 34.456C146.408 33.848 146.528 33.3 146.768 32.812C147.016 32.316 147.356 31.896 147.788 31.552C148.228 31.2 148.744 30.932 149.336 30.748C149.936 30.564 150.588 30.472 151.292 30.472C151.82 30.472 152.316 30.528 152.78 30.64C153.244 30.744 153.668 30.9 154.052 31.108H157.592ZM162.244 32.2C162.492 31.952 162.752 31.724 163.024 31.516C163.304 31.3 163.596 31.12 163.9 30.976C164.212 30.824 164.544 30.708 164.896 30.628C165.248 30.54 165.632 30.496 166.048 30.496C166.72 30.496 167.316 30.612 167.836 30.844C168.356 31.068 168.788 31.388 169.132 31.804C169.484 32.212 169.748 32.704 169.924 33.28C170.108 33.848 170.2 34.476 170.2 35.164V43H167.236V35.164C167.236 34.412 167.064 33.832 166.72 33.424C166.376 33.008 165.852 32.8 165.148 32.8C164.636 32.8 164.156 32.916 163.708 33.148C163.26 33.38 162.836 33.696 162.436 34.096V43H159.472V30.688H161.284C161.668 30.688 161.92 30.868 162.04 31.228L162.244 32.2Z" fill="black"/>
</g>
<defs>
<filter id="filter0_d_13_16" x="0" y="0" width="242" height="75" filterUnits="userSpaceOnUse" color-interpolation-filters="sRGB">
<feFlood flood-opacity="0" result="BackgroundImageFix"/>
<feColorMatrix in="SourceAlpha" type="matrix" values="0 0 0 0 0 0 0 0 0 0 0 0 0 0 0 0 0 0 127 0" result="hardAlpha"/>
<feOffset dx="2" dy="4"/>
<feGaussianBlur stdDeviation="2"/>
<feComposite in2="hardAlpha" operator="out"/>
<feColorMatrix type="matrix" values="0 0 0 0 0 0 0 0 0 0 0 0 0 0 0 0 0 0 0.25 0"/>
<feBlend mode="normal" in2="BackgroundImageFix" result="effect1_dropShadow_13_16"/>
<feBlend mode="normal" in="SourceGraphic" in2="effect1_dropShadow_13_16" result="shape"/>
</filter>
</defs>
</svg>
