<svg width="270" height="75" viewBox="0 0 270 75" fill="none" xmlns="http://www.w3.org/2000/svg">
<g filter="url(#filter0_d_590_414)">
<rect x="2" width="262" height="67" rx="12" fill="white"/>
<path d="M26.31 29.17C26.23 29.31 26.1433 29.4133 26.05 29.48C25.9633 29.54 25.8533 29.57 25.72 29.57C25.58 29.57 25.4267 29.52 25.26 29.42C25.1 29.3133 24.9067 29.1967 24.68 29.07C24.4533 28.9433 24.1867 28.83 23.88 28.73C23.58 28.6233 23.2233 28.57 22.81 28.57C22.4367 28.57 22.11 28.6167 21.83 28.71C21.55 28.7967 21.3133 28.92 21.12 29.08C20.9333 29.24 20.7933 29.4333 20.7 29.66C20.6067 29.88 20.56 30.1233 20.56 30.39C20.56 30.73 20.6533 31.0133 20.84 31.24C21.0333 31.4667 21.2867 31.66 21.6 31.82C21.9133 31.98 22.27 32.1233 22.67 32.25C23.07 32.3767 23.48 32.5133 23.9 32.66C24.32 32.8 24.73 32.9667 25.13 33.16C25.53 33.3467 25.8867 33.5867 26.2 33.88C26.5133 34.1667 26.7633 34.52 26.95 34.94C27.1433 35.36 27.24 35.87 27.24 36.47C27.24 37.1233 27.1267 37.7367 26.9 38.31C26.68 38.8767 26.3533 39.3733 25.92 39.8C25.4933 40.22 24.97 40.5533 24.35 40.8C23.73 41.04 23.02 41.16 22.22 41.16C21.76 41.16 21.3067 41.1133 20.86 41.02C20.4133 40.9333 19.9833 40.8067 19.57 40.64C19.1633 40.4733 18.78 40.2733 18.42 40.04C18.06 39.8067 17.74 39.5467 17.46 39.26L18.25 37.97C18.3167 37.8767 18.4033 37.8 18.51 37.74C18.6167 37.6733 18.73 37.64 18.85 37.64C19.0167 37.64 19.1967 37.71 19.39 37.85C19.5833 37.9833 19.8133 38.1333 20.08 38.3C20.3467 38.4667 20.6567 38.62 21.01 38.76C21.37 38.8933 21.8 38.96 22.3 38.96C23.0667 38.96 23.66 38.78 24.08 38.42C24.5 38.0533 24.71 37.53 24.71 36.85C24.71 36.47 24.6133 36.16 24.42 35.92C24.2333 35.68 23.9833 35.48 23.67 35.32C23.3567 35.1533 23 35.0133 22.6 34.9C22.2 34.7867 21.7933 34.6633 21.38 34.53C20.9667 34.3967 20.56 34.2367 20.16 34.05C19.76 33.8633 19.4033 33.62 19.09 33.32C18.7767 33.02 18.5233 32.6467 18.33 32.2C18.1433 31.7467 18.05 31.19 18.05 30.53C18.05 30.0033 18.1533 29.49 18.36 28.99C18.5733 28.49 18.88 28.0467 19.28 27.66C19.68 27.2733 20.1733 26.9633 20.76 26.73C21.3467 26.4967 22.02 26.38 22.78 26.38C23.6333 26.38 24.42 26.5133 25.14 26.78C25.86 27.0467 26.4733 27.42 26.98 27.9L26.31 29.17ZM33.6975 30.58C34.4575 30.58 35.1475 30.7033 35.7675 30.95C36.3942 31.1967 36.9275 31.5467 37.3675 32C37.8142 32.4533 38.1575 33.0067 38.3975 33.66C38.6375 34.3133 38.7575 35.0433 38.7575 35.85C38.7575 36.6633 38.6375 37.3967 38.3975 38.05C38.1575 38.7033 37.8142 39.26 37.3675 39.72C36.9275 40.18 36.3942 40.5333 35.7675 40.78C35.1475 41.0267 34.4575 41.15 33.6975 41.15C32.9308 41.15 32.2342 41.0267 31.6075 40.78C30.9808 40.5333 30.4442 40.18 29.9975 39.72C29.5575 39.26 29.2142 38.7033 28.9675 38.05C28.7275 37.3967 28.6075 36.6633 28.6075 35.85C28.6075 35.0433 28.7275 34.3133 28.9675 33.66C29.2142 33.0067 29.5575 32.4533 29.9975 32C30.4442 31.5467 30.9808 31.1967 31.6075 30.95C32.2342 30.7033 32.9308 30.58 33.6975 30.58ZM33.6975 39.25C34.5508 39.25 35.1808 38.9633 35.5875 38.39C36.0008 37.8167 36.2075 36.9767 36.2075 35.87C36.2075 34.7633 36.0008 33.92 35.5875 33.34C35.1808 32.76 34.5508 32.47 33.6975 32.47C32.8308 32.47 32.1875 32.7633 31.7675 33.35C31.3542 33.93 31.1475 34.77 31.1475 35.87C31.1475 36.97 31.3542 37.81 31.7675 38.39C32.1875 38.9633 32.8308 39.25 33.6975 39.25ZM47.9919 32.91C47.9185 33.0033 47.8452 33.0767 47.7719 33.13C47.7052 33.1833 47.6052 33.21 47.4719 33.21C47.3452 33.21 47.2219 33.1733 47.1019 33.1C46.9819 33.02 46.8385 32.9333 46.6719 32.84C46.5052 32.74 46.3052 32.6533 46.0719 32.58C45.8452 32.5 45.5619 32.46 45.2219 32.46C44.7885 32.46 44.4085 32.54 44.0819 32.7C43.7552 32.8533 43.4819 33.0767 43.2619 33.37C43.0485 33.6633 42.8885 34.02 42.7819 34.44C42.6752 34.8533 42.6219 35.3233 42.6219 35.85C42.6219 36.3967 42.6785 36.8833 42.7919 37.31C42.9119 37.7367 43.0819 38.0967 43.3019 38.39C43.5219 38.6767 43.7885 38.8967 44.1019 39.05C44.4152 39.1967 44.7685 39.27 45.1619 39.27C45.5552 39.27 45.8719 39.2233 46.1119 39.13C46.3585 39.03 46.5652 38.9233 46.7319 38.81C46.8985 38.69 47.0419 38.5833 47.1619 38.49C47.2885 38.39 47.4285 38.34 47.5819 38.34C47.7819 38.34 47.9319 38.4167 48.0319 38.57L48.7419 39.47C48.4685 39.79 48.1719 40.06 47.8519 40.28C47.5319 40.4933 47.1985 40.6667 46.8519 40.8C46.5119 40.9267 46.1585 41.0167 45.7919 41.07C45.4319 41.1233 45.0719 41.15 44.7119 41.15C44.0785 41.15 43.4819 41.0333 42.9219 40.8C42.3619 40.56 41.8719 40.2133 41.4519 39.76C41.0319 39.3067 40.6985 38.7533 40.4519 38.1C40.2119 37.44 40.0919 36.69 40.0919 35.85C40.0919 35.0967 40.1985 34.4 40.4119 33.76C40.6319 33.1133 40.9519 32.5567 41.3719 32.09C41.7919 31.6167 42.3119 31.2467 42.9319 30.98C43.5519 30.7133 44.2652 30.58 45.0719 30.58C45.8385 30.58 46.5085 30.7033 47.0819 30.95C47.6619 31.1967 48.1819 31.55 48.6419 32.01L47.9919 32.91ZM52.8503 30.74V41H50.3703V30.74H52.8503ZM53.1903 27.75C53.1903 27.9633 53.147 28.1633 53.0603 28.35C52.9736 28.5367 52.857 28.7 52.7103 28.84C52.5703 28.98 52.4036 29.0933 52.2103 29.18C52.017 29.26 51.8103 29.3 51.5903 29.3C51.377 29.3 51.1736 29.26 50.9803 29.18C50.7936 29.0933 50.6303 28.98 50.4903 28.84C50.3503 28.7 50.237 28.5367 50.1503 28.35C50.0703 28.1633 50.0303 27.9633 50.0303 27.75C50.0303 27.53 50.0703 27.3233 50.1503 27.13C50.237 26.9367 50.3503 26.77 50.4903 26.63C50.6303 26.49 50.7936 26.38 50.9803 26.3C51.1736 26.2133 51.377 26.17 51.5903 26.17C51.8103 26.17 52.017 26.2133 52.2103 26.3C52.4036 26.38 52.5703 26.49 52.7103 26.63C52.857 26.77 52.9736 26.9367 53.0603 27.13C53.147 27.3233 53.1903 27.53 53.1903 27.75ZM60.7884 36.62C60.0751 36.6533 59.4751 36.7167 58.9884 36.81C58.5018 36.8967 58.1118 37.01 57.8184 37.15C57.5251 37.29 57.3151 37.4533 57.1884 37.64C57.0618 37.8267 56.9984 38.03 56.9984 38.25C56.9984 38.6833 57.1251 38.9933 57.3784 39.18C57.6384 39.3667 57.9751 39.46 58.3884 39.46C58.8951 39.46 59.3318 39.37 59.6984 39.19C60.0718 39.0033 60.4351 38.7233 60.7884 38.35V36.62ZM55.1284 32.17C56.3084 31.09 57.7284 30.55 59.3884 30.55C59.9884 30.55 60.5251 30.65 60.9984 30.85C61.4718 31.0433 61.8718 31.3167 62.1984 31.67C62.5251 32.0167 62.7718 32.4333 62.9384 32.92C63.1118 33.4067 63.1984 33.94 63.1984 34.52V41H62.0784C61.8451 41 61.6651 40.9667 61.5384 40.9C61.4118 40.8267 61.3118 40.6833 61.2384 40.47L61.0184 39.73C60.7584 39.9633 60.5051 40.17 60.2584 40.35C60.0118 40.5233 59.7551 40.67 59.4884 40.79C59.2218 40.91 58.9351 41 58.6284 41.06C58.3284 41.1267 57.9951 41.16 57.6284 41.16C57.1951 41.16 56.7951 41.1033 56.4284 40.99C56.0618 40.87 55.7451 40.6933 55.4784 40.46C55.2118 40.2267 55.0051 39.9367 54.8584 39.59C54.7118 39.2433 54.6384 38.84 54.6384 38.38C54.6384 38.12 54.6818 37.8633 54.7684 37.61C54.8551 37.35 54.9951 37.1033 55.1884 36.87C55.3884 36.6367 55.6451 36.4167 55.9584 36.21C56.2718 36.0033 56.6551 35.8233 57.1084 35.67C57.5684 35.5167 58.1018 35.3933 58.7084 35.3C59.3151 35.2 60.0084 35.14 60.7884 35.12V34.52C60.7884 33.8333 60.6418 33.3267 60.3484 33C60.0551 32.6667 59.6318 32.5 59.0784 32.5C58.6784 32.5 58.3451 32.5467 58.0784 32.64C57.8184 32.7333 57.5884 32.84 57.3884 32.96C57.1884 33.0733 57.0051 33.1767 56.8384 33.27C56.6784 33.3633 56.4984 33.41 56.2984 33.41C56.1251 33.41 55.9784 33.3667 55.8584 33.28C55.7384 33.1867 55.6418 33.08 55.5684 32.96L55.1284 32.17ZM68.0247 26.14V41H65.5547V26.14H68.0247ZM91.4189 26.54V41H89.0489V31.66C89.0489 31.2867 89.0689 30.8833 89.1089 30.45L84.7389 38.66C84.5322 39.0533 84.2156 39.25 83.7889 39.25H83.4089C82.9822 39.25 82.6656 39.0533 82.4589 38.66L78.0389 30.42C78.0589 30.64 78.0756 30.8567 78.0889 31.07C78.1022 31.2833 78.1089 31.48 78.1089 31.66V41H75.7389V26.54H77.7689C77.8889 26.54 77.9922 26.5433 78.0789 26.55C78.1656 26.5567 78.2422 26.5733 78.3089 26.6C78.3822 26.6267 78.4456 26.67 78.4989 26.73C78.5589 26.79 78.6156 26.87 78.6689 26.97L82.9989 35C83.1122 35.2133 83.2156 35.4333 83.3089 35.66C83.4089 35.8867 83.5056 36.12 83.5989 36.36C83.6922 36.1133 83.7889 35.8767 83.8889 35.65C83.9889 35.4167 84.0956 35.1933 84.2089 34.98L88.4789 26.97C88.5322 26.87 88.5889 26.79 88.6489 26.73C88.7089 26.67 88.7722 26.6267 88.8389 26.6C88.9122 26.5733 88.9922 26.5567 89.0789 26.55C89.1656 26.5433 89.2689 26.54 89.3889 26.54H91.4189ZM100.553 34.69C100.553 34.37 100.506 34.07 100.413 33.79C100.326 33.5033 100.193 33.2533 100.013 33.04C99.8327 32.8267 99.6027 32.66 99.3227 32.54C99.0493 32.4133 98.7293 32.35 98.3627 32.35C97.6493 32.35 97.086 32.5533 96.6727 32.96C96.266 33.3667 96.006 33.9433 95.8927 34.69H100.553ZM95.8427 36.18C95.8827 36.7067 95.976 37.1633 96.1227 37.55C96.2693 37.93 96.4627 38.2467 96.7027 38.5C96.9427 38.7467 97.226 38.9333 97.5527 39.06C97.886 39.18 98.2527 39.24 98.6527 39.24C99.0527 39.24 99.396 39.1933 99.6827 39.1C99.976 39.0067 100.229 38.9033 100.443 38.79C100.663 38.6767 100.853 38.5733 101.013 38.48C101.179 38.3867 101.339 38.34 101.493 38.34C101.699 38.34 101.853 38.4167 101.953 38.57L102.663 39.47C102.389 39.79 102.083 40.06 101.743 40.28C101.403 40.4933 101.046 40.6667 100.673 40.8C100.306 40.9267 99.9293 41.0167 99.5427 41.07C99.1627 41.1233 98.7927 41.15 98.4327 41.15C97.7193 41.15 97.056 41.0333 96.4427 40.8C95.8293 40.56 95.296 40.21 94.8427 39.75C94.3893 39.2833 94.0327 38.71 93.7727 38.03C93.5127 37.3433 93.3827 36.55 93.3827 35.65C93.3827 34.95 93.496 34.2933 93.7227 33.68C93.9493 33.06 94.2727 32.5233 94.6927 32.07C95.1193 31.61 95.636 31.2467 96.2427 30.98C96.856 30.7133 97.546 30.58 98.3127 30.58C98.9593 30.58 99.556 30.6833 100.103 30.89C100.649 31.0967 101.119 31.4 101.513 31.8C101.906 32.1933 102.213 32.68 102.433 33.26C102.659 33.8333 102.773 34.49 102.773 35.23C102.773 35.6033 102.733 35.8567 102.653 35.99C102.573 36.1167 102.419 36.18 102.193 36.18H95.8427ZM111.066 33.36C110.786 33.02 110.48 32.78 110.146 32.64C109.82 32.5 109.466 32.43 109.086 32.43C108.713 32.43 108.376 32.5 108.076 32.64C107.776 32.78 107.52 32.9933 107.306 33.28C107.093 33.56 106.93 33.92 106.816 34.36C106.703 34.7933 106.646 35.3067 106.646 35.9C106.646 36.5 106.693 37.01 106.786 37.43C106.886 37.8433 107.026 38.1833 107.206 38.45C107.386 38.71 107.606 38.9 107.866 39.02C108.126 39.1333 108.416 39.19 108.736 39.19C109.25 39.19 109.686 39.0833 110.046 38.87C110.406 38.6567 110.746 38.3533 111.066 37.96V33.36ZM113.536 26.14V41H112.026C111.7 41 111.493 40.85 111.406 40.55L111.196 39.56C110.783 40.0333 110.306 40.4167 109.766 40.71C109.233 41.0033 108.61 41.15 107.896 41.15C107.336 41.15 106.823 41.0333 106.356 40.8C105.89 40.5667 105.486 40.23 105.146 39.79C104.813 39.3433 104.553 38.7933 104.366 38.14C104.186 37.4867 104.096 36.74 104.096 35.9C104.096 35.14 104.2 34.4333 104.406 33.78C104.613 33.1267 104.91 32.56 105.296 32.08C105.683 31.6 106.146 31.2267 106.686 30.96C107.226 30.6867 107.833 30.55 108.506 30.55C109.08 30.55 109.57 30.64 109.976 30.82C110.383 31 110.746 31.2433 111.066 31.55V26.14H113.536ZM118.534 30.74V41H116.054V30.74H118.534ZM118.874 27.75C118.874 27.9633 118.831 28.1633 118.744 28.35C118.657 28.5367 118.541 28.7 118.394 28.84C118.254 28.98 118.087 29.0933 117.894 29.18C117.701 29.26 117.494 29.3 117.274 29.3C117.061 29.3 116.857 29.26 116.664 29.18C116.477 29.0933 116.314 28.98 116.174 28.84C116.034 28.7 115.921 28.5367 115.834 28.35C115.754 28.1633 115.714 27.9633 115.714 27.75C115.714 27.53 115.754 27.3233 115.834 27.13C115.921 26.9367 116.034 26.77 116.174 26.63C116.314 26.49 116.477 26.38 116.664 26.3C116.857 26.2133 117.061 26.17 117.274 26.17C117.494 26.17 117.701 26.2133 117.894 26.3C118.087 26.38 118.254 26.49 118.394 26.63C118.541 26.77 118.657 26.9367 118.744 27.13C118.831 27.3233 118.874 27.53 118.874 27.75ZM126.472 36.62C125.759 36.6533 125.159 36.7167 124.672 36.81C124.185 36.8967 123.795 37.01 123.502 37.15C123.209 37.29 122.999 37.4533 122.872 37.64C122.745 37.8267 122.682 38.03 122.682 38.25C122.682 38.6833 122.809 38.9933 123.062 39.18C123.322 39.3667 123.659 39.46 124.072 39.46C124.579 39.46 125.015 39.37 125.382 39.19C125.755 39.0033 126.119 38.7233 126.472 38.35V36.62ZM120.812 32.17C121.992 31.09 123.412 30.55 125.072 30.55C125.672 30.55 126.209 30.65 126.682 30.85C127.155 31.0433 127.555 31.3167 127.882 31.67C128.209 32.0167 128.455 32.4333 128.622 32.92C128.795 33.4067 128.882 33.94 128.882 34.52V41H127.762C127.529 41 127.349 40.9667 127.222 40.9C127.095 40.8267 126.995 40.6833 126.922 40.47L126.702 39.73C126.442 39.9633 126.189 40.17 125.942 40.35C125.695 40.5233 125.439 40.67 125.172 40.79C124.905 40.91 124.619 41 124.312 41.06C124.012 41.1267 123.679 41.16 123.312 41.16C122.879 41.16 122.479 41.1033 122.112 40.99C121.745 40.87 121.429 40.6933 121.162 40.46C120.895 40.2267 120.689 39.9367 120.542 39.59C120.395 39.2433 120.322 38.84 120.322 38.38C120.322 38.12 120.365 37.8633 120.452 37.61C120.539 37.35 120.679 37.1033 120.872 36.87C121.072 36.6367 121.329 36.4167 121.642 36.21C121.955 36.0033 122.339 35.8233 122.792 35.67C123.252 35.5167 123.785 35.3933 124.392 35.3C124.999 35.2 125.692 35.14 126.472 35.12V34.52C126.472 33.8333 126.325 33.3267 126.032 33C125.739 32.6667 125.315 32.5 124.762 32.5C124.362 32.5 124.029 32.5467 123.762 32.64C123.502 32.7333 123.272 32.84 123.072 32.96C122.872 33.0733 122.689 33.1767 122.522 33.27C122.362 33.3633 122.182 33.41 121.982 33.41C121.809 33.41 121.662 33.3667 121.542 33.28C121.422 33.1867 121.325 33.08 121.252 32.96L120.812 32.17ZM152.142 26.54V41H149.772V31.66C149.772 31.2867 149.792 30.8833 149.832 30.45L145.462 38.66C145.255 39.0533 144.938 39.25 144.512 39.25H144.132C143.705 39.25 143.388 39.0533 143.182 38.66L138.762 30.42C138.782 30.64 138.798 30.8567 138.812 31.07C138.825 31.2833 138.832 31.48 138.832 31.66V41H136.462V26.54H138.492C138.612 26.54 138.715 26.5433 138.802 26.55C138.888 26.5567 138.965 26.5733 139.032 26.6C139.105 26.6267 139.168 26.67 139.222 26.73C139.282 26.79 139.338 26.87 139.392 26.97L143.722 35C143.835 35.2133 143.938 35.4333 144.032 35.66C144.132 35.8867 144.228 36.12 144.322 36.36C144.415 36.1133 144.512 35.8767 144.612 35.65C144.712 35.4167 144.818 35.1933 144.932 34.98L149.202 26.97C149.255 26.87 149.312 26.79 149.372 26.73C149.432 26.67 149.495 26.6267 149.562 26.6C149.635 26.5733 149.715 26.5567 149.802 26.55C149.888 26.5433 149.992 26.54 150.112 26.54H152.142ZM160.144 36.62C159.431 36.6533 158.831 36.7167 158.344 36.81C157.857 36.8967 157.467 37.01 157.174 37.15C156.881 37.29 156.671 37.4533 156.544 37.64C156.417 37.8267 156.354 38.03 156.354 38.25C156.354 38.6833 156.481 38.9933 156.734 39.18C156.994 39.3667 157.331 39.46 157.744 39.46C158.251 39.46 158.687 39.37 159.054 39.19C159.427 39.0033 159.791 38.7233 160.144 38.35V36.62ZM154.484 32.17C155.664 31.09 157.084 30.55 158.744 30.55C159.344 30.55 159.881 30.65 160.354 30.85C160.827 31.0433 161.227 31.3167 161.554 31.67C161.881 32.0167 162.127 32.4333 162.294 32.92C162.467 33.4067 162.554 33.94 162.554 34.52V41H161.434C161.201 41 161.021 40.9667 160.894 40.9C160.767 40.8267 160.667 40.6833 160.594 40.47L160.374 39.73C160.114 39.9633 159.861 40.17 159.614 40.35C159.367 40.5233 159.111 40.67 158.844 40.79C158.577 40.91 158.291 41 157.984 41.06C157.684 41.1267 157.351 41.16 156.984 41.16C156.551 41.16 156.151 41.1033 155.784 40.99C155.417 40.87 155.101 40.6933 154.834 40.46C154.567 40.2267 154.361 39.9367 154.214 39.59C154.067 39.2433 153.994 38.84 153.994 38.38C153.994 38.12 154.037 37.8633 154.124 37.61C154.211 37.35 154.351 37.1033 154.544 36.87C154.744 36.6367 155.001 36.4167 155.314 36.21C155.627 36.0033 156.011 35.8233 156.464 35.67C156.924 35.5167 157.457 35.3933 158.064 35.3C158.671 35.2 159.364 35.14 160.144 35.12V34.52C160.144 33.8333 159.997 33.3267 159.704 33C159.411 32.6667 158.987 32.5 158.434 32.5C158.034 32.5 157.701 32.5467 157.434 32.64C157.174 32.7333 156.944 32.84 156.744 32.96C156.544 33.0733 156.361 33.1767 156.194 33.27C156.034 33.3633 155.854 33.41 155.654 33.41C155.481 33.41 155.334 33.3667 155.214 33.28C155.094 33.1867 154.997 33.08 154.924 32.96L154.484 32.17ZM167.19 32C167.397 31.7933 167.613 31.6033 167.84 31.43C168.073 31.25 168.317 31.1 168.57 30.98C168.83 30.8533 169.107 30.7567 169.4 30.69C169.693 30.6167 170.013 30.58 170.36 30.58C170.92 30.58 171.417 30.6767 171.85 30.87C172.283 31.0567 172.643 31.3233 172.93 31.67C173.223 32.01 173.443 32.42 173.59 32.9C173.743 33.3733 173.82 33.8967 173.82 34.47V41H171.35V34.47C171.35 33.8433 171.207 33.36 170.92 33.02C170.633 32.6733 170.197 32.5 169.61 32.5C169.183 32.5 168.783 32.5967 168.41 32.79C168.037 32.9833 167.683 33.2467 167.35 33.58V41H164.88V30.74H166.39C166.71 30.74 166.92 30.89 167.02 31.19L167.19 32ZM181.589 36.62C180.876 36.6533 180.276 36.7167 179.789 36.81C179.303 36.8967 178.913 37.01 178.619 37.15C178.326 37.29 178.116 37.4533 177.989 37.64C177.863 37.8267 177.799 38.03 177.799 38.25C177.799 38.6833 177.926 38.9933 178.179 39.18C178.439 39.3667 178.776 39.46 179.189 39.46C179.696 39.46 180.133 39.37 180.499 39.19C180.873 39.0033 181.236 38.7233 181.589 38.35V36.62ZM175.929 32.17C177.109 31.09 178.529 30.55 180.189 30.55C180.789 30.55 181.326 30.65 181.799 30.85C182.273 31.0433 182.673 31.3167 182.999 31.67C183.326 32.0167 183.573 32.4333 183.739 32.92C183.913 33.4067 183.999 33.94 183.999 34.52V41H182.879C182.646 41 182.466 40.9667 182.339 40.9C182.213 40.8267 182.113 40.6833 182.039 40.47L181.819 39.73C181.559 39.9633 181.306 40.17 181.059 40.35C180.813 40.5233 180.556 40.67 180.289 40.79C180.023 40.91 179.736 41 179.429 41.06C179.129 41.1267 178.796 41.16 178.429 41.16C177.996 41.16 177.596 41.1033 177.229 40.99C176.863 40.87 176.546 40.6933 176.279 40.46C176.013 40.2267 175.806 39.9367 175.659 39.59C175.513 39.2433 175.439 38.84 175.439 38.38C175.439 38.12 175.483 37.8633 175.569 37.61C175.656 37.35 175.796 37.1033 175.989 36.87C176.189 36.6367 176.446 36.4167 176.759 36.21C177.073 36.0033 177.456 35.8233 177.909 35.67C178.369 35.5167 178.903 35.3933 179.509 35.3C180.116 35.2 180.809 35.14 181.589 35.12V34.52C181.589 33.8333 181.443 33.3267 181.149 33C180.856 32.6667 180.433 32.5 179.879 32.5C179.479 32.5 179.146 32.5467 178.879 32.64C178.619 32.7333 178.389 32.84 178.189 32.96C177.989 33.0733 177.806 33.1767 177.639 33.27C177.479 33.3633 177.299 33.41 177.099 33.41C176.926 33.41 176.779 33.3667 176.659 33.28C176.539 33.1867 176.443 33.08 176.369 32.96L175.929 32.17ZM190.075 35.62C190.382 35.62 190.649 35.58 190.875 35.5C191.102 35.4133 191.289 35.2967 191.435 35.15C191.589 35.0033 191.702 34.8267 191.775 34.62C191.855 34.4133 191.895 34.1867 191.895 33.94C191.895 33.4333 191.742 33.0333 191.435 32.74C191.135 32.44 190.682 32.29 190.075 32.29C189.469 32.29 189.012 32.44 188.705 32.74C188.405 33.0333 188.255 33.4333 188.255 33.94C188.255 34.18 188.292 34.4033 188.365 34.61C188.445 34.8167 188.559 34.9967 188.705 35.15C188.859 35.2967 189.049 35.4133 189.275 35.5C189.509 35.58 189.775 35.62 190.075 35.62ZM192.865 41.46C192.865 41.26 192.805 41.0967 192.685 40.97C192.565 40.8433 192.402 40.7467 192.195 40.68C191.989 40.6067 191.745 40.5533 191.465 40.52C191.192 40.4867 190.899 40.4633 190.585 40.45C190.279 40.43 189.959 40.4133 189.625 40.4C189.299 40.3867 188.979 40.36 188.665 40.32C188.392 40.4733 188.169 40.6533 187.995 40.86C187.829 41.0667 187.745 41.3067 187.745 41.58C187.745 41.76 187.789 41.9267 187.875 42.08C187.969 42.24 188.112 42.3767 188.305 42.49C188.505 42.6033 188.762 42.69 189.075 42.75C189.389 42.8167 189.772 42.85 190.225 42.85C190.685 42.85 191.082 42.8133 191.415 42.74C191.749 42.6733 192.022 42.5767 192.235 42.45C192.455 42.33 192.615 42.1833 192.715 42.01C192.815 41.8433 192.865 41.66 192.865 41.46ZM195.325 31.09V32.01C195.325 32.3033 195.149 32.4833 194.795 32.55L193.875 32.72C194.015 33.0733 194.085 33.46 194.085 33.88C194.085 34.3867 193.982 34.8467 193.775 35.26C193.575 35.6667 193.295 36.0133 192.935 36.3C192.575 36.5867 192.149 36.81 191.655 36.97C191.169 37.1233 190.642 37.2 190.075 37.2C189.875 37.2 189.682 37.19 189.495 37.17C189.309 37.15 189.125 37.1233 188.945 37.09C188.625 37.2833 188.465 37.5 188.465 37.74C188.465 37.9467 188.559 38.1 188.745 38.2C188.939 38.2933 189.192 38.36 189.505 38.4C189.819 38.44 190.175 38.4667 190.575 38.48C190.975 38.4867 191.385 38.5067 191.805 38.54C192.225 38.5733 192.635 38.6333 193.035 38.72C193.435 38.8 193.792 38.93 194.105 39.11C194.419 39.29 194.669 39.5367 194.855 39.85C195.049 40.1567 195.145 40.5533 195.145 41.04C195.145 41.4933 195.032 41.9333 194.805 42.36C194.585 42.7867 194.262 43.1667 193.835 43.5C193.415 43.8333 192.895 44.1 192.275 44.3C191.662 44.5067 190.962 44.61 190.175 44.61C189.402 44.61 188.729 44.5333 188.155 44.38C187.582 44.2333 187.105 44.0333 186.725 43.78C186.345 43.5333 186.062 43.2467 185.875 42.92C185.689 42.5933 185.595 42.2533 185.595 41.9C185.595 41.42 185.739 41.02 186.025 40.7C186.319 40.3733 186.719 40.1133 187.225 39.92C186.952 39.78 186.735 39.5933 186.575 39.36C186.415 39.1267 186.335 38.82 186.335 38.44C186.335 38.2867 186.362 38.13 186.415 37.97C186.475 37.8033 186.559 37.64 186.665 37.48C186.779 37.32 186.919 37.17 187.085 37.03C187.252 36.8833 187.449 36.7533 187.675 36.64C187.155 36.36 186.745 35.9867 186.445 35.52C186.152 35.0533 186.005 34.5067 186.005 33.88C186.005 33.3733 186.105 32.9167 186.305 32.51C186.512 32.0967 186.795 31.7467 187.155 31.46C187.522 31.1667 187.952 30.9433 188.445 30.79C188.945 30.6367 189.489 30.56 190.075 30.56C190.515 30.56 190.929 30.6067 191.315 30.7C191.702 30.7867 192.055 30.9167 192.375 31.09H195.325ZM203.326 34.69C203.326 34.37 203.279 34.07 203.186 33.79C203.099 33.5033 202.966 33.2533 202.786 33.04C202.606 32.8267 202.376 32.66 202.096 32.54C201.823 32.4133 201.503 32.35 201.136 32.35C200.423 32.35 199.859 32.5533 199.446 32.96C199.039 33.3667 198.779 33.9433 198.666 34.69H203.326ZM198.616 36.18C198.656 36.7067 198.749 37.1633 198.896 37.55C199.043 37.93 199.236 38.2467 199.476 38.5C199.716 38.7467 199.999 38.9333 200.326 39.06C200.659 39.18 201.026 39.24 201.426 39.24C201.826 39.24 202.169 39.1933 202.456 39.1C202.749 39.0067 203.003 38.9033 203.216 38.79C203.436 38.6767 203.626 38.5733 203.786 38.48C203.953 38.3867 204.113 38.34 204.266 38.34C204.473 38.34 204.626 38.4167 204.726 38.57L205.436 39.47C205.163 39.79 204.856 40.06 204.516 40.28C204.176 40.4933 203.819 40.6667 203.446 40.8C203.079 40.9267 202.703 41.0167 202.316 41.07C201.936 41.1233 201.566 41.15 201.206 41.15C200.493 41.15 199.829 41.0333 199.216 40.8C198.603 40.56 198.069 40.21 197.616 39.75C197.163 39.2833 196.806 38.71 196.546 38.03C196.286 37.3433 196.156 36.55 196.156 35.65C196.156 34.95 196.269 34.2933 196.496 33.68C196.723 33.06 197.046 32.5233 197.466 32.07C197.893 31.61 198.409 31.2467 199.016 30.98C199.629 30.7133 200.319 30.58 201.086 30.58C201.733 30.58 202.329 30.6833 202.876 30.89C203.423 31.0967 203.893 31.4 204.286 31.8C204.679 32.1933 204.986 32.68 205.206 33.26C205.433 33.8333 205.546 34.49 205.546 35.23C205.546 35.6033 205.506 35.8567 205.426 35.99C205.346 36.1167 205.193 36.18 204.966 36.18H198.616ZM207.4 41V30.74H208.91C209.23 30.74 209.44 30.89 209.54 31.19L209.7 31.95C209.88 31.75 210.066 31.5667 210.26 31.4C210.46 31.2333 210.67 31.09 210.89 30.97C211.116 30.85 211.356 30.7567 211.61 30.69C211.87 30.6167 212.153 30.58 212.46 30.58C213.106 30.58 213.636 30.7567 214.05 31.11C214.47 31.4567 214.783 31.92 214.99 32.5C215.15 32.16 215.35 31.87 215.59 31.63C215.83 31.3833 216.093 31.1833 216.38 31.03C216.666 30.8767 216.97 30.7633 217.29 30.69C217.616 30.6167 217.943 30.58 218.27 30.58C218.836 30.58 219.34 30.6667 219.78 30.84C220.22 31.0133 220.59 31.2667 220.89 31.6C221.19 31.9333 221.416 32.34 221.57 32.82C221.73 33.3 221.81 33.85 221.81 34.47V41H219.34V34.47C219.34 33.8167 219.196 33.3267 218.91 33C218.623 32.6667 218.203 32.5 217.65 32.5C217.396 32.5 217.16 32.5433 216.94 32.63C216.726 32.7167 216.536 32.8433 216.37 33.01C216.21 33.17 216.083 33.3733 215.99 33.62C215.896 33.8667 215.85 34.15 215.85 34.47V41H213.37V34.47C213.37 33.7833 213.23 33.2833 212.95 32.97C212.676 32.6567 212.273 32.5 211.74 32.5C211.38 32.5 211.043 32.59 210.73 32.77C210.423 32.9433 210.136 33.1833 209.87 33.49V41H207.4ZM230.768 34.69C230.768 34.37 230.721 34.07 230.628 33.79C230.541 33.5033 230.408 33.2533 230.228 33.04C230.048 32.8267 229.818 32.66 229.538 32.54C229.264 32.4133 228.944 32.35 228.578 32.35C227.864 32.35 227.301 32.5533 226.888 32.96C226.481 33.3667 226.221 33.9433 226.108 34.69H230.768ZM226.058 36.18C226.098 36.7067 226.191 37.1633 226.338 37.55C226.484 37.93 226.678 38.2467 226.918 38.5C227.158 38.7467 227.441 38.9333 227.768 39.06C228.101 39.18 228.468 39.24 228.868 39.24C229.268 39.24 229.611 39.1933 229.898 39.1C230.191 39.0067 230.444 38.9033 230.658 38.79C230.878 38.6767 231.068 38.5733 231.228 38.48C231.394 38.3867 231.554 38.34 231.708 38.34C231.914 38.34 232.068 38.4167 232.168 38.57L232.878 39.47C232.604 39.79 232.298 40.06 231.958 40.28C231.618 40.4933 231.261 40.6667 230.888 40.8C230.521 40.9267 230.144 41.0167 229.758 41.07C229.378 41.1233 229.008 41.15 228.648 41.15C227.934 41.15 227.271 41.0333 226.658 40.8C226.044 40.56 225.511 40.21 225.058 39.75C224.604 39.2833 224.248 38.71 223.988 38.03C223.728 37.3433 223.597 36.55 223.597 35.65C223.597 34.95 223.711 34.2933 223.938 33.68C224.164 33.06 224.488 32.5233 224.908 32.07C225.334 31.61 225.851 31.2467 226.458 30.98C227.071 30.7133 227.761 30.58 228.528 30.58C229.174 30.58 229.771 30.6833 230.318 30.89C230.864 31.0967 231.334 31.4 231.728 31.8C232.121 32.1933 232.428 32.68 232.648 33.26C232.874 33.8333 232.987 34.49 232.987 35.23C232.987 35.6033 232.948 35.8567 232.868 35.99C232.788 36.1167 232.634 36.18 232.408 36.18H226.058ZM237.151 32C237.358 31.7933 237.574 31.6033 237.801 31.43C238.034 31.25 238.278 31.1 238.531 30.98C238.791 30.8533 239.068 30.7567 239.361 30.69C239.654 30.6167 239.974 30.58 240.321 30.58C240.881 30.58 241.378 30.6767 241.811 30.87C242.244 31.0567 242.604 31.3233 242.891 31.67C243.184 32.01 243.404 32.42 243.551 32.9C243.704 33.3733 243.781 33.8967 243.781 34.47V41H241.311V34.47C241.311 33.8433 241.168 33.36 240.881 33.02C240.594 32.6733 240.158 32.5 239.571 32.5C239.144 32.5 238.744 32.5967 238.371 32.79C237.998 32.9833 237.644 33.2467 237.311 33.58V41H234.841V30.74H236.351C236.671 30.74 236.881 30.89 236.981 31.19L237.151 32ZM249.413 41.16C248.52 41.16 247.833 40.91 247.353 40.41C246.88 39.9033 246.643 39.2067 246.643 38.32V32.59H245.593C245.46 32.59 245.347 32.5467 245.253 32.46C245.16 32.3733 245.113 32.2433 245.113 32.07V31.09L246.763 30.82L247.283 28.02C247.317 27.8867 247.38 27.7833 247.473 27.71C247.567 27.6367 247.687 27.6 247.833 27.6H249.113V30.83H251.853V32.59H249.113V38.15C249.113 38.47 249.19 38.72 249.343 38.9C249.503 39.08 249.72 39.17 249.993 39.17C250.147 39.17 250.273 39.1533 250.373 39.12C250.48 39.08 250.57 39.04 250.643 39C250.723 38.96 250.793 38.9233 250.853 38.89C250.913 38.85 250.973 38.83 251.033 38.83C251.107 38.83 251.167 38.85 251.213 38.89C251.26 38.9233 251.31 38.9767 251.363 39.05L252.103 40.25C251.743 40.55 251.33 40.7767 250.863 40.93C250.397 41.0833 249.913 41.16 249.413 41.16Z" fill="black"/>
</g>
<defs>
<filter id="filter0_d_590_414" x="0" y="0" width="270" height="75" filterUnits="userSpaceOnUse" color-interpolation-filters="sRGB">
<feFlood flood-opacity="0" result="BackgroundImageFix"/>
<feColorMatrix in="SourceAlpha" type="matrix" values="0 0 0 0 0 0 0 0 0 0 0 0 0 0 0 0 0 0 127 0" result="hardAlpha"/>
<feOffset dx="2" dy="4"/>
<feGaussianBlur stdDeviation="2"/>
<feComposite in2="hardAlpha" operator="out"/>
<feColorMatrix type="matrix" values="0 0 0 0 0 0 0 0 0 0 0 0 0 0 0 0 0 0 0.25 0"/>
<feBlend mode="normal" in2="BackgroundImageFix" result="effect1_dropShadow_590_414"/>
<feBlend mode="normal" in="SourceGraphic" in2="effect1_dropShadow_590_414" result="shape"/>
</filter>
</defs>
</svg>
