<svg width="242" height="75" viewBox="0 0 242 75" fill="none" xmlns="http://www.w3.org/2000/svg">
<g filter="url(#filter0_d_13_7)">
<rect x="2" width="234" height="67" rx="12" fill="white"/>
<path d="M50.6543 40.396C51.2783 40.396 51.8343 40.292 52.3223 40.084C52.8183 39.876 53.2343 39.584 53.5703 39.208C53.9063 38.832 54.1623 38.376 54.3383 37.84C54.5223 37.304 54.6143 36.704 54.6143 36.04V25.648H57.8423V36.04C57.8423 37.072 57.6743 38.028 57.3383 38.908C57.0103 39.78 56.5343 40.536 55.9103 41.176C55.2943 41.808 54.5423 42.304 53.6543 42.664C52.7663 43.016 51.7663 43.192 50.6543 43.192C49.5343 43.192 48.5303 43.016 47.6423 42.664C46.7543 42.304 45.9983 41.808 45.3743 41.176C44.7583 40.536 44.2823 39.78 43.9463 38.908C43.6183 38.028 43.4543 37.072 43.4543 36.04V25.648H46.6823V36.028C46.6823 36.692 46.7703 37.292 46.9463 37.828C47.1303 38.364 47.3903 38.824 47.7263 39.208C48.0703 39.584 48.4863 39.876 48.9743 40.084C49.4703 40.292 50.0303 40.396 50.6543 40.396ZM75.5828 43H72.3668C72.1428 43 71.9628 42.944 71.8268 42.832C71.6988 42.72 71.5948 42.592 71.5148 42.448L67.4948 35.788C67.4308 35.988 67.3548 36.16 67.2668 36.304L63.4148 42.448C63.3188 42.584 63.2068 42.712 63.0788 42.832C62.9588 42.944 62.7988 43 62.5988 43H59.5868L65.3468 34.072L59.8148 25.648H63.0308C63.2548 25.648 63.4148 25.68 63.5108 25.744C63.6148 25.8 63.7108 25.896 63.7988 26.032L67.7468 32.392C67.8268 32.192 67.9228 31.992 68.0348 31.792L71.6588 26.092C71.7468 25.94 71.8428 25.828 71.9468 25.756C72.0508 25.684 72.1828 25.648 72.3428 25.648H75.4268L69.8468 33.94L75.5828 43ZM106.344 25.648L100.956 43H98.0402L94.2482 31.144C94.1442 30.856 94.0482 30.504 93.9602 30.088C93.9122 30.288 93.8642 30.476 93.8162 30.652C93.7682 30.828 93.7162 30.992 93.6602 31.144L89.8322 43H86.9042L81.5282 25.648H84.2282C84.5082 25.648 84.7402 25.716 84.9242 25.852C85.1162 25.98 85.2442 26.156 85.3082 26.38L88.2602 36.76C88.3242 37.016 88.3842 37.296 88.4402 37.6C88.5042 37.896 88.5682 38.208 88.6322 38.536C88.6962 38.2 88.7642 37.884 88.8362 37.588C88.9162 37.292 89.0002 37.016 89.0882 36.76L92.4962 26.38C92.5602 26.196 92.6842 26.028 92.8682 25.876C93.0602 25.724 93.2922 25.648 93.5642 25.648H94.5122C94.7922 25.648 95.0202 25.716 95.1962 25.852C95.3722 25.988 95.5042 26.164 95.5922 26.38L98.9882 36.76C99.1562 37.256 99.3082 37.828 99.4442 38.476C99.5482 37.844 99.6642 37.272 99.7922 36.76L102.744 26.38C102.792 26.18 102.912 26.008 103.104 25.864C103.304 25.72 103.54 25.648 103.812 25.648H106.344ZM110.962 30.688V43H107.986V30.688H110.962ZM111.37 27.1C111.37 27.356 111.318 27.596 111.214 27.82C111.11 28.044 110.97 28.24 110.794 28.408C110.626 28.576 110.426 28.712 110.194 28.816C109.962 28.912 109.714 28.96 109.45 28.96C109.194 28.96 108.95 28.912 108.718 28.816C108.494 28.712 108.298 28.576 108.13 28.408C107.962 28.24 107.826 28.044 107.722 27.82C107.626 27.596 107.578 27.356 107.578 27.1C107.578 26.836 107.626 26.588 107.722 26.356C107.826 26.124 107.962 25.924 108.13 25.756C108.298 25.588 108.494 25.456 108.718 25.36C108.95 25.256 109.194 25.204 109.45 25.204C109.714 25.204 109.962 25.256 110.194 25.36C110.426 25.456 110.626 25.588 110.794 25.756C110.97 25.924 111.11 26.124 111.214 26.356C111.318 26.588 111.37 26.836 111.37 27.1ZM116.78 32.824C117.164 32.088 117.62 31.512 118.148 31.096C118.676 30.672 119.3 30.46 120.02 30.46C120.588 30.46 121.044 30.584 121.388 30.832L121.196 33.052C121.156 33.196 121.096 33.3 121.016 33.364C120.944 33.42 120.844 33.448 120.716 33.448C120.596 33.448 120.416 33.428 120.176 33.388C119.944 33.348 119.716 33.328 119.492 33.328C119.164 33.328 118.872 33.376 118.616 33.472C118.36 33.568 118.128 33.708 117.92 33.892C117.72 34.068 117.54 34.284 117.38 34.54C117.228 34.796 117.084 35.088 116.948 35.416V43H113.984V30.688H115.724C116.028 30.688 116.24 30.744 116.36 30.856C116.48 30.96 116.56 31.152 116.6 31.432L116.78 32.824ZM130.517 35.428C130.517 35.044 130.461 34.684 130.349 34.348C130.245 34.004 130.085 33.704 129.869 33.448C129.653 33.192 129.377 32.992 129.041 32.848C128.713 32.696 128.329 32.62 127.889 32.62C127.033 32.62 126.357 32.864 125.861 33.352C125.373 33.84 125.061 34.532 124.925 35.428H130.517ZM124.865 37.216C124.913 37.848 125.025 38.396 125.201 38.86C125.377 39.316 125.609 39.696 125.897 40C126.185 40.296 126.525 40.52 126.917 40.672C127.317 40.816 127.757 40.888 128.237 40.888C128.717 40.888 129.129 40.832 129.473 40.72C129.825 40.608 130.129 40.484 130.385 40.348C130.649 40.212 130.877 40.088 131.069 39.976C131.269 39.864 131.461 39.808 131.645 39.808C131.893 39.808 132.077 39.9 132.197 40.084L133.049 41.164C132.721 41.548 132.353 41.872 131.945 42.136C131.537 42.392 131.109 42.6 130.661 42.76C130.221 42.912 129.769 43.02 129.305 43.084C128.849 43.148 128.405 43.18 127.973 43.18C127.117 43.18 126.321 43.04 125.585 42.76C124.849 42.472 124.209 42.052 123.665 41.5C123.121 40.94 122.693 40.252 122.381 39.436C122.069 38.612 121.913 37.66 121.913 36.58C121.913 35.74 122.049 34.952 122.321 34.216C122.593 33.472 122.981 32.828 123.485 32.284C123.997 31.732 124.617 31.296 125.345 30.976C126.081 30.656 126.909 30.496 127.829 30.496C128.605 30.496 129.321 30.62 129.977 30.868C130.633 31.116 131.197 31.48 131.669 31.96C132.141 32.432 132.509 33.016 132.773 33.712C133.045 34.4 133.181 35.188 133.181 36.076C133.181 36.524 133.133 36.828 133.037 36.988C132.941 37.14 132.757 37.216 132.485 37.216H124.865ZM136.082 43V32.92L135.014 32.752C134.782 32.704 134.594 32.624 134.45 32.512C134.314 32.392 134.246 32.224 134.246 32.008V30.796H136.082V29.884C136.082 29.18 136.186 28.548 136.394 27.988C136.61 27.428 136.914 26.952 137.306 26.56C137.706 26.168 138.19 25.868 138.758 25.66C139.326 25.452 139.966 25.348 140.678 25.348C141.246 25.348 141.774 25.424 142.262 25.576L142.202 27.064C142.194 27.176 142.162 27.268 142.106 27.34C142.05 27.404 141.974 27.456 141.878 27.496C141.79 27.528 141.686 27.552 141.566 27.568C141.446 27.576 141.318 27.58 141.182 27.58C140.83 27.58 140.514 27.62 140.234 27.7C139.962 27.772 139.73 27.904 139.538 28.096C139.346 28.28 139.198 28.528 139.094 28.84C138.998 29.144 138.95 29.524 138.95 29.98V30.796H142.154V32.908H139.046V43H136.082ZM146.615 32.824C146.999 32.088 147.455 31.512 147.983 31.096C148.511 30.672 149.135 30.46 149.855 30.46C150.423 30.46 150.879 30.584 151.223 30.832L151.031 33.052C150.991 33.196 150.931 33.3 150.851 33.364C150.779 33.42 150.679 33.448 150.551 33.448C150.431 33.448 150.251 33.428 150.011 33.388C149.779 33.348 149.551 33.328 149.327 33.328C148.999 33.328 148.707 33.376 148.451 33.472C148.195 33.568 147.963 33.708 147.755 33.892C147.555 34.068 147.375 34.284 147.215 34.54C147.063 34.796 146.919 35.088 146.783 35.416V43H143.819V30.688H145.559C145.863 30.688 146.075 30.744 146.195 30.856C146.315 30.96 146.395 31.152 146.435 31.432L146.615 32.824ZM159.113 37.744C158.257 37.784 157.537 37.86 156.953 37.972C156.369 38.076 155.901 38.212 155.549 38.38C155.197 38.548 154.945 38.744 154.793 38.968C154.641 39.192 154.565 39.436 154.565 39.7C154.565 40.22 154.717 40.592 155.021 40.816C155.333 41.04 155.737 41.152 156.233 41.152C156.841 41.152 157.365 41.044 157.805 40.828C158.253 40.604 158.689 40.268 159.113 39.82V37.744ZM152.321 32.404C153.737 31.108 155.441 30.46 157.433 30.46C158.153 30.46 158.797 30.58 159.365 30.82C159.933 31.052 160.413 31.38 160.805 31.804C161.197 32.22 161.493 32.72 161.693 33.304C161.901 33.888 162.005 34.528 162.005 35.224V43H160.661C160.381 43 160.165 42.96 160.013 42.88C159.861 42.792 159.741 42.62 159.653 42.364L159.389 41.476C159.077 41.756 158.773 42.004 158.477 42.22C158.181 42.428 157.873 42.604 157.553 42.748C157.233 42.892 156.889 43 156.521 43.072C156.161 43.152 155.761 43.192 155.321 43.192C154.801 43.192 154.321 43.124 153.881 42.988C153.441 42.844 153.061 42.632 152.741 42.352C152.421 42.072 152.173 41.724 151.997 41.308C151.821 40.892 151.733 40.408 151.733 39.856C151.733 39.544 151.785 39.236 151.889 38.932C151.993 38.62 152.161 38.324 152.393 38.044C152.633 37.764 152.941 37.5 153.317 37.252C153.693 37.004 154.153 36.788 154.697 36.604C155.249 36.42 155.889 36.272 156.617 36.16C157.345 36.04 158.177 35.968 159.113 35.944V35.224C159.113 34.4 158.937 33.792 158.585 33.4C158.233 33 157.725 32.8 157.061 32.8C156.581 32.8 156.181 32.856 155.861 32.968C155.549 33.08 155.273 33.208 155.033 33.352C154.793 33.488 154.573 33.612 154.373 33.724C154.181 33.836 153.965 33.892 153.725 33.892C153.517 33.892 153.341 33.84 153.197 33.736C153.053 33.624 152.937 33.496 152.849 33.352L152.321 32.404ZM164.796 43V30.688H166.608C166.992 30.688 167.244 30.868 167.364 31.228L167.556 32.14C167.772 31.9 167.996 31.68 168.228 31.48C168.468 31.28 168.72 31.108 168.984 30.964C169.256 30.82 169.544 30.708 169.848 30.628C170.16 30.54 170.5 30.496 170.868 30.496C171.644 30.496 172.28 30.708 172.776 31.132C173.28 31.548 173.656 32.104 173.904 32.8C174.096 32.392 174.336 32.044 174.624 31.756C174.912 31.46 175.228 31.22 175.572 31.036C175.916 30.852 176.28 30.716 176.664 30.628C177.056 30.54 177.448 30.496 177.84 30.496C178.52 30.496 179.124 30.6 179.652 30.808C180.18 31.016 180.624 31.32 180.984 31.72C181.344 32.12 181.616 32.608 181.8 33.184C181.992 33.76 182.088 34.42 182.088 35.164V43H179.124V35.164C179.124 34.38 178.952 33.792 178.608 33.4C178.264 33 177.76 32.8 177.096 32.8C176.792 32.8 176.508 32.852 176.244 32.956C175.988 33.06 175.76 33.212 175.56 33.412C175.368 33.604 175.216 33.848 175.104 34.144C174.992 34.44 174.936 34.78 174.936 35.164V43H171.96V35.164C171.96 34.34 171.792 33.74 171.456 33.364C171.128 32.988 170.644 32.8 170.004 32.8C169.572 32.8 169.168 32.908 168.792 33.124C168.424 33.332 168.08 33.62 167.76 33.988V43H164.796ZM192.837 35.428C192.837 35.044 192.781 34.684 192.669 34.348C192.565 34.004 192.405 33.704 192.189 33.448C191.973 33.192 191.697 32.992 191.361 32.848C191.033 32.696 190.649 32.62 190.209 32.62C189.353 32.62 188.677 32.864 188.181 33.352C187.693 33.84 187.381 34.532 187.245 35.428H192.837ZM187.185 37.216C187.233 37.848 187.345 38.396 187.521 38.86C187.697 39.316 187.929 39.696 188.217 40C188.505 40.296 188.845 40.52 189.237 40.672C189.637 40.816 190.077 40.888 190.557 40.888C191.037 40.888 191.449 40.832 191.793 40.72C192.145 40.608 192.449 40.484 192.705 40.348C192.969 40.212 193.197 40.088 193.389 39.976C193.589 39.864 193.781 39.808 193.965 39.808C194.213 39.808 194.397 39.9 194.517 40.084L195.369 41.164C195.041 41.548 194.673 41.872 194.265 42.136C193.857 42.392 193.429 42.6 192.981 42.76C192.541 42.912 192.089 43.02 191.625 43.084C191.169 43.148 190.725 43.18 190.293 43.18C189.437 43.18 188.641 43.04 187.905 42.76C187.169 42.472 186.529 42.052 185.985 41.5C185.441 40.94 185.013 40.252 184.701 39.436C184.389 38.612 184.233 37.66 184.233 36.58C184.233 35.74 184.369 34.952 184.641 34.216C184.913 33.472 185.301 32.828 185.805 32.284C186.317 31.732 186.937 31.296 187.665 30.976C188.401 30.656 189.229 30.496 190.149 30.496C190.925 30.496 191.641 30.62 192.297 30.868C192.953 31.116 193.517 31.48 193.989 31.96C194.461 32.432 194.829 33.016 195.093 33.712C195.365 34.4 195.501 35.188 195.501 36.076C195.501 36.524 195.453 36.828 195.357 36.988C195.261 37.14 195.077 37.216 194.805 37.216H187.185Z" fill="black"/>
</g>
<defs>
<filter id="filter0_d_13_7" x="0" y="0" width="242" height="75" filterUnits="userSpaceOnUse" color-interpolation-filters="sRGB">
<feFlood flood-opacity="0" result="BackgroundImageFix"/>
<feColorMatrix in="SourceAlpha" type="matrix" values="0 0 0 0 0 0 0 0 0 0 0 0 0 0 0 0 0 0 127 0" result="hardAlpha"/>
<feOffset dx="2" dy="4"/>
<feGaussianBlur stdDeviation="2"/>
<feComposite in2="hardAlpha" operator="out"/>
<feColorMatrix type="matrix" values="0 0 0 0 0 0 0 0 0 0 0 0 0 0 0 0 0 0 0.25 0"/>
<feBlend mode="normal" in2="BackgroundImageFix" result="effect1_dropShadow_13_7"/>
<feBlend mode="normal" in="SourceGraphic" in2="effect1_dropShadow_13_7" result="shape"/>
</filter>
</defs>
</svg>
