<svg width="242" height="75" viewBox="0 0 242 75" fill="none" xmlns="http://www.w3.org/2000/svg">
<g filter="url(#filter0_d_0_130)">
<rect x="2" width="234" height="67" rx="12" fill="white"/>
<path d="M55.916 40.396C56.54 40.396 57.096 40.292 57.584 40.084C58.08 39.876 58.496 39.584 58.832 39.208C59.168 38.832 59.424 38.376 59.6 37.84C59.784 37.304 59.876 36.704 59.876 36.04V25.648H63.104V36.04C63.104 37.072 62.936 38.028 62.6 38.908C62.272 39.78 61.796 40.536 61.172 41.176C60.556 41.808 59.804 42.304 58.916 42.664C58.028 43.016 57.028 43.192 55.916 43.192C54.796 43.192 53.792 43.016 52.904 42.664C52.016 42.304 51.26 41.808 50.636 41.176C50.02 40.536 49.544 39.78 49.208 38.908C48.88 38.028 48.716 37.072 48.716 36.04V25.648H51.944V36.028C51.944 36.692 52.032 37.292 52.208 37.828C52.392 38.364 52.652 38.824 52.988 39.208C53.332 39.584 53.748 39.876 54.236 40.084C54.732 40.292 55.292 40.396 55.916 40.396ZM69.9845 43H66.7445V25.648H69.9845V43ZM75.4655 43.036C75.3295 43.404 75.1095 43.68 74.8055 43.864C74.5095 44.048 74.2055 44.14 73.8935 44.14H72.6335L79.6415 26.212C79.7695 25.876 79.9655 25.62 80.2295 25.444C80.4935 25.26 80.8015 25.168 81.1535 25.168H82.4255L75.4655 43.036ZM92.0332 40.396C92.6572 40.396 93.2132 40.292 93.7012 40.084C94.1972 39.876 94.6132 39.584 94.9492 39.208C95.2852 38.832 95.5412 38.376 95.7172 37.84C95.9012 37.304 95.9932 36.704 95.9932 36.04V25.648H99.2212V36.04C99.2212 37.072 99.0532 38.028 98.7172 38.908C98.3892 39.78 97.9132 40.536 97.2892 41.176C96.6732 41.808 95.9212 42.304 95.0332 42.664C94.1452 43.016 93.1452 43.192 92.0332 43.192C90.9132 43.192 89.9092 43.016 89.0212 42.664C88.1332 42.304 87.3772 41.808 86.7532 41.176C86.1372 40.536 85.6612 39.78 85.3252 38.908C84.9972 38.028 84.8332 37.072 84.8332 36.04V25.648H88.0612V36.028C88.0612 36.692 88.1492 37.292 88.3252 37.828C88.5092 38.364 88.7692 38.824 89.1052 39.208C89.4492 39.584 89.8652 39.876 90.3532 40.084C90.8492 40.292 91.4092 40.396 92.0332 40.396ZM116.962 43H113.746C113.522 43 113.342 42.944 113.206 42.832C113.078 42.72 112.974 42.592 112.894 42.448L108.874 35.788C108.81 35.988 108.734 36.16 108.646 36.304L104.794 42.448C104.698 42.584 104.586 42.712 104.458 42.832C104.338 42.944 104.178 43 103.978 43H100.966L106.726 34.072L101.194 25.648H104.41C104.634 25.648 104.794 25.68 104.89 25.744C104.994 25.8 105.09 25.896 105.178 26.032L109.126 32.392C109.206 32.192 109.302 31.992 109.414 31.792L113.038 26.092C113.126 25.94 113.222 25.828 113.326 25.756C113.43 25.684 113.562 25.648 113.722 25.648H116.806L111.226 33.94L116.962 43ZM140.207 34.324C140.207 35.596 139.995 36.764 139.571 37.828C139.147 38.892 138.551 39.808 137.783 40.576C137.015 41.344 136.091 41.94 135.011 42.364C133.931 42.788 132.731 43 131.411 43H124.799V25.648H131.411C132.731 25.648 133.931 25.864 135.011 26.296C136.091 26.72 137.015 27.316 137.783 28.084C138.551 28.844 139.147 29.756 139.571 30.82C139.995 31.884 140.207 33.052 140.207 34.324ZM136.895 34.324C136.895 33.372 136.767 32.52 136.511 31.768C136.263 31.008 135.899 30.368 135.419 29.848C134.947 29.32 134.371 28.916 133.691 28.636C133.019 28.356 132.259 28.216 131.411 28.216H128.039V40.432H131.411C132.259 40.432 133.019 40.292 133.691 40.012C134.371 39.732 134.947 39.332 135.419 38.812C135.899 38.284 136.263 37.644 136.511 36.892C136.767 36.132 136.895 35.276 136.895 34.324ZM150.357 35.428C150.357 35.044 150.301 34.684 150.189 34.348C150.085 34.004 149.925 33.704 149.709 33.448C149.493 33.192 149.217 32.992 148.881 32.848C148.553 32.696 148.169 32.62 147.729 32.62C146.873 32.62 146.197 32.864 145.701 33.352C145.213 33.84 144.901 34.532 144.765 35.428H150.357ZM144.705 37.216C144.753 37.848 144.865 38.396 145.041 38.86C145.217 39.316 145.449 39.696 145.737 40C146.025 40.296 146.365 40.52 146.757 40.672C147.157 40.816 147.597 40.888 148.077 40.888C148.557 40.888 148.969 40.832 149.313 40.72C149.665 40.608 149.969 40.484 150.225 40.348C150.489 40.212 150.717 40.088 150.909 39.976C151.109 39.864 151.301 39.808 151.485 39.808C151.733 39.808 151.917 39.9 152.037 40.084L152.889 41.164C152.561 41.548 152.193 41.872 151.785 42.136C151.377 42.392 150.949 42.6 150.501 42.76C150.061 42.912 149.609 43.02 149.145 43.084C148.689 43.148 148.245 43.18 147.813 43.18C146.957 43.18 146.161 43.04 145.425 42.76C144.689 42.472 144.049 42.052 143.505 41.5C142.961 40.94 142.533 40.252 142.221 39.436C141.909 38.612 141.753 37.66 141.753 36.58C141.753 35.74 141.889 34.952 142.161 34.216C142.433 33.472 142.821 32.828 143.325 32.284C143.837 31.732 144.457 31.296 145.185 30.976C145.921 30.656 146.749 30.496 147.669 30.496C148.445 30.496 149.161 30.62 149.817 30.868C150.473 31.116 151.037 31.48 151.509 31.96C151.981 32.432 152.349 33.016 152.613 33.712C152.885 34.4 153.021 35.188 153.021 36.076C153.021 36.524 152.973 36.828 152.877 36.988C152.781 37.14 152.597 37.216 152.325 37.216H144.705ZM162.757 33.088C162.677 33.216 162.593 33.308 162.505 33.364C162.417 33.412 162.305 33.436 162.169 33.436C162.025 33.436 161.869 33.396 161.701 33.316C161.541 33.236 161.353 33.148 161.137 33.052C160.921 32.948 160.673 32.856 160.393 32.776C160.121 32.696 159.797 32.656 159.421 32.656C158.837 32.656 158.377 32.78 158.041 33.028C157.713 33.276 157.549 33.6 157.549 34C157.549 34.264 157.633 34.488 157.801 34.672C157.977 34.848 158.205 35.004 158.485 35.14C158.773 35.276 159.097 35.4 159.457 35.512C159.817 35.616 160.181 35.732 160.549 35.86C160.925 35.988 161.293 36.136 161.653 36.304C162.013 36.464 162.333 36.672 162.613 36.928C162.901 37.176 163.129 37.476 163.297 37.828C163.473 38.18 163.561 38.604 163.561 39.1C163.561 39.692 163.453 40.24 163.237 40.744C163.029 41.24 162.717 41.672 162.301 42.04C161.885 42.4 161.369 42.684 160.753 42.892C160.145 43.092 159.441 43.192 158.641 43.192C158.217 43.192 157.801 43.152 157.393 43.072C156.993 43 156.605 42.896 156.229 42.76C155.861 42.624 155.517 42.464 155.197 42.28C154.885 42.096 154.609 41.896 154.369 41.68L155.053 40.552C155.141 40.416 155.245 40.312 155.365 40.24C155.485 40.168 155.637 40.132 155.821 40.132C156.005 40.132 156.177 40.184 156.337 40.288C156.505 40.392 156.697 40.504 156.913 40.624C157.129 40.744 157.381 40.856 157.669 40.96C157.965 41.064 158.337 41.116 158.785 41.116C159.137 41.116 159.437 41.076 159.685 40.996C159.941 40.908 160.149 40.796 160.309 40.66C160.477 40.524 160.597 40.368 160.669 40.192C160.749 40.008 160.789 39.82 160.789 39.628C160.789 39.34 160.701 39.104 160.525 38.92C160.357 38.736 160.129 38.576 159.841 38.44C159.561 38.304 159.237 38.184 158.869 38.08C158.509 37.968 158.137 37.848 157.753 37.72C157.377 37.592 157.005 37.444 156.637 37.276C156.277 37.1 155.953 36.88 155.665 36.616C155.385 36.352 155.157 36.028 154.981 35.644C154.813 35.26 154.729 34.796 154.729 34.252C154.729 33.748 154.829 33.268 155.029 32.812C155.229 32.356 155.521 31.96 155.905 31.624C156.297 31.28 156.781 31.008 157.357 30.808C157.941 30.6 158.613 30.496 159.373 30.496C160.221 30.496 160.993 30.636 161.689 30.916C162.385 31.196 162.965 31.564 163.429 32.02L162.757 33.088ZM168.864 30.688V43H165.888V30.688H168.864ZM169.272 27.1C169.272 27.356 169.22 27.596 169.116 27.82C169.012 28.044 168.872 28.24 168.696 28.408C168.528 28.576 168.328 28.712 168.096 28.816C167.864 28.912 167.616 28.96 167.352 28.96C167.096 28.96 166.852 28.912 166.62 28.816C166.396 28.712 166.2 28.576 166.032 28.408C165.864 28.24 165.728 28.044 165.624 27.82C165.528 27.596 165.48 27.356 165.48 27.1C165.48 26.836 165.528 26.588 165.624 26.356C165.728 26.124 165.864 25.924 166.032 25.756C166.2 25.588 166.396 25.456 166.62 25.36C166.852 25.256 167.096 25.204 167.352 25.204C167.616 25.204 167.864 25.256 168.096 25.36C168.328 25.456 168.528 25.588 168.696 25.756C168.872 25.924 169.012 26.124 169.116 26.356C169.22 26.588 169.272 26.836 169.272 27.1ZM176.386 36.544C176.754 36.544 177.074 36.496 177.346 36.4C177.618 36.296 177.842 36.156 178.018 35.98C178.202 35.804 178.338 35.592 178.426 35.344C178.522 35.096 178.57 34.824 178.57 34.528C178.57 33.92 178.386 33.44 178.018 33.088C177.658 32.728 177.114 32.548 176.386 32.548C175.658 32.548 175.11 32.728 174.742 33.088C174.382 33.44 174.202 33.92 174.202 34.528C174.202 34.816 174.246 35.084 174.334 35.332C174.43 35.58 174.566 35.796 174.742 35.98C174.926 36.156 175.154 36.296 175.426 36.4C175.706 36.496 176.026 36.544 176.386 36.544ZM179.734 43.552C179.734 43.312 179.662 43.116 179.518 42.964C179.374 42.812 179.178 42.696 178.93 42.616C178.682 42.528 178.39 42.464 178.054 42.424C177.726 42.384 177.374 42.356 176.998 42.34C176.63 42.316 176.246 42.296 175.846 42.28C175.454 42.264 175.07 42.232 174.694 42.184C174.366 42.368 174.098 42.584 173.89 42.832C173.69 43.08 173.59 43.368 173.59 43.696C173.59 43.912 173.642 44.112 173.746 44.296C173.858 44.488 174.03 44.652 174.262 44.788C174.502 44.924 174.81 45.028 175.186 45.1C175.562 45.18 176.022 45.22 176.566 45.22C177.118 45.22 177.594 45.176 177.994 45.088C178.394 45.008 178.722 44.892 178.978 44.74C179.242 44.596 179.434 44.42 179.554 44.212C179.674 44.012 179.734 43.792 179.734 43.552ZM182.686 31.108V32.212C182.686 32.564 182.474 32.78 182.05 32.86L180.946 33.064C181.114 33.488 181.198 33.952 181.198 34.456C181.198 35.064 181.074 35.616 180.826 36.112C180.586 36.6 180.25 37.016 179.818 37.36C179.386 37.704 178.874 37.972 178.282 38.164C177.698 38.348 177.066 38.44 176.386 38.44C176.146 38.44 175.914 38.428 175.69 38.404C175.466 38.38 175.246 38.348 175.03 38.308C174.646 38.54 174.454 38.8 174.454 39.088C174.454 39.336 174.566 39.52 174.79 39.64C175.022 39.752 175.326 39.832 175.702 39.88C176.078 39.928 176.506 39.96 176.986 39.976C177.466 39.984 177.958 40.008 178.462 40.048C178.966 40.088 179.458 40.16 179.938 40.264C180.418 40.36 180.846 40.516 181.222 40.732C181.598 40.948 181.898 41.244 182.122 41.62C182.354 41.988 182.47 42.464 182.47 43.048C182.47 43.592 182.334 44.12 182.062 44.632C181.798 45.144 181.41 45.6 180.898 46C180.394 46.4 179.77 46.72 179.026 46.96C178.29 47.208 177.45 47.332 176.506 47.332C175.578 47.332 174.77 47.24 174.082 47.056C173.394 46.88 172.822 46.64 172.366 46.336C171.91 46.04 171.57 45.696 171.346 45.304C171.122 44.912 171.01 44.504 171.01 44.08C171.01 43.504 171.182 43.024 171.526 42.64C171.878 42.248 172.358 41.936 172.966 41.704C172.638 41.536 172.378 41.312 172.186 41.032C171.994 40.752 171.898 40.384 171.898 39.928C171.898 39.744 171.93 39.556 171.994 39.364C172.066 39.164 172.166 38.968 172.294 38.776C172.43 38.584 172.598 38.404 172.798 38.236C172.998 38.06 173.234 37.904 173.506 37.768C172.882 37.432 172.39 36.984 172.03 36.424C171.678 35.864 171.502 35.208 171.502 34.456C171.502 33.848 171.622 33.3 171.862 32.812C172.11 32.316 172.45 31.896 172.882 31.552C173.322 31.2 173.838 30.932 174.43 30.748C175.03 30.564 175.682 30.472 176.386 30.472C176.914 30.472 177.41 30.528 177.874 30.64C178.338 30.744 178.762 30.9 179.146 31.108H182.686ZM187.338 32.2C187.586 31.952 187.846 31.724 188.118 31.516C188.398 31.3 188.69 31.12 188.994 30.976C189.306 30.824 189.638 30.708 189.99 30.628C190.342 30.54 190.726 30.496 191.142 30.496C191.814 30.496 192.41 30.612 192.93 30.844C193.45 31.068 193.882 31.388 194.226 31.804C194.578 32.212 194.842 32.704 195.018 33.28C195.202 33.848 195.294 34.476 195.294 35.164V43H192.33V35.164C192.33 34.412 192.158 33.832 191.814 33.424C191.47 33.008 190.946 32.8 190.242 32.8C189.73 32.8 189.25 32.916 188.802 33.148C188.354 33.38 187.93 33.696 187.53 34.096V43H184.566V30.688H186.378C186.762 30.688 187.014 30.868 187.134 31.228L187.338 32.2Z" fill="black"/>
</g>
<defs>
<filter id="filter0_d_0_130" x="0" y="0" width="242" height="75" filterUnits="userSpaceOnUse" color-interpolation-filters="sRGB">
<feFlood flood-opacity="0" result="BackgroundImageFix"/>
<feColorMatrix in="SourceAlpha" type="matrix" values="0 0 0 0 0 0 0 0 0 0 0 0 0 0 0 0 0 0 127 0" result="hardAlpha"/>
<feOffset dx="2" dy="4"/>
<feGaussianBlur stdDeviation="2"/>
<feComposite in2="hardAlpha" operator="out"/>
<feColorMatrix type="matrix" values="0 0 0 0 0 0 0 0 0 0 0 0 0 0 0 0 0 0 0.25 0"/>
<feBlend mode="normal" in2="BackgroundImageFix" result="effect1_dropShadow_0_130"/>
<feBlend mode="normal" in="SourceGraphic" in2="effect1_dropShadow_0_130" result="shape"/>
</filter>
</defs>
</svg>
